RobotoSlab-Bold.ufo
<glyph name="quotedbl" format="1">
  <advance width="782"/>
  <unicode hex="0022"/>
  <outline>
    <contour>
      <point x="346" y="1288" type="line"/>
      <point x="269" y="1039" type="line"/>
      <point x="140" y="1039" type="line"/>
      <point x="140" y="1560" type="line"/>
      <point x="346" y="1560" type="line"/>
    </contour>
    <contour>
      <point x="672" y="1288" type="line"/>
      <point x="595" y="1039" type="line"/>
      <point x="467" y="1039" type="line"/>
      <point x="467" y="1560" type="line"/>
      <point x="672" y="1560" type="line"/>
    </contour>
  </outline>
</glyph>
<glyph name="numbersign" format="1">
  <advance width="1198"/>
  <unicode hex="0023"/>
  <outline>
    <contour>
      <point x="642" y="410" type="line"/>
      <point x="450" y="410" type="line"/>
      <point x="378" y="0" type="line"/>
      <point x="194" y="0" type="line"/>
      <point x="266" y="410" type="line"/>
      <point x="39" y="410" type="line"/>
      <point x="39" y="579" type="line"/>
      <point x="295" y="579" type="line"/>
      <point x="346" y="869" type="line"/>
      <point x="115" y="869" type="line"/>
      <point x="115" y="1040" type="line"/>
      <point x="376" y="1040" type="line"/>
      <point x="450" y="1456" type="line"/>
      <point x="633" y="1456" type="line"/>
      <point x="560" y="1040" type="line"/>
      <point x="752" y="1040" type="line"/>
      <point x="825" y="1456" type="line"/>
      <point x="1009" y="1456" type="line"/>
      <point x="935" y="1040" type="line"/>
      <point x="1155" y="1040" type="line"/>
      <point x="1155" y="869" type="line"/>
      <point x="905" y="869" type="line"/>
      <point x="854" y="579" type="line"/>
      <point x="1080" y="579" type="line"/>
      <point x="1080" y="410" type="line"/>
      <point x="825" y="410" type="line"/>
      <point x="753" y="0" type="line"/>
      <point x="570" y="0" type="line"/>
    </contour>
    <contour>
      <point x="479" y="579" type="line"/>
      <point x="671" y="579" type="line"/>
      <point x="722" y="869" type="line"/>
      <point x="530" y="869" type="line"/>
    </contour>
  </outline>
</glyph>
<glyph name="dollar" format="1">
  <advance width="1107"/>
  <unicode hex="0024"/>
  <outline>
    <contour>
      <point x="749" y="383" type="curve" smooth="yes"/>
      <point x="749.0" y="491.0"/>
      <point x="693.6666666666667" y="551.3333333333333"/>
      <point x="543" y="610" type="curve" smooth="yes"/>
      <point x="247.0" y="718.0"/>
      <point x="107.0" y="829.6666666666667"/>
      <point x="107" y="1071" type="curve" smooth="yes"/>
      <point x="107.0" y="1295.0"/>
      <point x="261.3333333333333" y="1447.6666666666665"/>
      <point x="504" y="1473" type="curve"/>
      <point x="504" y="1688" type="line"/>
      <point x="663" y="1688" type="line"/>
      <point x="663" y="1470" type="line"/>
      <point x="896.3333333333333" y="1435.3333333333335"/>
      <point x="1039.6666666666665" y="1267.3333333333335"/>
      <point x="1037" y="1010" type="curve"/>
      <point x="1034" y="1005" type="line"/>
      <point x="750" y="1005" type="line"/>
      <point x="750.0" y="1162.3333333333335"/>
      <point x="679.6666666666667" y="1251.0"/>
      <point x="569" y="1251" type="curve" smooth="yes"/>
      <point x="454.33333333333337" y="1251.0"/>
      <point x="398.0" y="1179.3333333333335"/>
      <point x="398" y="1070" type="curve" smooth="yes"/>
      <point x="398.0" y="966.0"/>
      <point x="447.33333333333326" y="910.6666666666667"/>
      <point x="606" y="848" type="curve" smooth="yes"/>
      <point x="900.6666666666665" y="732.0"/>
      <point x="1041.0" y="622.3333333333333"/>
      <point x="1041" y="385" type="curve" smooth="yes"/>
      <point x="1041.0" y="154.33333333333337"/>
      <point x="887.0" y="9.333333333333332"/>
      <point x="643" y="-16" type="curve"/>
      <point x="643" y="-214" type="line"/>
      <point x="484" y="-214" type="line"/>
      <point x="484" y="-17" type="line"/>
      <point x="234.66666666666674" y="8.333333333333332"/>
      <point x="51.66666666666667" y="155.66666666666674"/>
      <point x="57" y="449" type="curve"/>
      <point x="59" y="454" type="line"/>
      <point x="343" y="454" type="line"/>
      <point x="343.0" y="275.33333333333337"/>
      <point x="435.66666666666663" y="204.0"/>
      <point x="561" y="204" type="curve" smooth="yes"/>
      <point x="682.3333333333333" y="204.0"/>
      <point x="749.0" y="273.66666666666663"/>
    </contour>
  </outline>
</glyph>
<glyph name="percent" format="1">
  <advance width="1429"/>
  <unicode hex="0025"/>
  <outline>
    <contour>
      <point x="49" y="1176" type="line" smooth="yes"/>
      <point x="49.0" y="1348.0"/>
      <point x="166.33333333333337" y="1477.0"/>
      <point x="365" y="1477" type="curve" smooth="yes"/>
      <point x="566.3333333333333" y="1477.0"/>
      <point x="682.0" y="1349.3333333333335"/>
      <point x="682" y="1176" type="curve" smooth="yes"/>
      <point x="682" y="1099" type="line" smooth="yes"/>
      <point x="682.0" y="927.0"/>
      <point x="565.6666666666666" y="800.0"/>
      <point x="367" y="800" type="curve" smooth="yes"/>
      <point x="167.0" y="800.0"/>
      <point x="49.0" y="927.0"/>
      <point x="49" y="1099" type="curve" smooth="yes"/>
    </contour>
    <contour>
      <point x="243" y="1099" type="line" smooth="yes"/>
      <point x="243.0" y="1021.6666666666664"/>
      <point x="287.00000000000006" y="962.0"/>
      <point x="367" y="962" type="curve" smooth="yes"/>
      <point x="444.33333333333326" y="962.0"/>
      <point x="489.0" y="1021.6666666666664"/>
      <point x="489" y="1099" type="curve" smooth="yes"/>
      <point x="489" y="1176" type="line" smooth="yes"/>
      <point x="489.0" y="1253.3333333333335"/>
      <point x="443.66666666666663" y="1315.0"/>
      <point x="365" y="1315" type="curve" smooth="yes"/>
      <point x="286.33333333333337" y="1315.0"/>
      <point x="243.0" y="1253.3333333333335"/>
      <point x="243" y="1176" type="curve" smooth="yes"/>
    </contour>
    <contour>
      <point x="745" y="357" type="line" smooth="yes"/>
      <point x="745.0" y="527.6666666666666"/>
      <point x="863.3333333333333" y="657.0"/>
      <point x="1062" y="657" type="curve" smooth="yes"/>
      <point x="1262.0" y="657.0"/>
      <point x="1379.0" y="529.0"/>
      <point x="1379" y="357" type="curve" smooth="yes"/>
      <point x="1379" y="280" type="line" smooth="yes"/>
      <point x="1379.0" y="106.66666666666669"/>
      <point x="1262.6666666666665" y="-20.0"/>
      <point x="1064" y="-20" type="curve" smooth="yes"/>
      <point x="864.0" y="-20.0"/>
      <point x="745.0" y="108.0"/>
      <point x="745" y="280" type="curve" smooth="yes"/>
    </contour>
    <contour>
      <point x="939" y="280" type="line" smooth="yes"/>
      <point x="939.0" y="204.0"/>
      <point x="989.3333333333335" y="142.0"/>
      <point x="1064" y="142" type="curve" smooth="yes"/>
      <point x="1150.6666666666665" y="142.0"/>
      <point x="1185.0" y="196.0"/>
      <point x="1185" y="280" type="curve" smooth="yes"/>
      <point x="1185" y="357" type="line" smooth="yes"/>
      <point x="1185.0" y="433.0"/>
      <point x="1140.6666666666665" y="495.0"/>
      <point x="1062" y="495" type="curve" smooth="yes"/>
      <point x="982.0" y="495.0"/>
      <point x="939.0" y="433.0"/>
      <point x="939" y="357" type="curve" smooth="yes"/>
    </contour>
    <contour>
      <point x="450" y="109" type="line"/>
      <point x="308" y="184" type="line"/>
      <point x="1019" y="1322" type="line"/>
      <point x="1161" y="1247" type="line"/>
    </contour>
  </outline>
</glyph>
<glyph name="ampersand" format="2">
  <advance width="1278"/>
  <unicode hex="0026"/>
  <outline>
    <contour>
      <point x="45" y="392" type="qcurve" smooth="yes"/>
      <point x="45" y="510"/>
      <point x="175" y="681"/>
      <point x="308" y="774" type="qcurve"/>
      <point x="240" y="866"/>
      <point x="173" y="1018"/>
      <point x="173" y="1097" type="qcurve" smooth="yes"/>
      <point x="173" y="1270"/>
      <point x="389" y="1477"/>
      <point x="570" y="1477" type="qcurve" smooth="yes"/>
      <point x="729" y="1477"/>
      <point x="928" y="1280"/>
      <point x="928" y="1140" type="qcurve" smooth="yes"/>
      <point x="928" y="1042"/>
      <point x="830" y="880"/>
      <point x="745" y="819" type="qcurve" smooth="yes"/>
      <point x="652" y="753" type="line"/>
      <point x="928" y="431" type="line"/>
      <point x="964" y="491"/>
      <point x="1004" y="631"/>
      <point x="1004" y="709" type="qcurve"/>
      <point x="1222" y="709" type="line"/>
      <point x="1222" y="571"/>
      <point x="1154" y="339"/>
      <point x="1084" y="249" type="qcurve"/>
      <point x="1292" y="5" type="line"/>
      <point x="1290" y="0" type="line"/>
      <point x="966" y="0" type="line"/>
      <point x="889" y="89" type="line"/>
      <point x="804" y="34"/>
      <point x="624" y="-21"/>
      <point x="521" y="-21" type="qcurve" smooth="yes"/>
      <point x="303" y="-21"/>
      <point x="45" y="208"/>
    </contour>
    <contour>
      <point x="536" y="203" type="qcurve" smooth="yes"/>
      <point x="589" y="203"/>
      <point x="695" y="230"/>
      <point x="744" y="257" type="qcurve"/>
      <point x="444" y="605" type="line"/>
      <point x="425" y="592" type="line"/>
      <point x="374" y="544"/>
      <point x="337" y="453"/>
      <point x="337" y="407" type="qcurve" smooth="yes"/>
      <point x="337" y="318"/>
      <point x="447" y="203"/>
    </contour>
    <contour>
      <point x="434" y="1100" type="qcurve" smooth="yes"/>
      <point x="434" y="1057"/>
      <point x="477" y="966"/>
      <point x="520" y="911" type="qcurve"/>
      <point x="606" y="967" type="line" smooth="yes"/>
      <point x="662" y="1003"/>
      <point x="701" y="1079"/>
      <point x="701" y="1124" type="qcurve" smooth="yes"/>
      <point x="701" y="1174"/>
      <point x="628" y="1252"/>
      <point x="569" y="1252" type="qcurve" smooth="yes"/>
      <point x="504" y="1252"/>
      <point x="434" y="1165"/>
    </contour>
  </outline>
</glyph>
<glyph name="quotesingle" format="1">
  <advance width="449"/>
  <unicode hex="0027"/>
  <outline>
    <contour>
      <point x="338" y="1291" type="line"/>
      <point x="268" y="1008" type="line"/>
      <point x="139" y="1008" type="line"/>
      <point x="139" y="1560" type="line"/>
      <point x="338" y="1560" type="line"/>
    </contour>
  </outline>
</glyph>
<glyph name="parenleft" format="2">
  <advance width="685"/>
  <unicode hex="0028"/>
  <outline>
    <contour>
      <point x="89" y="592" type="line" smooth="yes"/>
      <point x="89" y="984"/>
      <point x="393" y="1531"/>
      <point x="585" y="1612" type="qcurve"/>
      <point x="591" y="1612" type="line"/>
      <point x="644" y="1466" type="line"/>
      <point x="513" y="1368"/>
      <point x="335" y="932"/>
      <point x="335" y="594" type="qcurve" smooth="yes"/>
      <point x="335" y="568" type="line" smooth="yes"/>
      <point x="335" y="229"/>
      <point x="513" y="-206"/>
      <point x="644" y="-307" type="qcurve"/>
      <point x="591" y="-450" type="line"/>
      <point x="585" y="-450" type="line"/>
      <point x="393" y="-369"/>
      <point x="89" y="177"/>
      <point x="89" y="570" type="qcurve" smooth="yes"/>
    </contour>
  </outline>
</glyph>
<glyph name="parenright" format="2">
  <advance width="712"/>
  <unicode hex="0029"/>
  <outline>
    <contour>
      <point x="631" y="570" type="line" smooth="yes"/>
      <point x="631" y="187"/>
      <point x="315" y="-370"/>
      <point x="121" y="-450" type="qcurve"/>
      <point x="115" y="-450" type="line"/>
      <point x="61" y="-307" type="line"/>
      <point x="190" y="-209"/>
      <point x="370" y="229"/>
      <point x="370" y="568" type="qcurve" smooth="yes"/>
      <point x="370" y="594" type="line" smooth="yes"/>
      <point x="370" y="930"/>
      <point x="188" y="1371"/>
      <point x="61" y="1470" type="qcurve"/>
      <point x="115" y="1612" type="line"/>
      <point x="121" y="1612" type="line"/>
      <point x="315" y="1532"/>
      <point x="631" y="974"/>
      <point x="631" y="592" type="qcurve" smooth="yes"/>
    </contour>
  </outline>
</glyph>
<glyph name="comma" format="2">
  <advance width="503"/>
  <unicode hex="002C"/>
  <outline>
    <contour>
      <point x="400" y="39" type="line"/>
      <point x="400" y="-63"/>
      <point x="285" y="-291"/>
      <point x="202" y="-364" type="qcurve"/>
      <point x="58" y="-286" type="line"/>
      <point x="97" y="-216"/>
      <point x="139" y="-67"/>
      <point x="139" y="25" type="qcurve" smooth="yes"/>
      <point x="139" y="243" type="line"/>
      <point x="401" y="243" type="line"/>
    </contour>
  </outline>
</glyph>
<glyph name="slash" format="1">
  <advance width="748"/>
  <unicode hex="002F"/>
  <outline>
    <contour>
      <point x="193" y="-125" type="line"/>
      <point x="-23" y="-125" type="line"/>
      <point x="511" y="1456" type="line"/>
      <point x="727" y="1456" type="line"/>
    </contour>
  </outline>
</glyph>
<glyph name="zero" format="2">
  <advance width="1170"/>
  <unicode hex="0030"/>
  <outline>
    <contour>
      <point x="1082" y="567" type="line" smooth="yes"/>
      <point x="1082" y="278"/>
      <point x="817" y="-21"/>
      <point x="591" y="-21" type="qcurve" smooth="yes"/>
      <point x="363" y="-21"/>
      <point x="97" y="278"/>
      <point x="97" y="567" type="qcurve" smooth="yes"/>
      <point x="97" y="888" type="line" smooth="yes"/>
      <point x="97" y="1176"/>
      <point x="362" y="1477"/>
      <point x="589" y="1477" type="qcurve" smooth="yes"/>
      <point x="815" y="1477"/>
      <point x="1082" y="1176"/>
      <point x="1082" y="888" type="qcurve" smooth="yes"/>
    </contour>
    <contour>
      <point x="791" y="918" type="line" smooth="yes"/>
      <point x="791" y="1091"/>
      <point x="687" y="1252"/>
      <point x="589" y="1252" type="qcurve" smooth="yes"/>
      <point x="490" y="1252"/>
      <point x="388" y="1092"/>
      <point x="388" y="918" type="qcurve" smooth="yes"/>
      <point x="388" y="539" type="line" smooth="yes"/>
      <point x="388" y="363"/>
      <point x="491" y="203"/>
      <point x="591" y="203" type="qcurve" smooth="yes"/>
      <point x="689" y="203"/>
      <point x="791" y="363"/>
      <point x="791" y="539" type="qcurve" smooth="yes"/>
    </contour>
  </outline>
</glyph>
<glyph name="one" format="1">
  <advance width="905"/>
  <unicode hex="0031"/>
  <outline>
    <contour>
      <point x="65" y="175" type="line"/>
      <point x="311" y="205" type="line"/>
      <point x="311" y="1191" type="line"/>
      <point x="62" y="1191" type="line"/>
      <point x="62" y="1358" type="line"/>
      <point x="602" y="1456" type="line"/>
      <point x="602" y="205" type="line"/>
      <point x="848" y="175" type="line"/>
      <point x="848" y="0" type="line"/>
      <point x="65" y="0" type="line"/>
    </contour>
  </outline>
</glyph>
<glyph name="two" format="2">
  <advance width="1132"/>
  <unicode hex="0032"/>
  <outline>
    <contour>
      <point x="73" y="0" type="line"/>
      <point x="73" y="191" type="line"/>
      <point x="544" y="696" type="line" smooth="yes"/>
      <point x="646" y="813"/>
      <point x="732" y="974"/>
      <point x="732" y="1043" type="qcurve" smooth="yes"/>
      <point x="732" y="1135"/>
      <point x="633" y="1252"/>
      <point x="542" y="1252" type="qcurve" smooth="yes"/>
      <point x="441" y="1252"/>
      <point x="336" y="1115"/>
      <point x="336" y="1001" type="qcurve"/>
      <point x="52" y="1001" type="line"/>
      <point x="50" y="1007" type="line"/>
      <point x="45" y="1204"/>
      <point x="314" y="1477"/>
      <point x="542" y="1477" type="qcurve" smooth="yes"/>
      <point x="767" y="1477"/>
      <point x="1025" y="1243"/>
      <point x="1025" y="1048" type="qcurve" smooth="yes"/>
      <point x="1025" y="916"/>
      <point x="880" y="692"/>
      <point x="712" y="512" type="qcurve" smooth="yes"/>
      <point x="453" y="229" type="line"/>
      <point x="455" y="224" type="line"/>
      <point x="833" y="224" type="line"/>
      <point x="845" y="368" type="line"/>
      <point x="1067" y="368" type="line"/>
      <point x="1067" y="0" type="line"/>
    </contour>
  </outline>
</glyph>
<glyph name="three" format="2">
  <advance width="1112"/>
  <unicode hex="0033"/>
  <outline>
    <contour>
      <point x="381" y="852" type="line"/>
      <point x="545" y="852" type="line" smooth="yes"/>
      <point x="649" y="852"/>
      <point x="749" y="961"/>
      <point x="749" y="1058" type="qcurve" smooth="yes"/>
      <point x="749" y="1146"/>
      <point x="649" y="1252"/>
      <point x="554" y="1252" type="qcurve" smooth="yes"/>
      <point x="472" y="1252"/>
      <point x="360" y="1156"/>
      <point x="360" y="1078" type="qcurve"/>
      <point x="77" y="1078" type="line"/>
      <point x="75" y="1084" type="line"/>
      <point x="69" y="1255"/>
      <point x="343" y="1477"/>
      <point x="546" y="1477" type="qcurve" smooth="yes"/>
      <point x="772" y="1477"/>
      <point x="1041" y="1261"/>
      <point x="1041" y="1061" type="qcurve" smooth="yes"/>
      <point x="1041" y="966"/>
      <point x="921" y="795"/>
      <point x="816" y="747" type="qcurve"/>
      <point x="937" y="704"/>
      <point x="1064" y="526"/>
      <point x="1064" y="408" type="qcurve" smooth="yes"/>
      <point x="1064" y="208"/>
      <point x="773" y="-21"/>
      <point x="546" y="-21" type="qcurve" smooth="yes"/>
      <point x="343" y="-21"/>
      <point x="52" y="194"/>
      <point x="57" y="390" type="qcurve"/>
      <point x="59" y="396" type="line"/>
      <point x="342" y="396" type="line"/>
      <point x="342" y="312"/>
      <point x="462" y="203"/>
      <point x="554" y="203" type="qcurve" smooth="yes"/>
      <point x="655" y="203"/>
      <point x="772" y="315"/>
      <point x="772" y="411" type="qcurve" smooth="yes"/>
      <point x="772" y="526"/>
      <point x="657" y="633"/>
      <point x="545" y="633" type="qcurve" smooth="yes"/>
      <point x="381" y="633" type="line"/>
    </contour>
  </outline>
</glyph>
<glyph name="five" format="2">
  <advance width="1092"/>
  <unicode hex="0035"/>
  <outline>
    <contour>
      <point x="834" y="1124" type="line"/>
      <point x="808" y="1222" type="line"/>
      <point x="416" y="1222" type="line"/>
      <point x="375" y="886" type="line"/>
      <point x="416" y="916"/>
      <point x="530" y="955"/>
      <point x="599" y="956" type="qcurve" smooth="yes"/>
      <point x="809" y="959"/>
      <point x="1039" y="699"/>
      <point x="1039" y="467" type="qcurve" smooth="yes"/>
      <point x="1039" y="257"/>
      <point x="786" y="-21"/>
      <point x="548" y="-21" type="qcurve" smooth="yes"/>
      <point x="348" y="-21"/>
      <point x="62" y="198"/>
      <point x="67" y="390" type="qcurve"/>
      <point x="69" y="395" type="line"/>
      <point x="349" y="409" type="line"/>
      <point x="349" y="312"/>
      <point x="459" y="203"/>
      <point x="548" y="203" type="qcurve" smooth="yes"/>
      <point x="650" y="203"/>
      <point x="748" y="349"/>
      <point x="748" y="465" type="qcurve" smooth="yes"/>
      <point x="748" y="591"/>
      <point x="644" y="743"/>
      <point x="541" y="743" type="qcurve" smooth="yes"/>
      <point x="458" y="743"/>
      <point x="369" y="681"/>
      <point x="350" y="628" type="qcurve"/>
      <point x="92" y="645" type="line"/>
      <point x="176" y="1456" type="line"/>
      <point x="1014" y="1456" type="line"/>
      <point x="1014" y="1124" type="line"/>
    </contour>
  </outline>
</glyph>
<glyph name="six" format="2">
  <advance width="1144"/>
  <unicode hex="0036"/>
  <outline>
    <contour>
      <point x="675" y="1477" type="qcurve" smooth="yes"/>
      <point x="757" y="1477"/>
      <point x="896" y="1446"/>
      <point x="966" y="1416" type="qcurve"/>
      <point x="915" y="1203" type="line"/>
      <point x="852" y="1225"/>
      <point x="746" y="1248"/>
      <point x="677" y="1248" type="qcurve" smooth="yes"/>
      <point x="547" y="1248"/>
      <point x="390" y="1058"/>
      <point x="389" y="873" type="qcurve"/>
      <point x="392" y="868" type="line"/>
      <point x="441" y="919"/>
      <point x="592" y="977"/>
      <point x="685" y="977" type="qcurve" smooth="yes"/>
      <point x="880" y="977"/>
      <point x="1102" y="700"/>
      <point x="1102" y="485" type="qcurve" smooth="yes"/>
      <point x="1102" y="265"/>
      <point x="828" y="-21"/>
      <point x="611" y="-21" type="qcurve" smooth="yes"/>
      <point x="381" y="-21"/>
      <point x="91" y="292"/>
      <point x="91" y="569" type="qcurve" smooth="yes"/>
      <point x="91" y="825" type="line" smooth="yes"/>
      <point x="91" y="1134"/>
      <point x="418" y="1477"/>
    </contour>
    <contour>
      <point x="608" y="756" type="qcurve" smooth="yes"/>
      <point x="527" y="756"/>
      <point x="413" y="704"/>
      <point x="382" y="659" type="qcurve"/>
      <point x="382" y="562" type="line" smooth="yes"/>
      <point x="382" y="389"/>
      <point x="507" y="203"/>
      <point x="611" y="203" type="qcurve" smooth="yes"/>
      <point x="701" y="203"/>
      <point x="810" y="368"/>
      <point x="810" y="485" type="qcurve" smooth="yes"/>
      <point x="810" y="606"/>
      <point x="700" y="756"/>
    </contour>
  </outline>
</glyph>
<glyph name="seven" format="2">
  <advance width="1107"/>
  <unicode hex="0037"/>
  <outline>
    <contour>
      <point x="1078" y="1231" type="line"/>
      <point x="844" y="957"/>
      <point x="673" y="483"/>
      <point x="636" y="148" type="qcurve" smooth="yes"/>
      <point x="622" y="0" type="line"/>
      <point x="330" y="0" type="line"/>
      <point x="344" y="148" type="line" smooth="yes"/>
      <point x="378" y="469"/>
      <point x="602" y="1006"/>
      <point x="797" y="1231" type="qcurve"/>
      <point x="284" y="1231" type="line"/>
      <point x="273" y="1087" type="line"/>
      <point x="49" y="1087" type="line"/>
      <point x="49" y="1456" type="line"/>
      <point x="1078" y="1456" type="line"/>
    </contour>
  </outline>
</glyph>
<glyph name="eight" format="2">
  <advance width="1115"/>
  <unicode hex="0038"/>
  <outline>
    <contour>
      <point x="1026" y="1070" type="qcurve" smooth="yes"/>
      <point x="1026" y="961"/>
      <point x="910" y="793"/>
      <point x="809" y="746" type="qcurve"/>
      <point x="925" y="697"/>
      <point x="1059" y="515"/>
      <point x="1059" y="398" type="qcurve" smooth="yes"/>
      <point x="1059" y="196"/>
      <point x="785" y="-21"/>
      <point x="564" y="-21" type="qcurve" smooth="yes"/>
      <point x="342" y="-21"/>
      <point x="67" y="196"/>
      <point x="67" y="398" type="qcurve" smooth="yes"/>
      <point x="67" y="516"/>
      <point x="200" y="697"/>
      <point x="316" y="746" type="qcurve"/>
      <point x="214" y="793"/>
      <point x="100" y="961"/>
      <point x="100" y="1070" type="qcurve" smooth="yes"/>
      <point x="100" y="1264"/>
      <point x="354" y="1477"/>
      <point x="562" y="1477" type="qcurve" smooth="yes"/>
      <point x="770" y="1477"/>
      <point x="1026" y="1264"/>
    </contour>
    <contour>
      <point x="768" y="418" type="qcurve" smooth="yes"/>
      <point x="768" y="516"/>
      <point x="653" y="634"/>
      <point x="562" y="634" type="qcurve" smooth="yes"/>
      <point x="471" y="634"/>
      <point x="359" y="516"/>
      <point x="359" y="418" type="qcurve" smooth="yes"/>
      <point x="359" y="318"/>
      <point x="471" y="203"/>
      <point x="564" y="203" type="qcurve" smooth="yes"/>
      <point x="655" y="203"/>
      <point x="768" y="319"/>
    </contour>
    <contour>
      <point x="734" y="1057" type="qcurve" smooth="yes"/>
      <point x="734" y="1145"/>
      <point x="641" y="1252"/>
      <point x="562" y="1252" type="qcurve" smooth="yes"/>
      <point x="482" y="1252"/>
      <point x="393" y="1147"/>
      <point x="393" y="1057" type="qcurve" smooth="yes"/>
      <point x="393" y="966"/>
      <point x="483" y="859"/>
      <point x="564" y="859" type="qcurve" smooth="yes"/>
      <point x="643" y="859"/>
      <point x="734" y="966"/>
    </contour>
  </outline>
</glyph>
<glyph name="nine" format="2">
  <advance width="1141"/>
  <unicode hex="0039"/>
  <outline>
    <contour>
      <point x="501" y="203" type="qcurve" smooth="yes"/>
      <point x="618" y="203"/>
      <point x="762" y="382"/>
      <point x="762" y="561" type="qcurve" smooth="yes"/>
      <point x="762" y="583" type="line"/>
      <point x="713" y="520"/>
      <point x="577" y="455"/>
      <point x="499" y="455" type="qcurve" smooth="yes"/>
      <point x="295" y="455"/>
      <point x="63" y="722"/>
      <point x="63" y="957" type="qcurve" smooth="yes"/>
      <point x="63" y="1178"/>
      <point x="340" y="1477"/>
      <point x="552" y="1477" type="qcurve" smooth="yes"/>
      <point x="775" y="1477"/>
      <point x="1053" y="1170"/>
      <point x="1053" y="892" type="qcurve" smooth="yes"/>
      <point x="1053" y="576" type="line" smooth="yes"/>
      <point x="1053" y="293"/>
      <point x="744" y="-21"/>
      <point x="501" y="-21" type="qcurve" smooth="yes"/>
      <point x="425" y="-21"/>
      <point x="264" y="10"/>
      <point x="196" y="40" type="qcurve"/>
      <point x="229" y="251" type="line"/>
      <point x="296" y="226"/>
      <point x="422" y="203"/>
    </contour>
    <contour>
      <point x="548" y="669" type="qcurve" smooth="yes"/>
      <point x="621" y="669"/>
      <point x="730" y="724"/>
      <point x="762" y="770" type="qcurve"/>
      <point x="762" y="926" type="line" smooth="yes"/>
      <point x="762" y="1086"/>
      <point x="650" y="1252"/>
      <point x="554" y="1252" type="qcurve" smooth="yes"/>
      <point x="466" y="1252"/>
      <point x="355" y="1079"/>
      <point x="355" y="957" type="qcurve" smooth="yes"/>
      <point x="355" y="825"/>
      <point x="454" y="669"/>
    </contour>
  </outline>
</glyph>
<glyph name="less" format="1">
  <advance width="1012"/>
  <unicode hex="003C"/>
  <outline>
    <contour>
      <point x="343" y="550" type="line"/>
      <point x="343" y="544" type="line"/>
      <point x="919" y="341" type="line"/>
      <point x="919" y="69" type="line"/>
      <point x="58" y="436" type="line"/>
      <point x="58" y="663" type="line"/>
      <point x="919" y="1029" type="line"/>
      <point x="919" y="757" type="line"/>
    </contour>
  </outline>
</glyph>
<glyph name="greater" format="1">
  <advance width="1031"/>
  <unicode hex="003E"/>
  <outline>
    <contour>
      <point x="689" y="539" type="line"/>
      <point x="689" y="545" type="line"/>
      <point x="104" y="751" type="line"/>
      <point x="104" y="1020" type="line"/>
      <point x="975" y="654" type="line"/>
      <point x="975" y="427" type="line"/>
      <point x="104" y="60" type="line"/>
      <point x="104" y="330" type="line"/>
    </contour>
  </outline>
</glyph>
<glyph name="question" format="2">
  <advance width="985"/>
  <unicode hex="003F"/>
  <outline>
    <contour>
      <point x="326" y="414" type="line"/>
      <point x="327" y="554"/>
      <point x="408" y="684"/>
      <point x="529" y="777" type="qcurve" smooth="yes"/>
      <point x="600" y="835"/>
      <point x="685" y="969"/>
      <point x="685" y="1052" type="qcurve" smooth="yes"/>
      <point x="685" y="1144"/>
      <point x="588" y="1248"/>
      <point x="498" y="1248" type="qcurve" smooth="yes"/>
      <point x="424" y="1248"/>
      <point x="321" y="1160"/>
      <point x="320" y="1075" type="qcurve"/>
      <point x="36" y="1075" type="line"/>
      <point x="34" y="1081" type="line"/>
      <point x="31" y="1273"/>
      <point x="290" y="1477"/>
      <point x="498" y="1477" type="qcurve" smooth="yes"/>
      <point x="722" y="1477"/>
      <point x="977" y="1250"/>
      <point x="977" y="1055" type="qcurve" smooth="yes"/>
      <point x="977" y="928"/>
      <point x="828" y="712"/>
      <point x="716" y="639" type="qcurve"/>
      <point x="655" y="592"/>
      <point x="617" y="497"/>
      <point x="617" y="414" type="qcurve"/>
    </contour>
    <contour>
      <point x="619" y="0" type="line"/>
      <point x="325" y="0" type="line"/>
      <point x="325" y="250" type="line"/>
      <point x="619" y="250" type="line"/>
    </contour>
  </outline>
</glyph>
<glyph name="at" format="2">
  <advance width="1806"/>
  <unicode hex="0040"/>
  <outline>
    <contour>
      <point x="1731" y="513" type="qcurve" smooth="yes"/>
      <point x="1722" y="295"/>
      <point x="1484" y="-21"/>
      <point x="1247" y="-21" type="qcurve" smooth="yes"/>
      <point x="1169" y="-21"/>
      <point x="1055" y="67"/>
      <point x="1031" y="146" type="qcurve"/>
      <point x="987" y="64"/>
      <point x="856" y="-18"/>
      <point x="768" y="-18" type="qcurve" smooth="yes"/>
      <point x="627" y="-18"/>
      <point x="476" y="220"/>
      <point x="495" y="416" type="qcurve" smooth="yes"/>
      <point x="520" y="670"/>
      <point x="758" y="976"/>
      <point x="927" y="976" type="qcurve" smooth="yes"/>
      <point x="1043" y="976"/>
      <point x="1183" y="924"/>
      <point x="1268" y="870" type="qcurve"/>
      <point x="1265" y="866" type="line"/>
      <point x="1270" y="866" type="line"/>
      <point x="1219" y="293" type="line" smooth="yes"/>
      <point x="1212" y="199"/>
      <point x="1254" y="128"/>
      <point x="1290" y="128" type="qcurve" smooth="yes"/>
      <point x="1405" y="128"/>
      <point x="1544" y="346"/>
      <point x="1552" y="513" type="qcurve" smooth="yes"/>
      <point x="1568" y="867"/>
      <point x="1263" y="1262"/>
      <point x="944" y="1262" type="qcurve" smooth="yes"/>
      <point x="640" y="1262"/>
      <point x="279" y="836"/>
      <point x="264" y="478" type="qcurve" smooth="yes"/>
      <point x="246" y="123"/>
      <point x="573" y="-287"/>
      <point x="879" y="-287" type="qcurve" smooth="yes"/>
      <point x="964" y="-287"/>
      <point x="1145" y="-247"/>
      <point x="1210" y="-217" type="qcurve"/>
      <point x="1248" y="-364" type="line"/>
      <point x="1181" y="-406"/>
      <point x="974" y="-453"/>
      <point x="875" y="-453" type="qcurve" smooth="yes"/>
      <point x="479" y="-453"/>
      <point x="50" y="45"/>
      <point x="67" y="478" type="qcurve" smooth="yes"/>
      <point x="85" y="905"/>
      <point x="559" y="1418"/>
      <point x="948" y="1418" type="qcurve" smooth="yes"/>
      <point x="1335" y="1418"/>
      <point x="1747" y="933"/>
    </contour>
    <contour>
      <point x="721" y="416" type="qcurve" smooth="yes"/>
      <point x="711" y="289"/>
      <point x="768" y="158"/>
      <point x="832" y="158" type="qcurve" smooth="yes"/>
      <point x="888" y="158"/>
      <point x="979" y="211"/>
      <point x="1015" y="281" type="qcurve"/>
      <point x="1015" y="283"/>
      <point x="1016" y="291"/>
      <point x="1016" y="293" type="qcurve"/>
      <point x="1060" y="789" type="line"/>
      <point x="1037" y="796"/>
      <point x="990" y="804"/>
      <point x="966" y="804" type="qcurve" smooth="yes"/>
      <point x="855" y="804"/>
      <point x="739" y="611"/>
    </contour>
  </outline>
</glyph>
<glyph name="A" format="1">
  <advance width="1471"/>
  <unicode hex="0041"/>
  <outline>
    <contour>
      <point x="41" y="175" type="line"/>
      <point x="145" y="190" type="line"/>
      <point x="588" y="1456" type="line"/>
      <point x="887" y="1456" type="line"/>
      <point x="1327" y="190" type="line"/>
      <point x="1431" y="175" type="line"/>
      <point x="1431" y="0" type="line"/>
      <point x="935" y="0" type="line"/>
      <point x="935" y="175" type="line"/>
      <point x="1036" y="193" type="line"/>
      <point x="972" y="393" type="line"/>
      <point x="500" y="393" type="line"/>
      <point x="436" y="193" type="line"/>
      <point x="537" y="175" type="line"/>
      <point x="537" y="0" type="line"/>
      <point x="41" y="0" type="line"/>
    </contour>
    <contour>
      <point x="569" y="608" type="line"/>
      <point x="903" y="608" type="line"/>
      <point x="739" y="1121" type="line"/>
      <point x="733" y="1121" type="line"/>
    </contour>
  </outline>
</glyph>
<glyph name="B" format="2">
  <advance width="1354"/>
  <unicode hex="0042"/>
  <outline>
    <contour>
      <point x="703" y="1456" type="line" smooth="yes"/>
      <point x="960" y="1456"/>
      <point x="1248" y="1256"/>
      <point x="1248" y="1057" type="qcurve" smooth="yes"/>
      <point x="1248" y="956"/>
      <point x="1141" y="797"/>
      <point x="1039" y="757" type="qcurve"/>
      <point x="1170" y="729"/>
      <point x="1301" y="545"/>
      <point x="1301" y="424" type="qcurve" smooth="yes"/>
      <point x="1301" y="215"/>
      <point x="1025" y="0"/>
      <point x="772" y="0" type="qcurve" smooth="yes"/>
      <point x="56" y="0" type="line"/>
      <point x="56" y="175" type="line"/>
      <point x="211" y="205" type="line"/>
      <point x="211" y="1250" type="line"/>
      <point x="56" y="1280" type="line"/>
      <point x="56" y="1456" type="line"/>
      <point x="211" y="1456" type="line"/>
    </contour>
    <contour>
      <point x="503" y="644" type="line"/>
      <point x="503" y="224" type="line"/>
      <point x="772" y="224" type="line" smooth="yes"/>
      <point x="888" y="224"/>
      <point x="1010" y="325"/>
      <point x="1010" y="424" type="qcurve" smooth="yes"/>
      <point x="1010" y="531"/>
      <point x="906" y="644"/>
      <point x="794" y="644" type="qcurve" smooth="yes"/>
    </contour>
    <contour>
      <point x="503" y="846" type="line"/>
      <point x="713" y="846" type="line" smooth="yes"/>
      <point x="830" y="846"/>
      <point x="956" y="942"/>
      <point x="956" y="1034" type="qcurve" smooth="yes"/>
      <point x="956" y="1135"/>
      <point x="829" y="1231"/>
      <point x="703" y="1231" type="qcurve" smooth="yes"/>
      <point x="503" y="1231" type="line"/>
    </contour>
  </outline>
</glyph>
<glyph name="C" format="1">
  <advance width="1327"/>
  <unicode hex="0043"/>
  <outline>
    <contour>
      <point x="1249" y="965" type="line"/>
      <point x="1032" y="965" type="line"/>
      <point x="1002" y="1159" type="line"/>
      <point x="944.6666666666667" y="1216.3333333333335"/>
      <point x="857.6666666666667" y="1252.0"/>
      <point x="739" y="1252" type="curve" smooth="yes"/>
      <point x="485.6666666666668" y="1252.0"/>
      <point x="344.0" y="1050.0"/>
      <point x="344" y="754" type="curve" smooth="yes"/>
      <point x="344" y="703" type="line" smooth="yes"/>
      <point x="344.0" y="406.99999999999994"/>
      <point x="486.0" y="203.0"/>
      <point x="734" y="203" type="curve" smooth="yes"/>
      <point x="848.6666666666667" y="203.0"/>
      <point x="950.0" y="238.66666666666663"/>
      <point x="1002" y="296" type="curve"/>
      <point x="1032" y="490" type="line"/>
      <point x="1249" y="490" type="line"/>
      <point x="1249" y="202" type="line"/>
      <point x="1131.6666666666665" y="66.0"/>
      <point x="944.3333333333333" y="-21.0"/>
      <point x="719" y="-21" type="curve" smooth="yes"/>
      <point x="328.3333333333335" y="-21.0"/>
      <point x="52.0" y="279.0"/>
      <point x="52" y="703" type="curve" smooth="yes"/>
      <point x="52" y="752" type="line" smooth="yes"/>
      <point x="52.0" y="1174.6666666666665"/>
      <point x="325.66666666666674" y="1477.0"/>
      <point x="719" y="1477" type="curve" smooth="yes"/>
      <point x="944.3333333333334" y="1477.0"/>
      <point x="1130.3333333333335" y="1387.6666666666665"/>
      <point x="1249" y="1253" type="curve"/>
    </contour>
  </outline>
</glyph>
<glyph name="D" format="2">
  <advance width="1411"/>
  <unicode hex="0044"/>
  <outline>
    <contour>
      <point x="711" y="1456" type="line" smooth="yes"/>
      <point x="978" y="1456"/>
      <point x="1324" y="1115"/>
      <point x="1324" y="848" type="qcurve" smooth="yes"/>
      <point x="1324" y="607" type="line" smooth="yes"/>
      <point x="1324" y="339"/>
      <point x="978" y="0"/>
      <point x="711" y="0" type="qcurve" smooth="yes"/>
      <point x="56" y="0" type="line"/>
      <point x="56" y="175" type="line"/>
      <point x="211" y="205" type="line"/>
      <point x="211" y="1250" type="line"/>
      <point x="56" y="1280" type="line"/>
      <point x="56" y="1456" type="line"/>
      <point x="211" y="1456" type="line"/>
    </contour>
    <contour>
      <point x="503" y="1231" type="line"/>
      <point x="503" y="224" type="line"/>
      <point x="696" y="224" type="line" smooth="yes"/>
      <point x="853" y="224"/>
      <point x="1031" y="436"/>
      <point x="1031" y="607" type="qcurve" smooth="yes"/>
      <point x="1031" y="850" type="line" smooth="yes"/>
      <point x="1031" y="1019"/>
      <point x="853" y="1231"/>
      <point x="696" y="1231" type="qcurve" smooth="yes"/>
    </contour>
  </outline>
</glyph>
<glyph name="E" format="2">
  <advance width="1308"/>
  <unicode hex="0045"/>
  <outline>
    <contour>
      <point x="996" y="640" type="line"/>
      <point x="503" y="640" type="line"/>
      <point x="503" y="224" type="line"/>
      <point x="973" y="224" type="line"/>
      <point x="986" y="398" type="line"/>
      <point x="1208" y="398" type="line"/>
      <point x="1208" y="0" type="line"/>
      <point x="56" y="0" type="line"/>
      <point x="56" y="175" type="line"/>
      <point x="211" y="205" type="line"/>
      <point x="211" y="1250" type="line"/>
      <point x="56" y="1280" type="line"/>
      <point x="56" y="1456" type="line"/>
      <point x="211" y="1456" type="line"/>
      <point x="1206" y="1456" type="line"/>
      <point x="1206" y="1057" type="line"/>
      <point x="982" y="1057" type="line"/>
      <point x="969" y="1231" type="line"/>
      <point x="503" y="1231" type="line"/>
      <point x="503" y="865" type="line"/>
      <point x="996" y="865" type="line"/>
    </contour>
  </outline>
</glyph>
<glyph name="G" format="2">
  <advance width="1353"/>
  <unicode hex="0047"/>
  <outline>
    <contour>
      <point x="1263" y="162" type="line"/>
      <point x="1192" y="92"/>
      <point x="920" y="-21"/>
      <point x="712" y="-21" type="qcurve" smooth="yes"/>
      <point x="417" y="-21"/>
      <point x="47" y="374"/>
      <point x="47" y="690" type="qcurve" smooth="yes"/>
      <point x="47" y="740" type="line" smooth="yes"/>
      <point x="47" y="1067"/>
      <point x="412" y="1477"/>
      <point x="706" y="1477" type="qcurve" smooth="yes"/>
      <point x="877" y="1477"/>
      <point x="1160" y="1368"/>
      <point x="1254" y="1275" type="qcurve"/>
      <point x="1254" y="982" type="line"/>
      <point x="1038" y="982" type="line"/>
      <point x="997" y="1177" type="line"/>
      <point x="957" y="1211"/>
      <point x="826" y="1252"/>
      <point x="741" y="1252" type="qcurve" smooth="yes"/>
      <point x="550" y="1252"/>
      <point x="338" y="970"/>
      <point x="338" y="742" type="qcurve" smooth="yes"/>
      <point x="338" y="690" type="line" smooth="yes"/>
      <point x="338" y="468"/>
      <point x="546" y="203"/>
      <point x="742" y="203" type="qcurve" smooth="yes"/>
      <point x="830" y="203"/>
      <point x="939" y="233"/>
      <point x="970" y="253" type="qcurve"/>
      <point x="970" y="500" type="line"/>
      <point x="762" y="516" type="line"/>
      <point x="762" y="721" type="line"/>
      <point x="1263" y="721" type="line"/>
    </contour>
  </outline>
</glyph>
<glyph name="H" format="1">
  <advance width="1601"/>
  <unicode hex="0048"/>
  <outline>
    <contour>
      <point x="56" y="1280" type="line"/>
      <point x="56" y="1456" type="line"/>
      <point x="659" y="1456" type="line"/>
      <point x="659" y="1280" type="line"/>
      <point x="503" y="1250" type="line"/>
      <point x="503" y="830" type="line"/>
      <point x="1097" y="830" type="line"/>
      <point x="1097" y="1250" type="line"/>
      <point x="941" y="1280" type="line"/>
      <point x="941" y="1456" type="line"/>
      <point x="1097" y="1456" type="line"/>
      <point x="1388" y="1456" type="line"/>
      <point x="1544" y="1456" type="line"/>
      <point x="1544" y="1280" type="line"/>
      <point x="1388" y="1250" type="line"/>
      <point x="1388" y="205" type="line"/>
      <point x="1544" y="175" type="line"/>
      <point x="1544" y="0" type="line"/>
      <point x="941" y="0" type="line"/>
      <point x="941" y="175" type="line"/>
      <point x="1097" y="205" type="line"/>
      <point x="1097" y="605" type="line"/>
      <point x="503" y="605" type="line"/>
      <point x="503" y="205" type="line"/>
      <point x="659" y="175" type="line"/>
      <point x="659" y="0" type="line"/>
      <point x="56" y="0" type="line"/>
      <point x="56" y="175" type="line"/>
      <point x="211" y="205" type="line"/>
      <point x="211" y="1250" type="line"/>
    </contour>
  </outline>
</glyph>
<glyph name="I" format="1">
  <advance width="713"/>
  <unicode hex="0049"/>
  <outline>
    <contour>
      <point x="55" y="1280" type="line"/>
      <point x="55" y="1456" type="line"/>
      <point x="658" y="1456" type="line"/>
      <point x="658" y="1280" type="line"/>
      <point x="502" y="1250" type="line"/>
      <point x="502" y="205" type="line"/>
      <point x="658" y="175" type="line"/>
      <point x="658" y="0" type="line"/>
      <point x="55" y="0" type="line"/>
      <point x="55" y="175" type="line"/>
      <point x="211" y="205" type="line"/>
      <point x="211" y="1250" type="line"/>
    </contour>
  </outline>
</glyph>
<glyph name="J" format="1">
  <advance width="1192"/>
  <unicode hex="004A"/>
  <outline>
    <contour>
      <point x="1165" y="1456" type="line"/>
      <point x="1165" y="1280" type="line"/>
      <point x="1009" y="1250" type="line"/>
      <point x="1009" y="437" type="line" smooth="yes"/>
      <point x="1009.0" y="155.66666666666669"/>
      <point x="804.0" y="-21.0"/>
      <point x="524" y="-21" type="curve" smooth="yes"/>
      <point x="220.0" y="-21.0"/>
      <point x="28.333333333333336" y="129.0"/>
      <point x="35" y="417" type="curve"/>
      <point x="37" y="423" type="line"/>
      <point x="321" y="423" type="line"/>
      <point x="321.0" y="269.66666666666674"/>
      <point x="400.0" y="203.0"/>
      <point x="524" y="203" type="curve" smooth="yes"/>
      <point x="632.0" y="203.0"/>
      <point x="718.0" y="291.66666666666674"/>
      <point x="718" y="437" type="curve" smooth="yes"/>
      <point x="718" y="1250" type="line"/>
      <point x="562" y="1280" type="line"/>
      <point x="562" y="1456" type="line"/>
      <point x="1009" y="1456" type="line"/>
    </contour>
  </outline>
</glyph>
<glyph name="K" format="1">
  <advance width="1464"/>
  <unicode hex="004B"/>
  <outline>
    <contour>
      <point x="56.0" y="175.0" type="line"/>
      <point x="211.0" y="205.0" type="line"/>
      <point x="211.0" y="1250.0" type="line"/>
      <point x="56.0" y="1280.0" type="line"/>
      <point x="56.0" y="1456.0" type="line"/>
      <point x="651.0" y="1456.0" type="line"/>
      <point x="651.0" y="1280.0" type="line"/>
      <point x="503.0" y="1250.0" type="line"/>
      <point x="503.0" y="861.0" type="line"/>
      <point x="630.0" y="861.0" type="line"/>
      <point x="908" y="1265" type="line"/>
      <point x="910.0" y="1268.0" type="line"/>
      <point x="824.0" y="1280.0" type="line"/>
      <point x="824.0" y="1456.0" type="line"/>
      <point x="1401.0" y="1456.0" type="line"/>
      <point x="1401.0" y="1280.0" type="line"/>
      <point x="1243.0" y="1253.0" type="line"/>
      <point x="885.0" y="775.0" type="line"/>
      <point x="1287.0" y="200.0" type="line"/>
      <point x="1433.0" y="175.0" type="line"/>
      <point x="1433.0" y="0.0" type="line"/>
      <point x="856.0" y="0.0" type="line"/>
      <point x="856.0" y="175.0" type="line"/>
      <point x="945.0" y="187.0" type="line"/>
      <point x="946.0" y="187.0" type="line"/>
      <point x="666.0" y="608.0" type="line"/>
      <point x="503.0" y="608.0" type="line"/>
      <point x="503.0" y="205.0" type="line"/>
      <point x="651.0" y="175.0" type="line"/>
      <point x="651.0" y="0.0" type="line"/>
      <point x="56.0" y="0.0" type="line"/>
    </contour>
  </outline>
</glyph>
<glyph name="L" format="2">
  <advance width="1200"/>
  <unicode hex="004C"/>
  <outline>
    <contour>
      <point x="56" y="0" type="line"/>
      <point x="56" y="175" type="line"/>
      <point x="211" y="205" type="line"/>
      <point x="211" y="1250" type="line"/>
      <point x="56" y="1280" type="line"/>
      <point x="56" y="1456" type="line"/>
      <point x="211" y="1456" type="line"/>
      <point x="503" y="1456" type="line"/>
      <point x="659" y="1456" type="line"/>
      <point x="659" y="1280" type="line"/>
      <point x="503" y="1250" type="line"/>
      <point x="503" y="224" type="line"/>
      <point x="914" y="224" type="line"/>
      <point x="928" y="407" type="line"/>
      <point x="1151" y="407" type="line"/>
      <point x="1151" y="0" type="line"/>
    </contour>
  </outline>
</glyph>
<glyph name="M" format="2">
  <advance width="1929"/>
  <unicode hex="004D"/>
  <outline>
    <contour>
      <point x="1461" y="1077" type="line"/>
      <point x="1455" y="1078" type="line"/>
      <point x="1065" y="0" type="line"/>
      <point x="869" y="0" type="line"/>
      <point x="481" y="1074" type="line"/>
      <point x="475" y="1073" type="line"/>
      <point x="503" y="434" type="line"/>
      <point x="503" y="205" type="line"/>
      <point x="659" y="175" type="line"/>
      <point x="659" y="0" type="line"/>
      <point x="56" y="0" type="line"/>
      <point x="56" y="175" type="line"/>
      <point x="211" y="205" type="line"/>
      <point x="211" y="1250" type="line"/>
      <point x="56" y="1280" type="line"/>
      <point x="56" y="1456" type="line"/>
      <point x="211" y="1456" type="line"/>
      <point x="592" y="1456" type="line"/>
      <point x="963" y="383" type="line"/>
      <point x="969" y="383" type="line"/>
      <point x="1343" y="1456" type="line"/>
      <point x="1881" y="1456" type="line"/>
      <point x="1881" y="1280" type="line"/>
      <point x="1725" y="1250" type="line"/>
      <point x="1725" y="205" type="line"/>
      <point x="1881" y="175" type="line"/>
      <point x="1881" y="0" type="line"/>
      <point x="1278" y="0" type="line"/>
      <point x="1278" y="175" type="line"/>
      <point x="1433" y="205" type="line"/>
      <point x="1433" y="434" type="line"/>
    </contour>
  </outline>
</glyph>
<glyph name="N" format="1">
  <advance width="1582"/>
  <unicode hex="004E"/>
  <outline>
    <contour>
      <point x="1544" y="1456" type="line"/>
      <point x="1544" y="1280" type="line"/>
      <point x="1388" y="1250" type="line"/>
      <point x="1388" y="0" type="line"/>
      <point x="1097" y="0" type="line"/>
      <point x="509" y="980" type="line"/>
      <point x="503" y="979" type="line"/>
      <point x="503" y="205" type="line"/>
      <point x="659" y="175" type="line"/>
      <point x="659" y="0" type="line"/>
      <point x="56" y="0" type="line"/>
      <point x="56" y="175" type="line"/>
      <point x="211" y="205" type="line"/>
      <point x="211" y="1250" type="line"/>
      <point x="56" y="1280" type="line"/>
      <point x="56" y="1456" type="line"/>
      <point x="211" y="1456" type="line"/>
      <point x="503" y="1456" type="line"/>
      <point x="1091" y="476" type="line"/>
      <point x="1097" y="477" type="line"/>
      <point x="1097" y="1250" type="line"/>
      <point x="941" y="1280" type="line"/>
      <point x="941" y="1456" type="line"/>
      <point x="1388" y="1456" type="line"/>
    </contour>
  </outline>
</glyph>
<glyph name="P" format="2">
  <advance width="1325"/>
  <unicode hex="0050"/>
  <outline>
    <contour>
      <point x="749" y="1456" type="line" smooth="yes"/>
      <point x="999" y="1456"/>
      <point x="1288" y="1199"/>
      <point x="1288" y="991" type="qcurve" smooth="yes"/>
      <point x="1288" y="782"/>
      <point x="999" y="528"/>
      <point x="749" y="528" type="qcurve" smooth="yes"/>
      <point x="503" y="528" type="line"/>
      <point x="503" y="205" type="line"/>
      <point x="659" y="175" type="line"/>
      <point x="659" y="0" type="line"/>
      <point x="56" y="0" type="line"/>
      <point x="56" y="175" type="line"/>
      <point x="211" y="205" type="line"/>
      <point x="211" y="1250" type="line"/>
      <point x="56" y="1280" type="line"/>
      <point x="56" y="1456" type="line"/>
      <point x="211" y="1456" type="line"/>
    </contour>
    <contour>
      <point x="503" y="753" type="line"/>
      <point x="749" y="753" type="line" smooth="yes"/>
      <point x="871" y="753"/>
      <point x="996" y="886"/>
      <point x="996" y="989" type="qcurve" smooth="yes"/>
      <point x="996" y="1094"/>
      <point x="871" y="1231"/>
      <point x="749" y="1231" type="qcurve" smooth="yes"/>
      <point x="503" y="1231" type="line"/>
    </contour>
  </outline>
</glyph>
<glyph name="Q" format="2">
  <advance width="1449"/>
  <unicode hex="0051"/>
  <outline>
    <contour>
      <point x="1387" y="717" type="line" smooth="yes"/>
      <point x="1387" y="527"/>
      <point x="1250" y="213"/>
      <point x="1127" y="114" type="qcurve"/>
      <point x="1437" y="-79" type="line"/>
      <point x="1231" y="-238" type="line"/>
      <point x="882" y="-3" type="line"/>
      <point x="843" y="-11"/>
      <point x="764" y="-21"/>
      <point x="725" y="-21" type="qcurve" smooth="yes"/>
      <point x="430" y="-21"/>
      <point x="67" y="397"/>
      <point x="67" y="717" type="qcurve" smooth="yes"/>
      <point x="67" y="739" type="line" smooth="yes"/>
      <point x="67" y="1057"/>
      <point x="429" y="1477"/>
      <point x="724" y="1477" type="qcurve" smooth="yes"/>
      <point x="1020" y="1477"/>
      <point x="1387" y="1057"/>
      <point x="1387" y="739" type="qcurve" smooth="yes"/>
    </contour>
    <contour>
      <point x="1096" y="741" type="line" smooth="yes"/>
      <point x="1096" y="967"/>
      <point x="908" y="1249"/>
      <point x="724" y="1249" type="qcurve" smooth="yes"/>
      <point x="540" y="1249"/>
      <point x="359" y="969"/>
      <point x="359" y="741" type="qcurve" smooth="yes"/>
      <point x="359" y="717" type="line" smooth="yes"/>
      <point x="359" y="487"/>
      <point x="542" y="206"/>
      <point x="725" y="206" type="qcurve" smooth="yes"/>
      <point x="910" y="206"/>
      <point x="1096" y="487"/>
      <point x="1096" y="717" type="qcurve" smooth="yes"/>
    </contour>
  </outline>
</glyph>
<glyph name="R" format="2">
  <advance width="1408"/>
  <unicode hex="0052"/>
  <outline>
    <contour>
      <point x="710" y="1456" type="line" smooth="yes"/>
      <point x="958" y="1456"/>
      <point x="1240" y="1229"/>
      <point x="1240" y="1029" type="qcurve" smooth="yes"/>
      <point x="1240" y="919"/>
      <point x="1122" y="757"/>
      <point x="1008" y="707" type="qcurve"/>
      <point x="1137" y="669"/>
      <point x="1250" y="492"/>
      <point x="1250" y="361" type="qcurve" smooth="yes"/>
      <point x="1250" y="287" type="line" smooth="yes"/>
      <point x="1250" y="239"/>
      <point x="1288" y="186"/>
      <point x="1332" y="181" type="qcurve" smooth="yes"/>
      <point x="1368" y="176" type="line"/>
      <point x="1368" y="0" type="line"/>
      <point x="1217" y="0" type="line" smooth="yes"/>
      <point x="1074" y="0"/>
      <point x="958" y="154"/>
      <point x="958" y="276" type="qcurve" smooth="yes"/>
      <point x="958" y="359" type="line" smooth="yes"/>
      <point x="958" y="465"/>
      <point x="845" y="586"/>
      <point x="742" y="589" type="qcurve" smooth="yes"/>
      <point x="503" y="589" type="line"/>
      <point x="503" y="205" type="line"/>
      <point x="659" y="175" type="line"/>
      <point x="659" y="0" type="line"/>
      <point x="56" y="0" type="line"/>
      <point x="56" y="175" type="line"/>
      <point x="211" y="205" type="line"/>
      <point x="211" y="1250" type="line"/>
      <point x="56" y="1280" type="line"/>
      <point x="56" y="1456" type="line"/>
      <point x="211" y="1456" type="line"/>
    </contour>
    <contour>
      <point x="503" y="814" type="line"/>
      <point x="705" y="814" type="line" smooth="yes"/>
      <point x="827" y="814"/>
      <point x="949" y="918"/>
      <point x="949" y="1016" type="qcurve" smooth="yes"/>
      <point x="949" y="1114"/>
      <point x="828" y="1231"/>
      <point x="710" y="1231" type="qcurve" smooth="yes"/>
      <point x="503" y="1231" type="line"/>
    </contour>
  </outline>
</glyph>
<glyph name="S" format="1">
  <advance width="1242"/>
  <unicode hex="0053"/>
  <outline>
    <contour>
      <point x="1145" y="991" type="line"/>
      <point x="926" y="991" type="line"/>
      <point x="888" y="1191" type="line"/>
      <point x="837" y="1223"/>
      <point x="748" y="1251"/>
      <point x="639" y="1251" type="curve" smooth="yes"/>
      <point x="499" y="1251"/>
      <point x="400" y="1177"/>
      <point x="400" y="1070" type="curve" smooth="yes"/>
      <point x="400" y="971"/>
      <point x="469.0" y="918.6666666666667"/>
      <point x="693" y="848" type="curve" smooth="yes"/>
      <point x="1014.3333333333333" y="758.6666666666667"/>
      <point x="1183.0" y="620.6666666666666"/>
      <point x="1183" y="382" type="curve" smooth="yes"/>
      <point x="1183.0" y="132.66666666666686"/>
      <point x="968" y="-21"/>
      <point x="645" y="-21" type="curve" smooth="yes"/>
      <point x="431" y="-21"/>
      <point x="262" y="21"/>
      <point x="92" y="140" type="curve"/>
      <point x="92" y="492" type="line"/>
      <point x="318" y="492" type="line"/>
      <point x="349" y="285" type="line"/>
      <point x="408" y="235"/>
      <point x="521" y="200"/>
      <point x="645" y="200" type="curve" smooth="yes"/>
      <point x="804" y="200"/>
      <point x="890" y="271"/>
      <point x="890" y="380" type="curve" smooth="yes"/>
      <point x="890.0" y="492.0"/>
      <point x="820.6666666666667" y="551.0"/>
      <point x="622" y="611" type="curve" smooth="yes"/>
      <point x="276.6666666666667" y="711.0"/>
      <point x="109" y="832"/>
      <point x="109" y="1071" type="curve" smooth="yes"/>
      <point x="109" y="1307"/>
      <point x="321" y="1472"/>
      <point x="624" y="1476" type="curve" smooth="yes"/>
      <point x="848" y="1479"/>
      <point x="1020" y="1419"/>
      <point x="1145" y="1319" type="curve"/>
    </contour>
  </outline>
</glyph>
<glyph name="T" format="1">
  <advance width="1377"/>
  <unicode hex="0054"/>
  <outline>
    <contour>
      <point x="1338" y="1456" type="line"/>
      <point x="1338" y="1068" type="line"/>
      <point x="1114" y="1068" type="line"/>
      <point x="1102" y="1231" type="line"/>
      <point x="834" y="1231" type="line"/>
      <point x="834" y="205" type="line"/>
      <point x="990" y="175" type="line"/>
      <point x="990" y="0" type="line"/>
      <point x="386" y="0" type="line"/>
      <point x="386" y="175" type="line"/>
      <point x="542" y="205" type="line"/>
      <point x="542" y="1231" type="line"/>
      <point x="275" y="1231" type="line"/>
      <point x="263" y="1068" type="line"/>
      <point x="40" y="1068" type="line"/>
      <point x="40" y="1456" type="line"/>
    </contour>
  </outline>
</glyph>
<glyph name="U" format="2">
  <advance width="1547"/>
  <unicode hex="0055"/>
  <outline>
    <contour>
      <point x="642" y="1456" type="line"/>
      <point x="642" y="1280" type="line"/>
      <point x="486" y="1250" type="line"/>
      <point x="486" y="490" type="line" smooth="yes"/>
      <point x="486" y="346"/>
      <point x="641" y="203"/>
      <point x="776" y="203" type="qcurve" smooth="yes"/>
      <point x="913" y="203"/>
      <point x="1069" y="345"/>
      <point x="1069" y="490" type="qcurve" smooth="yes"/>
      <point x="1069" y="1250" type="line"/>
      <point x="914" y="1280" type="line"/>
      <point x="914" y="1456" type="line"/>
      <point x="1517" y="1456" type="line"/>
      <point x="1517" y="1280" type="line"/>
      <point x="1361" y="1250" type="line"/>
      <point x="1361" y="490" type="line" smooth="yes"/>
      <point x="1361" y="245"/>
      <point x="1038" y="-21"/>
      <point x="776" y="-21" type="qcurve" smooth="yes"/>
      <point x="515" y="-21"/>
      <point x="194" y="245"/>
      <point x="194" y="490" type="qcurve" smooth="yes"/>
      <point x="194" y="1250" type="line"/>
      <point x="39" y="1280" type="line"/>
      <point x="39" y="1456" type="line"/>
      <point x="194" y="1456" type="line"/>
      <point x="486" y="1456" type="line"/>
    </contour>
  </outline>
</glyph>
<glyph name="V" format="1">
  <advance width="1494"/>
  <unicode hex="0056"/>
  <outline>
    <contour>
      <point x="592" y="1280" type="line"/>
      <point x="461" y="1260" type="line"/>
      <point x="749" y="401" type="line"/>
      <point x="767" y="321" type="line"/>
      <point x="773" y="321" type="line"/>
      <point x="798" y="399" type="line"/>
      <point x="1082" y="1260" type="line"/>
      <point x="929" y="1280" type="line"/>
      <point x="929" y="1456" type="line"/>
      <point x="1481" y="1456" type="line"/>
      <point x="1481" y="1280" type="line"/>
      <point x="1349" y="1264" type="line"/>
      <point x="910" y="0" type="line"/>
      <point x="611" y="0" type="line"/>
      <point x="143" y="1264" type="line"/>
      <point x="13" y="1280" type="line"/>
      <point x="13" y="1456" type="line"/>
      <point x="592" y="1456" type="line"/>
    </contour>
  </outline>
</glyph>
<glyph name="W" format="1">
  <advance width="1972"/>
  <unicode hex="0057"/>
  <outline>
    <contour>
      <point x="1942.0" y="1280.0" type="line"/>
      <point x="1822.0" y="1265.0" type="line"/>
      <point x="1527.0" y="0.0" type="line"/>
      <point x="1256.0" y="0.0" type="line"/>
      <point x="1020.0" y="851.0" type="line"/>
      <point x="989.0" y="961.0" type="line"/>
      <point x="983.0" y="961.0" type="line"/>
      <point x="951.0" y="847.0" type="line"/>
      <point x="716.0" y="0.0" type="line"/>
      <point x="445.0" y="0.0" type="line"/>
      <point x="148.0" y="1265.0" type="line"/>
      <point x="29.0" y="1280.0" type="line"/>
      <point x="29.0" y="1456.0" type="line"/>
      <point x="565.0" y="1456.0" type="line"/>
      <point x="565.0" y="1280.0" type="line"/>
      <point x="432.0" y="1257.0" type="line"/>
      <point x="572.0" y="589.0" type="line"/>
      <point x="599.0" y="459.0" type="line"/>
      <point x="605.0" y="458.0" type="line"/>
      <point x="646.0" y="609.0" type="line"/>
      <point x="878.0" y="1456.0" type="line"/>
      <point x="1093.0" y="1456.0" type="line"/>
      <point x="1340.0" y="559.0" type="line"/>
      <point x="1368.0" y="458.0" type="line"/>
      <point x="1374.0" y="459.0" type="line"/>
      <point x="1398.0" y="573.0" type="line"/>
      <point x="1540.0" y="1257.0" type="line"/>
      <point x="1407.0" y="1280.0" type="line"/>
      <point x="1407.0" y="1456.0" type="line"/>
      <point x="1942.0" y="1456.0" type="line"/>
    </contour>
  </outline>
</glyph>
<glyph name="Y" format="1">
  <advance width="1445"/>
  <unicode hex="0059"/>
  <outline>
    <contour>
      <point x="587" y="1280" type="line"/>
      <point x="468" y="1263" type="line"/>
      <point x="713" y="806" type="line"/>
      <point x="737" y="755" type="line"/>
      <point x="743" y="755" type="line"/>
      <point x="770" y="792" type="line"/>
      <point x="1029" y="1263" type="line"/>
      <point x="869" y="1280" type="line"/>
      <point x="869" y="1456" type="line"/>
      <point x="1439" y="1456" type="line"/>
      <point x="1439" y="1280" type="line"/>
      <point x="1295" y="1260" type="line"/>
      <point x="869" y="512" type="line"/>
      <point x="869" y="205" type="line"/>
      <point x="1025" y="175" type="line"/>
      <point x="1025" y="0" type="line"/>
      <point x="422" y="0" type="line"/>
      <point x="422" y="175" type="line"/>
      <point x="578" y="205" type="line"/>
      <point x="578" y="499" type="line"/>
      <point x="146" y="1260" type="line"/>
      <point x="6" y="1280" type="line"/>
      <point x="6" y="1456" type="line"/>
      <point x="587" y="1456" type="line"/>
    </contour>
  </outline>
</glyph>
<glyph name="Z" format="2">
  <advance width="1226"/>
  <unicode hex="005A"/>
  <outline>
    <contour>
      <point x="1143" y="1456" type="line"/>
      <point x="1143" y="1310" type="line"/>
      <point x="430" y="224" type="line"/>
      <point x="937" y="224" type="line"/>
      <point x="961" y="400" type="line"/>
      <point x="1183" y="400" type="line"/>
      <point x="1161" y="0" type="line"/>
      <point x="74" y="0" type="line"/>
      <point x="74" y="152" type="line"/>
      <point x="784" y="1231" type="line"/>
      <point x="321" y="1231" type="line"/>
      <point x="298" y="1055" type="line"/>
      <point x="75" y="1055" type="line"/>
      <point x="97" y="1456" type="line"/>
    </contour>
  </outline>
</glyph>
<glyph name="underscore" format="1">
  <advance width="1094"/>
  <unicode hex="005F"/>
  <outline>
    <contour>
      <point x="1002" y="-186" type="line"/>
      <point x="92" y="-186" type="line"/>
      <point x="92" y="0" type="line"/>
      <point x="1002" y="0" type="line"/>
    </contour>
  </outline>
</glyph>
<glyph name="grave" format="1">
  <advance width="622"/>
  <unicode hex="0060"/>
  <outline>
    <contour>
      <point x="572" y="1212" type="line"/>
      <point x="336" y="1212" type="line"/>
      <point x="64" y="1472" type="line"/>
      <point x="66" y="1478" type="line"/>
      <point x="376" y="1478" type="line"/>
    </contour>
  </outline>
</glyph>
<glyph name="a" format="1">
  <advance width="1125"/>
  <unicode hex="0061"/>
  <outline>
    <contour>
      <point x="752" y="0" type="line"/>
      <point x="736.0" y="36.0"/>
      <point x="723.6666666666667" y="74.33333333333334"/>
      <point x="717" y="113" type="curve"/>
      <point x="647.6666666666667" y="33.0"/>
      <point x="548.0" y="-21.0"/>
      <point x="420" y="-21" type="curve" smooth="yes"/>
      <point x="208.0" y="-21.0"/>
      <point x="74.0" y="102.33333333333337"/>
      <point x="74" y="301" type="curve" smooth="yes"/>
      <point x="74.0" y="503.66666666666663"/>
      <point x="239.33333333333337" y="619.0"/>
      <point x="554" y="619" type="curve" smooth="yes"/>
      <point x="703" y="619" type="line"/>
      <point x="703" y="725" type="line" smooth="yes"/>
      <point x="703.0" y="829.0"/>
      <point x="642.3333333333333" y="889.0"/>
      <point x="525" y="889" type="curve" smooth="yes"/>
      <point x="458.33333333333337" y="889.0"/>
      <point x="405.0" y="871.3333333333333"/>
      <point x="373" y="850" type="curve"/>
      <point x="354" y="734" type="line"/>
      <point x="134" y="734" type="line"/>
      <point x="135" y="974" type="line"/>
      <point x="241.66666666666663" y="1046.0"/>
      <point x="381.33333333333337" y="1102.0"/>
      <point x="544" y="1102" type="curve" smooth="yes"/>
      <point x="812.0" y="1102.0"/>
      <point x="996.0" y="965.6666666666667"/>
      <point x="996" y="723" type="curve" smooth="yes"/>
      <point x="996" y="276" type="line" smooth="yes"/>
      <point x="996.0" y="242.66666666666663"/>
      <point x="996.0" y="213.66666666666669"/>
      <point x="1000" y="187" type="curve"/>
      <point x="1089" y="175" type="line"/>
      <point x="1089" y="0" type="line"/>
    </contour>
    <contour>
      <point x="499" y="195" type="curve" smooth="yes"/>
      <point x="587.0" y="195.0"/>
      <point x="663.0" y="237.66666666666663"/>
      <point x="703" y="295" type="curve"/>
      <point x="703" y="460" type="line"/>
      <point x="554" y="460" type="line" smooth="yes"/>
      <point x="430.0" y="460.0"/>
      <point x="365.0" y="393.33333333333337"/>
      <point x="365" y="312" type="curve" smooth="yes"/>
      <point x="365.0" y="238.66666666666663"/>
      <point x="415.0" y="195.0"/>
    </contour>
  </outline>
</glyph>
<glyph name="b" format="2">
  <advance width="1181"/>
  <unicode hex="0062"/>
  <outline>
    <contour>
      <point x="1109" y="511" type="line" smooth="yes"/>
      <point x="1109" y="269"/>
      <point x="893" y="-21"/>
      <point x="689" y="-21" type="qcurve" smooth="yes"/>
      <point x="594" y="-21"/>
      <point x="454" y="58"/>
      <point x="406" y="133" type="qcurve"/>
      <point x="385" y="0" type="line"/>
      <point x="133" y="0" type="line"/>
      <point x="133" y="1354" type="line"/>
      <point x="-22" y="1384" type="line"/>
      <point x="-22" y="1560" type="line"/>
      <point x="424" y="1560" type="line"/>
      <point x="424" y="967" type="line"/>
      <point x="471" y="1032"/>
      <point x="602" y="1102"/>
      <point x="687" y="1102" type="qcurve" smooth="yes"/>
      <point x="893" y="1102"/>
      <point x="1109" y="791"/>
      <point x="1109" y="532" type="qcurve" smooth="yes"/>
    </contour>
    <contour>
      <point x="818" y="532" type="line" smooth="yes"/>
      <point x="818" y="690"/>
      <point x="725" y="875"/>
      <point x="613" y="875" type="qcurve" smooth="yes"/>
      <point x="545" y="875"/>
      <point x="451" y="818"/>
      <point x="424" y="765" type="qcurve"/>
      <point x="424" y="308" type="line"/>
      <point x="451" y="258"/>
      <point x="546" y="206"/>
      <point x="615" y="206" type="qcurve" smooth="yes"/>
      <point x="728" y="206"/>
      <point x="818" y="365"/>
      <point x="818" y="511" type="qcurve" smooth="yes"/>
    </contour>
  </outline>
</glyph>
<glyph name="c" format="1">
  <advance width="1055"/>
  <unicode hex="0063"/>
  <outline>
    <contour>
      <point x="616" y="208" type="curve" smooth="yes"/>
      <point x="715" y="208"/>
      <point x="795" y="232"/>
      <point x="900" y="292" type="curve"/>
      <point x="972" y="99" type="line"/>
      <point x="975" y="93" type="line"/>
      <point x="894" y="34"/>
      <point x="770" y="-21"/>
      <point x="581" y="-21" type="curve" smooth="yes"/>
      <point x="268" y="-21"/>
      <point x="67" y="183"/>
      <point x="67" y="521" type="curve" smooth="yes"/>
      <point x="67" y="551" type="line" smooth="yes"/>
      <point x="67" y="852"/>
      <point x="248" y="1102"/>
      <point x="575" y="1102" type="curve" smooth="yes"/>
      <point x="770" y="1102"/>
      <point x="899" y="1037"/>
      <point x="973" y="961" type="curve"/>
      <point x="971" y="642" type="line"/>
      <point x="742" y="642" type="line"/>
      <point x="706" y="844" type="line"/>
      <point x="673" y="866"/>
      <point x="634" y="880"/>
      <point x="586" y="880" type="curve" smooth="yes"/>
      <point x="461" y="880"/>
      <point x="359" y="754"/>
      <point x="359" y="555" type="curve" smooth="yes"/>
      <point x="359" y="525" type="line" smooth="yes"/>
      <point x="359" y="300"/>
      <point x="473" y="208"/>
    </contour>
  </outline>
</glyph>
<glyph name="d" format="1">
  <advance width="1212"/>
  <unicode hex="0064"/>
  <outline>
    <contour>
      <point x="767" y="132" type="line"/>
      <point x="699.0" y="32.0"/>
      <point x="606.6666666666667" y="-21.0"/>
      <point x="488" y="-21" type="curve" smooth="yes"/>
      <point x="221.33333333333343" y="-21.0"/>
      <point x="67.0" y="190.99999999999994"/>
      <point x="67" y="511" type="curve" smooth="yes"/>
      <point x="67" y="532" type="line" smooth="yes"/>
      <point x="67.0" y="873.3333333333335"/>
      <point x="222.0000000000001" y="1102.0"/>
      <point x="490" y="1102" type="curve" smooth="yes"/>
      <point x="598.0" y="1102.0"/>
      <point x="684.6666666666667" y="1052.6666666666667"/>
      <point x="750" y="966" type="curve"/>
      <point x="750" y="1354" type="line"/>
      <point x="594" y="1384" type="line"/>
      <point x="594" y="1560" type="line"/>
      <point x="750" y="1560" type="line"/>
      <point x="1042" y="1560" type="line"/>
      <point x="1042" y="205" type="line"/>
      <point x="1182" y="175" type="line"/>
      <point x="1182" y="0" type="line"/>
      <point x="789" y="0" type="line"/>
    </contour>
    <contour>
      <point x="359" y="511" type="line" smooth="yes"/>
      <point x="359.0" y="321.66666666666674"/>
      <point x="418.0" y="206.0"/>
      <point x="562" y="206" type="curve" smooth="yes"/>
      <point x="647.3333333333333" y="206.0"/>
      <point x="710.0" y="241.66666666666663"/>
      <point x="750" y="307" type="curve"/>
      <point x="750" y="766" type="line"/>
      <point x="710.0" y="835.3333333333333"/>
      <point x="648.0" y="875.0"/>
      <point x="564" y="875" type="curve" smooth="yes"/>
      <point x="421.33333333333337" y="875.0"/>
      <point x="359.0" y="736.0"/>
      <point x="359" y="532" type="curve" smooth="yes"/>
    </contour>
  </outline>
</glyph>
<glyph name="e" format="2">
  <advance width="1091"/>
  <unicode hex="0065"/>
  <outline>
    <contour>
      <point x="581" y="-21" type="qcurve" smooth="yes"/>
      <point x="347" y="-21"/>
      <point x="67" y="279"/>
      <point x="67" y="510" type="qcurve" smooth="yes"/>
      <point x="67" y="550" type="line" smooth="yes"/>
      <point x="67" y="791"/>
      <point x="332" y="1103"/>
      <point x="555" y="1102" type="qcurve" smooth="yes"/>
      <point x="774" y="1102"/>
      <point x="1016" y="838"/>
      <point x="1016" y="613" type="qcurve" smooth="yes"/>
      <point x="1016" y="454" type="line"/>
      <point x="370" y="454" type="line"/>
      <point x="368" y="448" type="line"/>
      <point x="376" y="341"/>
      <point x="503" y="203"/>
      <point x="612" y="203" type="qcurve" smooth="yes"/>
      <point x="709" y="203"/>
      <point x="837" y="242"/>
      <point x="913" y="284" type="qcurve"/>
      <point x="992" y="104" type="line"/>
      <point x="925" y="51"/>
      <point x="712" y="-21"/>
    </contour>
    <contour>
      <point x="555" y="877" type="qcurve" smooth="yes"/>
      <point x="474" y="877"/>
      <point x="380" y="753"/>
      <point x="369" y="652" type="qcurve"/>
      <point x="372" y="647" type="line"/>
      <point x="730" y="647" type="line"/>
      <point x="730" y="673" type="line" smooth="yes"/>
      <point x="730" y="766"/>
      <point x="643" y="877"/>
    </contour>
  </outline>
</glyph>
<glyph name="f" format="1">
  <advance width="762"/>
  <unicode hex="0066"/>
  <outline>
    <contour>
      <point x="79" y="175" type="line"/>
      <point x="220" y="205" type="line"/>
      <point x="220" y="877" type="line"/>
      <point x="59" y="877" type="line"/>
      <point x="59" y="1082" type="line"/>
      <point x="220" y="1082" type="line"/>
      <point x="220" y="1202" type="line" smooth="yes"/>
      <point x="220.0" y="1444.6666666666665"/>
      <point x="366.66666666666674" y="1581.0"/>
      <point x="620" y="1581" type="curve" smooth="yes"/>
      <point x="669.3333333333333" y="1581.0"/>
      <point x="718.6666666666667" y="1573.3333333333335"/>
      <point x="780" y="1560" type="curve"/>
      <point x="755" y="1343" type="line"/>
      <point x="723.0" y="1348.3333333333335"/>
      <point x="696.0" y="1353.0"/>
      <point x="656" y="1353" type="curve" smooth="yes"/>
      <point x="561.3333333333333" y="1353.0"/>
      <point x="512.0" y="1299.3333333333335"/>
      <point x="512" y="1202" type="curve" smooth="yes"/>
      <point x="512" y="1082" type="line"/>
      <point x="727" y="1082" type="line"/>
      <point x="727" y="877" type="line"/>
      <point x="512" y="877" type="line"/>
      <point x="512" y="205" type="line"/>
      <point x="653" y="175" type="line"/>
      <point x="653" y="0" type="line"/>
      <point x="79" y="0" type="line"/>
    </contour>
  </outline>
</glyph>
<glyph name="g" format="2">
  <advance width="1170"/>
  <unicode hex="0067"/>
  <outline>
    <contour>
      <point x="81" y="532" type="line" smooth="yes"/>
      <point x="81" y="788"/>
      <point x="304" y="1102"/>
      <point x="505" y="1102" type="qcurve" smooth="yes"/>
      <point x="596" y="1102"/>
      <point x="734" y="1021"/>
      <point x="783" y="946" type="qcurve"/>
      <point x="804" y="1082" type="line"/>
      <point x="1058" y="1082" type="line"/>
      <point x="1058" y="32" type="line" smooth="yes"/>
      <point x="1058" y="-182"/>
      <point x="789" y="-437"/>
      <point x="554" y="-437" type="qcurve" smooth="yes"/>
      <point x="472" y="-437"/>
      <point x="288" y="-392"/>
      <point x="210" y="-353" type="qcurve"/>
      <point x="264" y="-148" type="line"/>
      <point x="334" y="-178"/>
      <point x="474" y="-213"/>
      <point x="552" y="-213" type="qcurve" smooth="yes"/>
      <point x="659" y="-213"/>
      <point x="765" y="-83"/>
      <point x="765" y="33" type="qcurve" smooth="yes"/>
      <point x="765" y="104" type="line"/>
      <point x="717" y="43"/>
      <point x="587" y="-21"/>
      <point x="503" y="-21" type="qcurve" smooth="yes"/>
      <point x="304" y="-21"/>
      <point x="81" y="272"/>
      <point x="81" y="511" type="qcurve" smooth="yes"/>
    </contour>
    <contour>
      <point x="373" y="511" type="line" smooth="yes"/>
      <point x="373" y="369"/>
      <point x="469" y="206"/>
      <point x="577" y="206" type="qcurve" smooth="yes"/>
      <point x="644" y="206"/>
      <point x="737" y="255"/>
      <point x="765" y="302" type="qcurve"/>
      <point x="765" y="772" type="line"/>
      <point x="737" y="821"/>
      <point x="644" y="875"/>
      <point x="579" y="875" type="qcurve" smooth="yes"/>
      <point x="472" y="875"/>
      <point x="373" y="685"/>
      <point x="373" y="532" type="qcurve" smooth="yes"/>
    </contour>
  </outline>
</glyph>
<glyph name="i" format="1">
  <advance width="660"/>
  <unicode hex="0069"/>
  <outline>
    <contour>
      <point x="54" y="175" type="line"/>
      <point x="195" y="205" type="line"/>
      <point x="195" y="876" type="line"/>
      <point x="39" y="906" type="line"/>
      <point x="39" y="1082" type="line"/>
      <point x="487" y="1082" type="line"/>
      <point x="487" y="205" type="line"/>
      <point x="627" y="175" type="line"/>
      <point x="627" y="0" type="line"/>
      <point x="54" y="0" type="line"/>
    </contour>
    <contour>
      <point x="487" y="1341" type="line"/>
      <point x="195" y="1341" type="line"/>
      <point x="195" y="1560" type="line"/>
      <point x="487" y="1560" type="line"/>
    </contour>
  </outline>
</glyph>
<glyph name="j" format="1">
  <advance width="599"/>
  <unicode hex="006A"/>
  <outline>
    <contour>
      <point x="492" y="-40" type="line" smooth="yes"/>
      <point x="492.0" y="-293.3333333333333"/>
      <point x="349.66666666666663" y="-437.0"/>
      <point x="111" y="-437" type="curve" smooth="yes"/>
      <point x="56.33333333333334" y="-437.0"/>
      <point x="15.0" y="-432.0"/>
      <point x="-33" y="-420" type="curve"/>
      <point x="-19" y="-197" type="line"/>
      <point x="10.333333333333325" y="-205.0"/>
      <point x="39.99999999999999" y="-209.0"/>
      <point x="76" y="-209" type="curve" smooth="yes"/>
      <point x="154.66666666666666" y="-209.0"/>
      <point x="200.0" y="-154.66666666666666"/>
      <point x="200" y="-40" type="curve" smooth="yes"/>
      <point x="200" y="876" type="line"/>
      <point x="44" y="906" type="line"/>
      <point x="44" y="1082" type="line"/>
      <point x="492" y="1082" type="line"/>
    </contour>
    <contour>
      <point x="486" y="1343" type="line"/>
      <point x="194" y="1343" type="line"/>
      <point x="194" y="1560" type="line"/>
      <point x="486" y="1560" type="line"/>
    </contour>
  </outline>
</glyph>
<glyph name="k" format="1">
  <advance width="1249"/>
  <unicode hex="006B"/>
  <outline>
    <contour>
      <point x="32.0" y="1384.0" type="line"/>
      <point x="32.0" y="1560.0" type="line"/>
      <point x="479.0" y="1560.0" type="line"/>
      <point x="479.0" y="656.0" type="line"/>
      <point x="544.0" y="656.0" type="line"/>
      <point x="710.0" y="890.0" type="line"/>
      <point x="712.0" y="893.0" type="line"/>
      <point x="617.0" y="906.0" type="line"/>
      <point x="617.0" y="1082.0" type="line"/>
      <point x="1149.0" y="1082.0" type="line"/>
      <point x="1149.0" y="906.0" type="line"/>
      <point x="1021.0" y="877.0" type="line"/>
      <point x="826.0" y="609.0" type="line"/>
      <point x="1099.0" y="198.0" type="line"/>
      <point x="1210.0" y="175.0" type="line"/>
      <point x="1210.0" y="0.0" type="line"/>
      <point x="710.0" y="0.0" type="line"/>
      <point x="710.0" y="175.0" type="line"/>
      <point x="770.0" y="185.0" type="line"/>
      <point x="768.0" y="189.0" type="line"/>
      <point x="604.0" y="453.0" type="line"/>
      <point x="479.0" y="453.0" type="line"/>
      <point x="479.0" y="205.0" type="line"/>
      <point x="605.0" y="175.0" type="line"/>
      <point x="605.0" y="0.0" type="line"/>
      <point x="47.0" y="0.0" type="line"/>
      <point x="47.0" y="175.0" type="line"/>
      <point x="188.0" y="205.0" type="line"/>
      <point x="188.0" y="1354.0" type="line"/>
    </contour>
  </outline>
</glyph>
<glyph name="m" format="2">
  <advance width="1905"/>
  <unicode hex="006D"/>
  <outline>
    <contour>
      <point x="29" y="906" type="line"/>
      <point x="29" y="1082" type="line"/>
      <point x="456" y="1082" type="line"/>
      <point x="468" y="939" type="line"/>
      <point x="520" y="1017"/>
      <point x="677" y="1102"/>
      <point x="780" y="1102" type="qcurve" smooth="yes"/>
      <point x="884" y="1102"/>
      <point x="1032" y="1010"/>
      <point x="1070" y="917" type="qcurve"/>
      <point x="1120" y="1004"/>
      <point x="1280" y="1102"/>
      <point x="1388" y="1102" type="qcurve" smooth="yes"/>
      <point x="1548" y="1102"/>
      <point x="1733" y="881"/>
      <point x="1733" y="655" type="qcurve" smooth="yes"/>
      <point x="1733" y="205" type="line"/>
      <point x="1874" y="175" type="line"/>
      <point x="1874" y="0" type="line"/>
      <point x="1315" y="0" type="line"/>
      <point x="1315" y="175" type="line"/>
      <point x="1441" y="205" type="line"/>
      <point x="1441" y="656" type="line" smooth="yes"/>
      <point x="1441" y="779"/>
      <point x="1361" y="875"/>
      <point x="1282" y="875" type="qcurve" smooth="yes"/>
      <point x="1220" y="875"/>
      <point x="1129" y="820"/>
      <point x="1102" y="771" type="qcurve"/>
      <point x="1102" y="752"/>
      <point x="1104" y="725"/>
      <point x="1104" y="711" type="qcurve" smooth="yes"/>
      <point x="1104" y="205" type="line"/>
      <point x="1222" y="175" type="line"/>
      <point x="1222" y="0" type="line"/>
      <point x="695" y="0" type="line"/>
      <point x="695" y="175" type="line"/>
      <point x="813" y="205" type="line"/>
      <point x="813" y="656" type="line" smooth="yes"/>
      <point x="813" y="776"/>
      <point x="733" y="875"/>
      <point x="653" y="875" type="qcurve" smooth="yes"/>
      <point x="594" y="875"/>
      <point x="505" y="830"/>
      <point x="476" y="789" type="qcurve"/>
      <point x="476" y="205" type="line"/>
      <point x="602" y="175" type="line"/>
      <point x="602" y="0" type="line"/>
      <point x="44" y="0" type="line"/>
      <point x="44" y="175" type="line"/>
      <point x="185" y="205" type="line"/>
      <point x="185" y="876" type="line"/>
    </contour>
  </outline>
</glyph>
<glyph name="n" format="2">
  <advance width="1300"/>
  <unicode hex="006E"/>
  <outline>
    <contour>
      <point x="47" y="175" type="line"/>
      <point x="187" y="205" type="line"/>
      <point x="187" y="876" type="line"/>
      <point x="32" y="906" type="line"/>
      <point x="32" y="1082" type="line"/>
      <point x="459" y="1082" type="line"/>
      <point x="472" y="927" type="line"/>
      <point x="526" y="1010"/>
      <point x="684" y="1102"/>
      <point x="782" y="1102" type="qcurve" smooth="yes"/>
      <point x="946" y="1102"/>
      <point x="1130" y="896"/>
      <point x="1130" y="676" type="qcurve" smooth="yes"/>
      <point x="1130" y="205" type="line"/>
      <point x="1270" y="175" type="line"/>
      <point x="1270" y="0" type="line"/>
      <point x="712" y="0" type="line"/>
      <point x="712" y="175" type="line"/>
      <point x="837" y="205" type="line"/>
      <point x="837" y="675" type="line" smooth="yes"/>
      <point x="837" y="784"/>
      <point x="749" y="875"/>
      <point x="660" y="875" type="qcurve" smooth="yes"/>
      <point x="602" y="875"/>
      <point x="510" y="828"/>
      <point x="479" y="785" type="qcurve"/>
      <point x="479" y="205" type="line"/>
      <point x="597" y="175" type="line"/>
      <point x="597" y="0" type="line"/>
      <point x="47" y="0" type="line"/>
    </contour>
  </outline>
</glyph>
<glyph name="o" format="2">
  <advance width="1148"/>
  <unicode hex="006F"/>
  <outline>
    <contour>
      <point x="63" y="551" type="line" smooth="yes"/>
      <point x="63" y="793"/>
      <point x="334" y="1102"/>
      <point x="573" y="1102" type="qcurve" smooth="yes"/>
      <point x="813" y="1102"/>
      <point x="1084" y="794"/>
      <point x="1084" y="551" type="qcurve" smooth="yes"/>
      <point x="1084" y="530" type="line" smooth="yes"/>
      <point x="1084" y="286"/>
      <point x="813" y="-21"/>
      <point x="575" y="-21" type="qcurve" smooth="yes"/>
      <point x="334" y="-21"/>
      <point x="63" y="286"/>
      <point x="63" y="530" type="qcurve" smooth="yes"/>
    </contour>
    <contour>
      <point x="355" y="530" type="line" smooth="yes"/>
      <point x="355" y="382"/>
      <point x="459" y="203"/>
      <point x="575" y="203" type="qcurve" smooth="yes"/>
      <point x="688" y="203"/>
      <point x="793" y="383"/>
      <point x="793" y="530" type="qcurve" smooth="yes"/>
      <point x="793" y="551" type="line" smooth="yes"/>
      <point x="793" y="695"/>
      <point x="687" y="877"/>
      <point x="573" y="877" type="qcurve" smooth="yes"/>
      <point x="459" y="877"/>
      <point x="355" y="695"/>
      <point x="355" y="551" type="qcurve" smooth="yes"/>
    </contour>
  </outline>
</glyph>
<glyph name="p" format="2">
  <advance width="1240"/>
  <unicode hex="0070"/>
  <outline>
    <contour>
      <point x="41" y="906" type="line"/>
      <point x="41" y="1082" type="line"/>
      <point x="465" y="1082" type="line"/>
      <point x="479" y="956" type="line"/>
      <point x="527" y="1026"/>
      <point x="661" y="1102"/>
      <point x="750" y="1102" type="qcurve" smooth="yes"/>
      <point x="951" y="1102"/>
      <point x="1173" y="788"/>
      <point x="1173" y="532" type="qcurve" smooth="yes"/>
      <point x="1173" y="511" type="line" smooth="yes"/>
      <point x="1173" y="271"/>
      <point x="951" y="-21"/>
      <point x="752" y="-21" type="qcurve" smooth="yes"/>
      <point x="667" y="-21"/>
      <point x="535" y="42"/>
      <point x="488" y="103" type="qcurve"/>
      <point x="488" y="-210" type="line"/>
      <point x="629" y="-240" type="line"/>
      <point x="629" y="-416" type="line"/>
      <point x="56" y="-416" type="line"/>
      <point x="56" y="-240" type="line"/>
      <point x="197" y="-210" type="line"/>
      <point x="197" y="876" type="line"/>
    </contour>
    <contour>
      <point x="881" y="532" type="line" smooth="yes"/>
      <point x="881" y="685"/>
      <point x="779" y="875"/>
      <point x="674" y="875" type="qcurve" smooth="yes"/>
      <point x="608" y="875"/>
      <point x="515" y="821"/>
      <point x="488" y="771" type="qcurve"/>
      <point x="488" y="297" type="line"/>
      <point x="515" y="251"/>
      <point x="608" y="203"/>
      <point x="676" y="203" type="qcurve" smooth="yes"/>
      <point x="782" y="203"/>
      <point x="881" y="369"/>
      <point x="881" y="511" type="qcurve" smooth="yes"/>
    </contour>
  </outline>
</glyph>
<glyph name="q" format="1">
  <advance width="1154"/>
  <unicode hex="0071"/>
  <outline>
    <contour>
      <point x="67" y="532" type="line" smooth="yes"/>
      <point x="67.0" y="873.3333333333335"/>
      <point x="222.0000000000001" y="1102.0"/>
      <point x="490" y="1102" type="curve" smooth="yes"/>
      <point x="607.3333333333333" y="1102.0"/>
      <point x="697.6666666666667" y="1048.0"/>
      <point x="763" y="952" type="curve"/>
      <point x="786" y="1082" type="line"/>
      <point x="1039" y="1082" type="line"/>
      <point x="1039" y="-210" type="line"/>
      <point x="1180" y="-240" type="line"/>
      <point x="1180" y="-416" type="line"/>
      <point x="606" y="-416" type="line"/>
      <point x="606" y="-240" type="line"/>
      <point x="747" y="-210" type="line"/>
      <point x="747" y="100" type="line"/>
      <point x="683.0" y="20.0"/>
      <point x="597.3333333333333" y="-21.0"/>
      <point x="488" y="-21" type="curve" smooth="yes"/>
      <point x="221.33333333333343" y="-21.0"/>
      <point x="67.0" y="190.99999999999994"/>
      <point x="67" y="511" type="curve" smooth="yes"/>
    </contour>
    <contour>
      <point x="359" y="511" type="line" smooth="yes"/>
      <point x="359.0" y="320.33333333333337"/>
      <point x="418.0" y="203.0"/>
      <point x="562" y="203" type="curve" smooth="yes"/>
      <point x="647.3333333333333" y="203.0"/>
      <point x="708.3333333333333" y="234.66666666666663"/>
      <point x="747" y="296" type="curve"/>
      <point x="747" y="777" type="line"/>
      <point x="708.3333333333333" y="841.0"/>
      <point x="648.0" y="877.0"/>
      <point x="564" y="877" type="curve" smooth="yes"/>
      <point x="421.33333333333337" y="877.0"/>
      <point x="359.0" y="737.3333333333333"/>
      <point x="359" y="532" type="curve" smooth="yes"/>
    </contour>
  </outline>
</glyph>
<glyph name="r" format="1">
  <advance width="862"/>
  <unicode hex="0072"/>
  <outline>
    <contour>
      <point x="85" y="175" type="line"/>
      <point x="225" y="205" type="line"/>
      <point x="225" y="876" type="line"/>
      <point x="70" y="906" type="line"/>
      <point x="70" y="1082" type="line"/>
      <point x="497" y="1082" type="line"/>
      <point x="510" y="924" type="line"/>
      <point x="560.6666666666667" y="1036.0"/>
      <point x="641.6666666666666" y="1102.0"/>
      <point x="747" y="1102" type="curve" smooth="yes"/>
      <point x="777.6666666666667" y="1102.0"/>
      <point x="815.3333333333333" y="1096.6666666666665"/>
      <point x="838" y="1090" type="curve"/>
      <point x="807" y="824" type="line"/>
      <point x="687" y="827" type="line" smooth="yes"/>
      <point x="601.6666666666667" y="827.0"/>
      <point x="546.3333333333333" y="792.3333333333333"/>
      <point x="517" y="731" type="curve"/>
      <point x="517" y="205" type="line"/>
      <point x="657" y="175" type="line"/>
      <point x="657" y="0" type="line"/>
      <point x="85" y="0" type="line"/>
    </contour>
  </outline>
</glyph>
<glyph name="s" format="1">
  <advance width="1054"/>
  <unicode hex="0073"/>
  <outline>
    <contour>
      <point x="946" y="710" type="line"/>
      <point x="750" y="710" type="line"/>
      <point x="719" y="845" type="line"/>
      <point x="679.0" y="877.0"/>
      <point x="616.3333333333333" y="901.0"/>
      <point x="543" y="901" type="curve" smooth="yes"/>
      <point x="440.33333333333337" y="901.0"/>
      <point x="376.0" y="849.3333333333333"/>
      <point x="376" y="780" type="curve" smooth="yes"/>
      <point x="376.0" y="714.6666666666667"/>
      <point x="419.0" y="674.3333333333333"/>
      <point x="591" y="641" type="curve" smooth="yes"/>
      <point x="859.0" y="587.6666666666667"/>
      <point x="986.0" y="491.33333333333326"/>
      <point x="986" y="310" type="curve" smooth="yes"/>
      <point x="986.0" y="115.33333333333337"/>
      <point x="803.3333333333333" y="-21.0"/>
      <point x="530" y="-21" type="curve" smooth="yes"/>
      <point x="363.33333333333337" y="-21.0"/>
      <point x="222.99999999999997" y="29.333333333333357"/>
      <point x="115" y="120" type="curve"/>
      <point x="112" y="363" type="line"/>
      <point x="316" y="363" type="line"/>
      <point x="356" y="222" type="line"/>
      <point x="390.66666666666663" y="192.66666666666669"/>
      <point x="455.66666666666663" y="179.0"/>
      <point x="521" y="179" type="curve" smooth="yes"/>
      <point x="639.6666666666667" y="179.0"/>
      <point x="703.0" y="224.66666666666663"/>
      <point x="703" y="298" type="curve" smooth="yes"/>
      <point x="703.0" y="362.0"/>
      <point x="651.0" y="407.0"/>
      <point x="483" y="443" type="curve" smooth="yes"/>
      <point x="228.33333333333337" y="495.0"/>
      <point x="97.0" y="591.0"/>
      <point x="97" y="767" type="curve" smooth="yes"/>
      <point x="97.0" y="948.3333333333334"/>
      <point x="252.0000000000001" y="1100.0"/>
      <point x="528" y="1100" type="curve" smooth="yes"/>
      <point x="696.0" y="1100.0"/>
      <point x="857.6666666666667" y="1049.6666666666667"/>
      <point x="943" y="979" type="curve"/>
    </contour>
  </outline>
</glyph>
<glyph name="t" format="2">
  <advance width="764"/>
  <unicode hex="0074"/>
  <outline>
    <contour>
      <point x="494" y="1347" type="line"/>
      <point x="494" y="1082" type="line"/>
      <point x="684" y="1082" type="line"/>
      <point x="684" y="877" type="line"/>
      <point x="494" y="877" type="line"/>
      <point x="494" y="326" type="line" smooth="yes"/>
      <point x="494" y="263"/>
      <point x="546" y="209"/>
      <point x="590" y="209" type="qcurve" smooth="yes"/>
      <point x="620" y="209"/>
      <point x="665" y="214"/>
      <point x="693" y="220" type="qcurve"/>
      <point x="718" y="9" type="line"/>
      <point x="669" y="-6"/>
      <point x="573" y="-21"/>
      <point x="517" y="-21" type="qcurve" smooth="yes"/>
      <point x="366" y="-21"/>
      <point x="203" y="145"/>
      <point x="203" y="325" type="qcurve" smooth="yes"/>
      <point x="203" y="877" type="line"/>
      <point x="44" y="877" type="line"/>
      <point x="44" y="1082" type="line"/>
      <point x="203" y="1082" type="line"/>
      <point x="203" y="1347" type="line"/>
    </contour>
  </outline>
</glyph>
<glyph name="u" format="2">
  <advance width="1278"/>
  <unicode hex="0075"/>
  <outline>
    <contour>
      <point x="820" y="137" type="line"/>
      <point x="768" y="61"/>
      <point x="615" y="-21"/>
      <point x="517" y="-21" type="qcurve" smooth="yes"/>
      <point x="346" y="-21"/>
      <point x="152" y="198"/>
      <point x="152" y="429" type="qcurve" smooth="yes"/>
      <point x="152" y="876" type="line"/>
      <point x="33" y="906" type="line"/>
      <point x="33" y="1082" type="line"/>
      <point x="152" y="1082" type="line"/>
      <point x="444" y="1082" type="line"/>
      <point x="444" y="427" type="line" smooth="yes"/>
      <point x="444" y="309"/>
      <point x="523" y="206"/>
      <point x="601" y="206" type="qcurve" smooth="yes"/>
      <point x="670" y="206"/>
      <point x="771" y="251"/>
      <point x="803" y="293" type="qcurve"/>
      <point x="803" y="876" type="line"/>
      <point x="675" y="906" type="line"/>
      <point x="675" y="1082" type="line"/>
      <point x="803" y="1082" type="line"/>
      <point x="1095" y="1082" type="line"/>
      <point x="1095" y="205" type="line"/>
      <point x="1226" y="175" type="line"/>
      <point x="1226" y="0" type="line"/>
      <point x="839" y="0" type="line"/>
    </contour>
  </outline>
</glyph>
<glyph name="v" format="1">
  <advance width="1267"/>
  <unicode hex="0076"/>
  <outline>
    <contour>
      <point x="556" y="907" type="line"/>
      <point x="450" y="887" type="line"/>
      <point x="613" y="403" type="line"/>
      <point x="632" y="301" type="line"/>
      <point x="638" y="301" type="line"/>
      <point x="659" y="403" type="line"/>
      <point x="820" y="886" type="line"/>
      <point x="713" y="907" type="line"/>
      <point x="713" y="1082" type="line"/>
      <point x="1237" y="1082" type="line"/>
      <point x="1237" y="906" type="line"/>
      <point x="1112" y="888" type="line"/>
      <point x="774" y="0" type="line"/>
      <point x="495" y="0" type="line"/>
      <point x="156" y="888" type="line"/>
      <point x="31" y="906" type="line"/>
      <point x="31" y="1082" type="line"/>
      <point x="556" y="1082" type="line"/>
    </contour>
  </outline>
</glyph>
<glyph name="w" format="1">
  <advance width="1819"/>
  <unicode hex="0077"/>
  <outline>
    <contour>
      <point x="1789" y="906" type="line"/>
      <point x="1663" y="882" type="line"/>
      <point x="1386" y="0" type="line"/>
      <point x="1130" y="0" type="line"/>
      <point x="954" y="508" type="line"/>
      <point x="911" y="643" type="line"/>
      <point x="905" y="643" type="line"/>
      <point x="872" y="534" type="line"/>
      <point x="683" y="0" type="line"/>
      <point x="424" y="0" type="line"/>
      <point x="162" y="882" type="line"/>
      <point x="30" y="906" type="line"/>
      <point x="30" y="1082" type="line"/>
      <point x="553" y="1082" type="line"/>
      <point x="553" y="907" type="line"/>
      <point x="441" y="885" type="line"/>
      <point x="543" y="493" type="line"/>
      <point x="569" y="381" type="line"/>
      <point x="575" y="381" type="line"/>
      <point x="608" y="490" type="line"/>
      <point x="814" y="1082" type="line"/>
      <point x="1010" y="1082" type="line"/>
      <point x="1220" y="464" type="line"/>
      <point x="1247" y="378" type="line"/>
      <point x="1253" y="378" type="line"/>
      <point x="1274" y="448" type="line"/>
      <point x="1403" y="884" type="line"/>
      <point x="1277" y="907" type="line"/>
      <point x="1277" y="1082" type="line"/>
      <point x="1789" y="1082" type="line"/>
    </contour>
  </outline>
</glyph>
<glyph name="x" format="1">
  <advance width="1191"/>
  <unicode hex="0078"/>
  <outline>
    <contour>
      <point x="32" y="175" type="line"/>
      <point x="133" y="191" type="line"/>
      <point x="427" y="547" type="line"/>
      <point x="143" y="889" type="line"/>
      <point x="42" y="906" type="line"/>
      <point x="42" y="1082" type="line"/>
      <point x="529" y="1082" type="line"/>
      <point x="529" y="913" type="line"/>
      <point x="430" y="901" type="line"/>
      <point x="594" y="693" type="line"/>
      <point x="755" y="901" type="line"/>
      <point x="654" y="913" type="line"/>
      <point x="654" y="1082" type="line"/>
      <point x="1143" y="1082" type="line"/>
      <point x="1143" y="906" type="line"/>
      <point x="1045" y="889" type="line"/>
      <point x="767" y="547" type="line"/>
      <point x="1060" y="191" type="line"/>
      <point x="1162" y="175" type="line"/>
      <point x="1162" y="0" type="line"/>
      <point x="667" y="0" type="line"/>
      <point x="667" y="168" type="line"/>
      <point x="766" y="180" type="line"/>
      <point x="598" y="398" type="line"/>
      <point x="427" y="179" type="line"/>
      <point x="514" y="168" type="line"/>
      <point x="514" y="0" type="line"/>
      <point x="32" y="0" type="line"/>
    </contour>
  </outline>
</glyph>
<glyph name="y" format="1">
  <advance width="1212"/>
  <unicode hex="0079"/>
  <outline>
    <contour>
      <point x="1183" y="906" type="line"/>
      <point x="1082" y="891" type="line"/>
      <point x="684" y="-162" type="line" smooth="yes"/>
      <point x="621.3333333333333" y="-318.0"/>
      <point x="532.6666666666667" y="-437.0"/>
      <point x="322" y="-437" type="curve" smooth="yes"/>
      <point x="272.6666666666667" y="-437.0"/>
      <point x="234.66666666666674" y="-428.66666666666663"/>
      <point x="176" y="-414" type="curve"/>
      <point x="210" y="-201" type="line"/>
      <point x="228.66666666666669" y="-203.66666666666669"/>
      <point x="250.33333333333337" y="-207.0"/>
      <point x="265" y="-207" type="curve" smooth="yes"/>
      <point x="362.33333333333337" y="-207.0"/>
      <point x="409.0" y="-153.66666666666666"/>
      <point x="437" y="-83" type="curve" smooth="yes"/>
      <point x="470" y="-1" type="line"/>
      <point x="127" y="890" type="line"/>
      <point x="26" y="906" type="line"/>
      <point x="26" y="1082" type="line"/>
      <point x="556" y="1082" type="line"/>
      <point x="556" y="906" type="line"/>
      <point x="435" y="886" type="line"/>
      <point x="583" y="454" type="line"/>
      <point x="598" y="376" type="line"/>
      <point x="604" y="375" type="line"/>
      <point x="775" y="886" type="line"/>
      <point x="653" y="906" type="line"/>
      <point x="653" y="1082" type="line"/>
      <point x="1183" y="1082" type="line"/>
    </contour>
  </outline>
</glyph>
<glyph name="z" format="2">
  <advance width="1070"/>
  <unicode hex="007A"/>
  <outline>
    <contour>
      <point x="450" y="224" type="line"/>
      <point x="752" y="224" type="line"/>
      <point x="764" y="368" type="line"/>
      <point x="987" y="368" type="line"/>
      <point x="987" y="0" type="line"/>
      <point x="88" y="0" type="line"/>
      <point x="88" y="172" type="line"/>
      <point x="603" y="856" type="line"/>
      <point x="338" y="856" type="line"/>
      <point x="327" y="713" type="line"/>
      <point x="103" y="713" type="line"/>
      <point x="103" y="1082" type="line"/>
      <point x="969" y="1082" type="line"/>
      <point x="969" y="915" type="line"/>
    </contour>
  </outline>
</glyph>
<glyph name="braceleft" format="2">
  <advance width="654"/>
  <unicode hex="007B"/>
  <outline>
    <contour>
      <point x="577" y="-360" type="line"/>
      <point x="382" y="-305"/>
      <point x="217" y="-65"/>
      <point x="217" y="106" type="qcurve" smooth="yes"/>
      <point x="217" y="309" type="line" smooth="yes"/>
      <point x="217" y="408"/>
      <point x="130" y="518"/>
      <point x="39" y="518" type="qcurve"/>
      <point x="39" y="719" type="line"/>
      <point x="130" y="719"/>
      <point x="217" y="828"/>
      <point x="217" y="929" type="qcurve" smooth="yes"/>
      <point x="217" y="1132" type="line" smooth="yes"/>
      <point x="217" y="1303"/>
      <point x="382" y="1542"/>
      <point x="577" y="1597" type="qcurve"/>
      <point x="633" y="1440" type="line"/>
      <point x="547" y="1409"/>
      <point x="478" y="1250"/>
      <point x="478" y="1132" type="qcurve" smooth="yes"/>
      <point x="478" y="929" type="line" smooth="yes"/>
      <point x="478" y="825"/>
      <point x="388" y="664"/>
      <point x="298" y="619" type="qcurve"/>
      <point x="388" y="572"/>
      <point x="478" y="411"/>
      <point x="478" y="309" type="qcurve" smooth="yes"/>
      <point x="478" y="106" type="line" smooth="yes"/>
      <point x="478" y="-12"/>
      <point x="547" y="-171"/>
      <point x="633" y="-202" type="qcurve"/>
    </contour>
  </outline>
</glyph>
<glyph name="braceright" format="2">
  <advance width="651"/>
  <unicode hex="007D"/>
  <outline>
    <contour>
      <point x="11" y="-202" type="line"/>
      <point x="95" y="-171"/>
      <point x="165" y="-12"/>
      <point x="165" y="106" type="qcurve" smooth="yes"/>
      <point x="165" y="309" type="line" smooth="yes"/>
      <point x="165" y="413"/>
      <point x="257" y="573"/>
      <point x="351" y="618" type="qcurve"/>
      <point x="257" y="663"/>
      <point x="165" y="824"/>
      <point x="165" y="929" type="qcurve" smooth="yes"/>
      <point x="165" y="1132" type="line" smooth="yes"/>
      <point x="165" y="1250"/>
      <point x="95" y="1409"/>
      <point x="11" y="1440" type="qcurve"/>
      <point x="67" y="1597" type="line"/>
      <point x="261" y="1542"/>
      <point x="427" y="1303"/>
      <point x="427" y="1132" type="qcurve" smooth="yes"/>
      <point x="427" y="929" type="line" smooth="yes"/>
      <point x="427" y="828"/>
      <point x="513" y="719"/>
      <point x="604" y="719" type="qcurve"/>
      <point x="604" y="518" type="line"/>
      <point x="513" y="518"/>
      <point x="427" y="408"/>
      <point x="427" y="309" type="qcurve" smooth="yes"/>
      <point x="427" y="106" type="line" smooth="yes"/>
      <point x="427" y="-65"/>
      <point x="261" y="-305"/>
      <point x="67" y="-360" type="qcurve"/>
    </contour>
  </outline>
</glyph>
<glyph name="asciitilde" format="2">
  <advance width="1323"/>
  <unicode hex="007E"/>
  <outline>
    <contour>
      <point x="1214" y="758" type="line"/>
      <point x="1214" y="597"/>
      <point x="1037" y="378"/>
      <point x="902" y="378" type="qcurve" smooth="yes"/>
      <point x="817" y="378"/>
      <point x="673" y="441"/>
      <point x="595" y="511" type="qcurve" smooth="yes"/>
      <point x="545" y="555"/>
      <point x="469" y="595"/>
      <point x="425" y="595" type="qcurve" smooth="yes"/>
      <point x="373" y="595"/>
      <point x="301" y="493"/>
      <point x="301" y="422" type="qcurve"/>
      <point x="100" y="448" type="line"/>
      <point x="100" y="610"/>
      <point x="273" y="825"/>
      <point x="410" y="825" type="qcurve" smooth="yes"/>
      <point x="493" y="825"/>
      <point x="644" y="758"/>
      <point x="719" y="692" type="qcurve" smooth="yes"/>
      <point x="768" y="647"/>
      <point x="844" y="608"/>
      <point x="887" y="608" type="qcurve" smooth="yes"/>
      <point x="938" y="608"/>
      <point x="1012" y="712"/>
      <point x="1012" y="785" type="qcurve"/>
    </contour>
  </outline>
</glyph>
<glyph name="exclamdown" format="1">
  <advance width="524"/>
  <unicode hex="00A1"/>
  <outline>
    <contour>
      <point x="423" y="-374" type="line"/>
      <point x="130" y="-374" type="line"/>
      <point x="130" y="579" type="line"/>
      <point x="423" y="579" type="line"/>
    </contour>
    <contour>
      <point x="423" y="825" type="line"/>
      <point x="130" y="825" type="line"/>
      <point x="130" y="1082" type="line"/>
      <point x="423" y="1082" type="line"/>
    </contour>
  </outline>
</glyph>
<glyph name="cent" format="2">
  <advance width="1092"/>
  <unicode hex="00A2"/>
  <outline>
    <contour>
      <point x="584" y="203" type="qcurve" smooth="yes"/>
      <point x="662" y="203"/>
      <point x="756" y="294"/>
      <point x="756" y="370" type="qcurve"/>
      <point x="1021" y="370" type="line"/>
      <point x="1024" y="364" type="line"/>
      <point x="1027" y="220"/>
      <point x="825" y="9"/>
      <point x="667" y="-14" type="qcurve"/>
      <point x="667" y="-245" type="line"/>
      <point x="467" y="-245" type="line"/>
      <point x="467" y="-10" type="line"/>
      <point x="279" y="26"/>
      <point x="80" y="317"/>
      <point x="80" y="525" type="qcurve" smooth="yes"/>
      <point x="80" y="555" type="line" smooth="yes"/>
      <point x="80" y="758"/>
      <point x="280" y="1049"/>
      <point x="467" y="1089" type="qcurve"/>
      <point x="467" y="1318" type="line"/>
      <point x="667" y="1318" type="line"/>
      <point x="667" y="1099" type="line"/>
      <point x="774" y="1089"/>
      <point x="946" y="1014"/>
      <point x="1006" y="953" type="qcurve"/>
      <point x="1010" y="664" type="line"/>
      <point x="773" y="664" type="line"/>
      <point x="725" y="833" type="line"/>
      <point x="703" y="852"/>
      <point x="639" y="877"/>
      <point x="598" y="877" type="qcurve" smooth="yes"/>
      <point x="474" y="877"/>
      <point x="372" y="697"/>
      <point x="372" y="555" type="qcurve" smooth="yes"/>
      <point x="372" y="525" type="line" smooth="yes"/>
      <point x="372" y="380"/>
      <point x="466" y="203"/>
    </contour>
  </outline>
</glyph>
<glyph name="sterling" format="2">
  <advance width="1177"/>
  <unicode hex="00A3"/>
  <outline>
    <contour>
      <point x="515" y="588" type="line"/>
      <point x="519" y="503" type="line" smooth="yes"/>
      <point x="519" y="425"/>
      <point x="459" y="281"/>
      <point x="403" y="224" type="qcurve"/>
      <point x="882" y="224" type="line"/>
      <point x="894" y="368" type="line"/>
      <point x="1117" y="368" type="line"/>
      <point x="1117" y="0" type="line"/>
      <point x="120" y="0" type="line"/>
      <point x="120" y="224" type="line"/>
      <point x="130" y="224" type="line"/>
      <point x="177" y="236"/>
      <point x="224" y="401"/>
      <point x="224" y="490" type="qcurve" smooth="yes"/>
      <point x="220" y="588" type="line"/>
      <point x="57" y="588" type="line"/>
      <point x="57" y="813" type="line"/>
      <point x="212" y="813" type="line"/>
      <point x="204" y="1027" type="line" smooth="yes"/>
      <point x="204" y="1237"/>
      <point x="445" y="1477"/>
      <point x="647" y="1477" type="qcurve" smooth="yes"/>
      <point x="862" y="1477"/>
      <point x="1099" y="1254"/>
      <point x="1095" y="1071" type="qcurve"/>
      <point x="1093" y="1065" type="line"/>
      <point x="808" y="1065" type="line"/>
      <point x="808" y="1161"/>
      <point x="716" y="1252"/>
      <point x="646" y="1252" type="qcurve" smooth="yes"/>
      <point x="575" y="1252"/>
      <point x="495" y="1134"/>
      <point x="495" y="1027" type="qcurve" smooth="yes"/>
      <point x="505" y="813" type="line"/>
      <point x="861" y="813" type="line"/>
      <point x="861" y="588" type="line"/>
    </contour>
  </outline>
</glyph>
<glyph name="currency" format="2">
  <advance width="1432"/>
  <unicode hex="00A4"/>
  <outline>
    <contour>
      <point x="1074" y="107" type="line"/>
      <point x="997" y="46"/>
      <point x="812" y="-20"/>
      <point x="712" y="-20" type="qcurve" smooth="yes"/>
      <point x="611" y="-20"/>
      <point x="427" y="45"/>
      <point x="352" y="106" type="qcurve"/>
      <point x="223" y="-26" type="line"/>
      <point x="82" y="118" type="line"/>
      <point x="217" y="255" type="line"/>
      <point x="168" y="331"/>
      <point x="117" y="510"/>
      <point x="117" y="608" type="qcurve" smooth="yes"/>
      <point x="117" y="709"/>
      <point x="173" y="894"/>
      <point x="226" y="973" type="qcurve"/>
      <point x="82" y="1120" type="line"/>
      <point x="223" y="1264" type="line"/>
      <point x="365" y="1119" type="line"/>
      <point x="439" y="1174"/>
      <point x="615" y="1234"/>
      <point x="712" y="1234" type="qcurve" smooth="yes"/>
      <point x="808" y="1234"/>
      <point x="986" y="1173"/>
      <point x="1061" y="1117" type="qcurve"/>
      <point x="1206" y="1265" type="line"/>
      <point x="1348" y="1120" type="line"/>
      <point x="1200" y="969" type="line"/>
      <point x="1251" y="891"/>
      <point x="1307" y="708"/>
      <point x="1307" y="608" type="qcurve" smooth="yes"/>
      <point x="1307" y="511"/>
      <point x="1256" y="334"/>
      <point x="1209" y="259" type="qcurve"/>
      <point x="1348" y="118" type="line"/>
      <point x="1206" y="-27" type="line"/>
    </contour>
    <contour>
      <point x="302" y="608" type="qcurve" smooth="yes"/>
      <point x="302" y="424"/>
      <point x="541" y="169"/>
      <point x="712" y="169" type="qcurve" smooth="yes"/>
      <point x="882" y="169"/>
      <point x="1121" y="423"/>
      <point x="1121" y="608" type="qcurve" smooth="yes"/>
      <point x="1121" y="791"/>
      <point x="882" y="1045"/>
      <point x="712" y="1045" type="qcurve" smooth="yes"/>
      <point x="541" y="1045"/>
      <point x="302" y="791"/>
    </contour>
  </outline>
</glyph>
<glyph name="yen" format="2">
  <advance width="1401"/>
  <unicode hex="00A5"/>
  <outline>
    <contour>
      <point x="1369" y="1280" type="line"/>
      <point x="1203" y="1258" type="line"/>
      <point x="927" y="742" type="line"/>
      <point x="1171" y="742" type="line"/>
      <point x="1171" y="577" type="line"/>
      <point x="847" y="577" type="line"/>
      <point x="847" y="452" type="line"/>
      <point x="1171" y="452" type="line"/>
      <point x="1171" y="288" type="line"/>
      <point x="847" y="288" type="line"/>
      <point x="847" y="205" type="line"/>
      <point x="987" y="175" type="line"/>
      <point x="987" y="0" type="line"/>
      <point x="400" y="0" type="line"/>
      <point x="400" y="175" type="line"/>
      <point x="555" y="205" type="line"/>
      <point x="555" y="288" type="line"/>
      <point x="216" y="288" type="line"/>
      <point x="216" y="452" type="line"/>
      <point x="555" y="452" type="line"/>
      <point x="555" y="577" type="line"/>
      <point x="216" y="577" type="line"/>
      <point x="216" y="742" type="line"/>
      <point x="483" y="742" type="line"/>
      <point x="207" y="1258" type="line"/>
      <point x="41" y="1280" type="line"/>
      <point x="41" y="1456" type="line"/>
      <point x="577" y="1456" type="line"/>
      <point x="577" y="1280" type="line"/>
      <point x="509" y="1267" type="line"/>
      <point x="702" y="849" type="line"/>
      <point x="708" y="849" type="line"/>
      <point x="901" y="1267" type="line"/>
      <point x="833" y="1280" type="line"/>
      <point x="833" y="1456" type="line"/>
      <point x="1369" y="1456" type="line"/>
    </contour>
  </outline>
</glyph>
<glyph name="section" format="2">
  <advance width="1243"/>
  <unicode hex="00A7"/>
  <outline>
    <contour>
      <point x="1172" y="475" type="qcurve" smooth="yes"/>
      <point x="1172" y="384"/>
      <point x="1088" y="248"/>
      <point x="1009" y="205" type="qcurve"/>
      <point x="1077" y="154"/>
      <point x="1146" y="13"/>
      <point x="1146" y="-84" type="qcurve" smooth="yes"/>
      <point x="1146" y="-261"/>
      <point x="865" y="-461"/>
      <point x="628" y="-461" type="qcurve" smooth="yes"/>
      <point x="396" y="-461"/>
      <point x="86" y="-262"/>
      <point x="91" y="-44" type="qcurve"/>
      <point x="93" y="-38" type="line"/>
      <point x="375" y="-37" type="line"/>
      <point x="375" y="-143"/>
      <point x="520" y="-235"/>
      <point x="628" y="-235" type="qcurve" smooth="yes"/>
      <point x="735" y="-235"/>
      <point x="854" y="-152"/>
      <point x="854" y="-85" type="qcurve" smooth="yes"/>
      <point x="854" y="-18"/>
      <point x="733" y="63"/>
      <point x="564" y="113" type="qcurve" smooth="yes"/>
      <point x="319" y="177"/>
      <point x="85" y="364"/>
      <point x="85" y="536" type="qcurve" smooth="yes"/>
      <point x="85" y="624"/>
      <point x="169" y="762"/>
      <point x="249" y="807" type="qcurve"/>
      <point x="180" y="857"/>
      <point x="111" y="998"/>
      <point x="111" y="1096" type="qcurve" smooth="yes"/>
      <point x="111" y="1268"/>
      <point x="394" y="1477"/>
      <point x="631" y="1477" type="qcurve" smooth="yes"/>
      <point x="875" y="1477"/>
      <point x="1149" y="1255"/>
      <point x="1144" y="1055" type="qcurve"/>
      <point x="1142" y="1049" type="line"/>
      <point x="860" y="1049" type="line"/>
      <point x="860" y="1137"/>
      <point x="739" y="1252"/>
      <point x="631" y="1252" type="qcurve" smooth="yes"/>
      <point x="517" y="1252"/>
      <point x="404" y="1165"/>
      <point x="404" y="1098" type="qcurve" smooth="yes"/>
      <point x="404" y="1023"/>
      <point x="515" y="946"/>
      <point x="691" y="898" type="qcurve" smooth="yes"/>
      <point x="938" y="834"/>
      <point x="1172" y="647"/>
    </contour>
    <contour>
      <point x="591" y="663" type="qcurve"/>
      <point x="551" y="673"/>
      <point x="483" y="695"/>
      <point x="452" y="706" type="qcurve"/>
      <point x="414" y="684"/>
      <point x="377" y="610"/>
      <point x="377" y="562" type="qcurve" smooth="yes"/>
      <point x="377" y="481"/>
      <point x="487" y="399"/>
      <point x="664" y="347" type="qcurve" smooth="yes"/>
      <point x="698" y="337"/>
      <point x="767" y="317"/>
      <point x="802" y="306" type="qcurve"/>
      <point x="841" y="328"/>
      <point x="884" y="402"/>
      <point x="884" y="450" type="qcurve" smooth="yes"/>
      <point x="884" y="521"/>
      <point x="760" y="611"/>
    </contour>
  </outline>
</glyph>
<glyph name="copyright" format="2">
  <advance width="1566"/>
  <unicode hex="00A9"/>
  <outline>
    <contour>
      <point x="1097" y="596" type="line"/>
      <point x="1099" y="590" type="line"/>
      <point x="1103" y="439"/>
      <point x="927" y="282"/>
      <point x="770" y="282" type="qcurve" smooth="yes"/>
      <point x="610" y="282"/>
      <point x="421" y="494"/>
      <point x="421" y="669" type="qcurve" smooth="yes"/>
      <point x="421" y="788" type="line" smooth="yes"/>
      <point x="421" y="961"/>
      <point x="610" y="1175"/>
      <point x="770" y="1175" type="qcurve" smooth="yes"/>
      <point x="927" y="1175"/>
      <point x="1104" y="1016"/>
      <point x="1100" y="867" type="qcurve"/>
      <point x="1098" y="861" type="line"/>
      <point x="950" y="861" type="line"/>
      <point x="950" y="955"/>
      <point x="860" y="1040"/>
      <point x="770" y="1040" type="qcurve" smooth="yes"/>
      <point x="676" y="1040"/>
      <point x="576" y="902"/>
      <point x="576" y="789" type="qcurve" smooth="yes"/>
      <point x="576" y="669" type="line" smooth="yes"/>
      <point x="576" y="554"/>
      <point x="676" y="417"/>
      <point x="770" y="417" type="qcurve" smooth="yes"/>
      <point x="860" y="417"/>
      <point x="949" y="500"/>
      <point x="949" y="596" type="qcurve"/>
    </contour>
    <contour>
      <point x="196" y="729" type="qcurve" smooth="yes"/>
      <point x="196" y="465"/>
      <point x="539" y="104"/>
      <point x="784" y="104" type="qcurve" smooth="yes"/>
      <point x="1028" y="104"/>
      <point x="1371" y="465"/>
      <point x="1371" y="729" type="qcurve" smooth="yes"/>
      <point x="1371" y="992"/>
      <point x="1028" y="1351"/>
      <point x="784" y="1351" type="qcurve" smooth="yes"/>
      <point x="538" y="1351"/>
      <point x="196" y="992"/>
    </contour>
    <contour>
      <point x="74" y="729" type="qcurve" smooth="yes"/>
      <point x="74" y="1044"/>
      <point x="488" y="1476"/>
      <point x="784" y="1476" type="qcurve" smooth="yes"/>
      <point x="1079" y="1476"/>
      <point x="1494" y="1044"/>
      <point x="1494" y="729" type="qcurve" smooth="yes"/>
      <point x="1494" y="413"/>
      <point x="1078" y="-21"/>
      <point x="784" y="-21" type="qcurve" smooth="yes"/>
      <point x="488" y="-21"/>
      <point x="74" y="413"/>
    </contour>
  </outline>
</glyph>
<glyph name="ordfeminine" format="2">
  <advance width="867"/>
  <unicode hex="00AA"/>
  <outline>
    <contour>
      <point x="586" y="706" type="line"/>
      <point x="578" y="727"/>
      <point x="568" y="774"/>
      <point x="565" y="800" type="qcurve"/>
      <point x="532" y="753"/>
      <point x="421" y="692"/>
      <point x="343" y="692" type="qcurve" smooth="yes"/>
      <point x="224" y="692"/>
      <point x="94" y="814"/>
      <point x="94" y="920" type="qcurve" smooth="yes"/>
      <point x="94" y="1031"/>
      <point x="263" y="1151"/>
      <point x="425" y="1151" type="qcurve" smooth="yes"/>
      <point x="562" y="1151" type="line"/>
      <point x="562" y="1202" type="line" smooth="yes"/>
      <point x="562" y="1264"/>
      <point x="503" y="1329"/>
      <point x="446" y="1329" type="qcurve" smooth="yes"/>
      <point x="380" y="1329"/>
      <point x="308" y="1277"/>
      <point x="308" y="1230" type="qcurve"/>
      <point x="143" y="1243" type="line"/>
      <point x="142" y="1249" type="line"/>
      <point x="136" y="1347"/>
      <point x="306" y="1477"/>
      <point x="446" y="1477" type="qcurve" smooth="yes"/>
      <point x="580" y="1477"/>
      <point x="737" y="1335"/>
      <point x="737" y="1201" type="qcurve" smooth="yes"/>
      <point x="737" y="887" type="line" smooth="yes"/>
      <point x="737" y="836"/>
      <point x="749" y="748"/>
      <point x="763" y="706" type="qcurve"/>
    </contour>
    <contour>
      <point x="386" y="836" type="qcurve" smooth="yes"/>
      <point x="437" y="836"/>
      <point x="545" y="896"/>
      <point x="562" y="931" type="qcurve"/>
      <point x="562" y="1034" type="line"/>
      <point x="426" y="1034" type="line" smooth="yes"/>
      <point x="352" y="1034"/>
      <point x="269" y="970"/>
      <point x="269" y="924" type="qcurve" smooth="yes"/>
      <point x="269" y="881"/>
      <point x="327" y="836"/>
    </contour>
  </outline>
</glyph>
<glyph name="registered" format="2">
  <advance width="1566"/>
  <unicode hex="00AE"/>
  <outline>
    <contour>
      <point x="74" y="729" type="qcurve" smooth="yes"/>
      <point x="74" y="1044"/>
      <point x="488" y="1476"/>
      <point x="784" y="1476" type="qcurve" smooth="yes"/>
      <point x="1079" y="1476"/>
      <point x="1494" y="1044"/>
      <point x="1494" y="729" type="qcurve" smooth="yes"/>
      <point x="1494" y="413"/>
      <point x="1078" y="-21"/>
      <point x="784" y="-21" type="qcurve" smooth="yes"/>
      <point x="488" y="-21"/>
      <point x="74" y="413"/>
    </contour>
    <contour>
      <point x="196" y="729" type="qcurve" smooth="yes"/>
      <point x="196" y="465"/>
      <point x="539" y="104"/>
      <point x="784" y="104" type="qcurve" smooth="yes"/>
      <point x="1028" y="104"/>
      <point x="1371" y="465"/>
      <point x="1371" y="729" type="qcurve" smooth="yes"/>
      <point x="1371" y="992"/>
      <point x="1028" y="1351"/>
      <point x="784" y="1351" type="qcurve" smooth="yes"/>
      <point x="538" y="1351"/>
      <point x="196" y="992"/>
    </contour>
    <contour>
      <point x="640" y="653" type="line"/>
      <point x="640" y="316" type="line"/>
      <point x="489" y="316" type="line"/>
      <point x="489" y="1166" type="line"/>
      <point x="770" y="1166" type="line" smooth="yes"/>
      <point x="921" y="1166"/>
      <point x="1095" y="1030"/>
      <point x="1095" y="904" type="qcurve" smooth="yes"/>
      <point x="1095" y="846"/>
      <point x="1037" y="759"/>
      <point x="981" y="728" type="qcurve"/>
      <point x="1039" y="698"/>
      <point x="1092" y="589"/>
      <point x="1092" y="515" type="qcurve" smooth="yes"/>
      <point x="1092" y="459" type="line" smooth="yes"/>
      <point x="1092" y="418"/>
      <point x="1099" y="353"/>
      <point x="1109" y="332" type="qcurve"/>
      <point x="1109" y="316" type="line"/>
      <point x="954" y="316" type="line"/>
      <point x="945" y="337"/>
      <point x="941" y="418"/>
      <point x="941" y="460" type="qcurve" smooth="yes"/>
      <point x="941" y="514" type="line" smooth="yes"/>
      <point x="941" y="585"/>
      <point x="874" y="653"/>
      <point x="798" y="653" type="qcurve" smooth="yes"/>
    </contour>
    <contour>
      <point x="640" y="787" type="line"/>
      <point x="776" y="787" type="line" smooth="yes"/>
      <point x="847" y="787"/>
      <point x="945" y="847"/>
      <point x="945" y="903" type="qcurve" smooth="yes"/>
      <point x="945" y="975"/>
      <point x="867" y="1033"/>
      <point x="770" y="1033" type="qcurve" smooth="yes"/>
      <point x="640" y="1033" type="line"/>
    </contour>
  </outline>
</glyph>
<glyph name="degree" format="2">
  <advance width="745"/>
  <unicode hex="00B0"/>
  <outline>
    <contour>
      <point x="106" y="1203" type="qcurve" smooth="yes"/>
      <point x="106" y="1315"/>
      <point x="266" y="1477"/>
      <point x="378" y="1477" type="qcurve" smooth="yes"/>
      <point x="488" y="1477"/>
      <point x="646" y="1315"/>
      <point x="646" y="1203" type="qcurve" smooth="yes"/>
      <point x="646" y="1089"/>
      <point x="489" y="932"/>
      <point x="378" y="932" type="qcurve" smooth="yes"/>
      <point x="265" y="932"/>
      <point x="106" y="1090"/>
    </contour>
    <contour>
      <point x="253" y="1203" type="qcurve" smooth="yes"/>
      <point x="253" y="1150"/>
      <point x="326" y="1079"/>
      <point x="378" y="1079" type="qcurve" smooth="yes"/>
      <point x="430" y="1079"/>
      <point x="500" y="1149"/>
      <point x="500" y="1203" type="qcurve" smooth="yes"/>
      <point x="500" y="1257"/>
      <point x="429" y="1331"/>
      <point x="378" y="1331" type="qcurve" smooth="yes"/>
      <point x="326" y="1331"/>
      <point x="253" y="1257"/>
    </contour>
  </outline>
</glyph>
<glyph name="twosuperior" format="2">
  <advance width="823"/>
  <unicode hex="00B2"/>
  <outline>
    <contour>
      <point x="729" y="667" type="line"/>
      <point x="106" y="667" type="line"/>
      <point x="106" y="822" type="line"/>
      <point x="416" y="1074" type="line" smooth="yes"/>
      <point x="476" y="1124"/>
      <point x="511" y="1191"/>
      <point x="511" y="1232" type="qcurve" smooth="yes"/>
      <point x="511" y="1271"/>
      <point x="464" y="1324"/>
      <point x="415" y="1324" type="qcurve" smooth="yes"/>
      <point x="360" y="1324"/>
      <point x="304" y="1264"/>
      <point x="304" y="1217" type="qcurve"/>
      <point x="103" y="1217" type="line"/>
      <point x="101" y="1223" type="line"/>
      <point x="95" y="1329"/>
      <point x="272" y="1479"/>
      <point x="420" y="1479" type="qcurve" smooth="yes"/>
      <point x="564" y="1479"/>
      <point x="721" y="1349"/>
      <point x="721" y="1231" type="qcurve" smooth="yes"/>
      <point x="721" y="1149"/>
      <point x="614" y="1024"/>
      <point x="490" y="921" type="qcurve" smooth="yes"/>
      <point x="381" y="828" type="line"/>
      <point x="383" y="822" type="line"/>
      <point x="729" y="822" type="line"/>
    </contour>
  </outline>
</glyph>
<glyph name="threesuperior" format="2">
  <advance width="833"/>
  <unicode hex="00B3"/>
  <outline>
    <contour>
      <point x="401" y="1139" type="line" smooth="yes"/>
      <point x="463" y="1139"/>
      <point x="522" y="1188"/>
      <point x="522" y="1234" type="qcurve" smooth="yes"/>
      <point x="522" y="1272"/>
      <point x="466" y="1323"/>
      <point x="410" y="1323" type="qcurve" smooth="yes"/>
      <point x="359" y="1323"/>
      <point x="303" y="1279"/>
      <point x="303" y="1248" type="qcurve"/>
      <point x="103" y="1248" type="line"/>
      <point x="101" y="1254" type="line"/>
      <point x="95" y="1355"/>
      <point x="271" y="1478"/>
      <point x="405" y="1478" type="qcurve" smooth="yes"/>
      <point x="556" y="1478"/>
      <point x="733" y="1359"/>
      <point x="733" y="1249" type="qcurve" smooth="yes"/>
      <point x="733" y="1194"/>
      <point x="662" y="1103"/>
      <point x="601" y="1078" type="qcurve"/>
      <point x="672" y="1054"/>
      <point x="747" y="959"/>
      <point x="747" y="891" type="qcurve" smooth="yes"/>
      <point x="747" y="779"/>
      <point x="568" y="655"/>
      <point x="415" y="655" type="qcurve" smooth="yes"/>
      <point x="270" y="655"/>
      <point x="82" y="780"/>
      <point x="88" y="893" type="qcurve"/>
      <point x="90" y="899" type="line"/>
      <point x="290" y="899" type="line"/>
      <point x="290" y="857"/>
      <point x="353" y="810"/>
      <point x="413" y="810" type="qcurve" smooth="yes"/>
      <point x="469" y="810"/>
      <point x="537" y="858"/>
      <point x="537" y="902" type="qcurve" smooth="yes"/>
      <point x="537" y="952"/>
      <point x="467" y="1006"/>
      <point x="401" y="1006" type="qcurve" smooth="yes"/>
      <point x="289" y="1006" type="line"/>
      <point x="289" y="1139" type="line"/>
    </contour>
  </outline>
</glyph>
<glyph name="acute" format="2">
  <advance width="644"/>
  <unicode hex="00B4"/>
  <outline>
    <contour>
      <point x="281" y="1478" type="line"/>
      <point x="590" y="1478" type="line"/>
      <point x="592" y="1472" type="line"/>
      <point x="316" y="1212" type="line"/>
      <point x="82" y="1212" type="line"/>
    </contour>
  </outline>
</glyph>
<glyph name="micro" format="1">
  <advance width="1347"/>
  <unicode hex="00B5"/>
  <outline>
    <contour>
      <point x="899" y="68" type="line"/>
      <point x="840.3333333333333" y="9.333333333333343"/>
      <point x="764.6666666666667" y="-21.0"/>
      <point x="674" y="-21" type="curve" smooth="yes"/>
      <point x="606.0" y="-21.0"/>
      <point x="548.6666666666667" y="-7.333333333333332"/>
      <point x="502" y="22" type="curve"/>
      <point x="502" y="-416" type="line"/>
      <point x="211" y="-416" type="line"/>
      <point x="211" y="876" type="line"/>
      <point x="55" y="906" type="line"/>
      <point x="55" y="1082" type="line"/>
      <point x="211" y="1082" type="line"/>
      <point x="502" y="1082" type="line"/>
      <point x="502" y="462" type="line" smooth="yes"/>
      <point x="502.0" y="263.3333333333334"/>
      <point x="561.0" y="206.0"/>
      <point x="681" y="206" type="curve" smooth="yes"/>
      <point x="782.3333333333333" y="206.0"/>
      <point x="847.6666666666667" y="243.33333333333337"/>
      <point x="885" y="314" type="curve"/>
      <point x="885" y="876" type="line"/>
      <point x="729" y="906" type="line"/>
      <point x="729" y="1082" type="line"/>
      <point x="1176" y="1082" type="line"/>
      <point x="1176" y="205" type="line"/>
      <point x="1317" y="175" type="line"/>
      <point x="1317" y="0" type="line"/>
      <point x="905" y="0" type="line"/>
    </contour>
  </outline>
</glyph>
<glyph name="mu" format="2">
  <advance width="1347"/>
  <unicode hex="00B5"/>
  <outline>
    <contour>
      <point x="899" y="68" type="line"/>
      <point x="855" y="24"/>
      <point x="742" y="-21"/>
      <point x="674" y="-21" type="qcurve" smooth="yes"/>
      <point x="623" y="-21"/>
      <point x="537" y="0"/>
      <point x="502" y="22" type="qcurve"/>
      <point x="502" y="-416" type="line"/>
      <point x="211" y="-416" type="line"/>
      <point x="211" y="876" type="line"/>
      <point x="55" y="906" type="line"/>
      <point x="55" y="1082" type="line"/>
      <point x="211" y="1082" type="line"/>
      <point x="502" y="1082" type="line"/>
      <point x="502" y="462" type="line" smooth="yes"/>
      <point x="502" y="313"/>
      <point x="591" y="206"/>
      <point x="681" y="206" type="qcurve" smooth="yes"/>
      <point x="757" y="206"/>
      <point x="857" y="261"/>
      <point x="885" y="314" type="qcurve"/>
      <point x="885" y="876" type="line"/>
      <point x="729" y="906" type="line"/>
      <point x="729" y="1082" type="line"/>
      <point x="1176" y="1082" type="line"/>
      <point x="1176" y="205" type="line"/>
      <point x="1317" y="175" type="line"/>
      <point x="1317" y="0" type="line"/>
      <point x="905" y="0" type="line"/>
    </contour>
  </outline>
</glyph>
<glyph name="paragraph" format="1">
  <advance width="1127"/>
  <unicode hex="00B6"/>
  <outline>
    <contour>
      <point x="473" y="175" type="line"/>
      <point x="629" y="205" type="line"/>
      <point x="629" y="520" type="line"/>
      <point x="546" y="520" type="line" smooth="yes"/>
      <point x="235.33333333333337" y="520.0"/>
      <point x="54.0" y="709.3333333333335"/>
      <point x="54" y="988" type="curve" smooth="yes"/>
      <point x="54.0" y="1264.0"/>
      <point x="235.33333333333331" y="1456.0"/>
      <point x="546" y="1456" type="curve" smooth="yes"/>
      <point x="921" y="1456" type="line"/>
      <point x="921" y="205" type="line"/>
      <point x="1076" y="175" type="line"/>
      <point x="1076" y="0" type="line"/>
      <point x="473" y="0" type="line"/>
    </contour>
    <contour>
      <point x="1076" y="1456" type="line"/>
      <point x="1076" y="1280" type="line"/>
      <point x="921" y="1250" type="line"/>
      <point x="921" y="1456" type="line"/>
    </contour>
  </outline>
</glyph>
<glyph name="periodcentered" format="1">
  <advance width="553"/>
  <unicode hex="00B7"/>
  <outline>
    <contour>
      <point x="437" y="568" type="line"/>
      <point x="145" y="568" type="line"/>
      <point x="145" y="828" type="line"/>
      <point x="437" y="828" type="line"/>
    </contour>
  </outline>
</glyph>
<glyph name="cedilla" format="2">
  <advance width="500"/>
  <unicode hex="00B8"/>
  <outline>
    <contour>
      <point x="333" y="6" type="line"/>
      <point x="322" y="-51" type="line"/>
      <point x="386" y="-62"/>
      <point x="472" y="-144"/>
      <point x="472" y="-224" type="qcurve" smooth="yes"/>
      <point x="472" y="-331"/>
      <point x="289" y="-459"/>
      <point x="121" y="-459" type="qcurve"/>
      <point x="114" y="-298" type="line"/>
      <point x="165" y="-298"/>
      <point x="225" y="-257"/>
      <point x="225" y="-215" type="qcurve" smooth="yes"/>
      <point x="225" y="-174"/>
      <point x="161" y="-141"/>
      <point x="83" y="-136" type="qcurve"/>
      <point x="114" y="6" type="line"/>
    </contour>
  </outline>
</glyph>
<glyph name="onesuperior" format="1">
  <advance width="536"/>
  <unicode hex="00B9"/>
  <outline>
    <contour>
      <point x="439" y="665" type="line"/>
      <point x="229" y="665" type="line"/>
      <point x="229" y="1295" type="line"/>
      <point x="102" y="1295" type="line"/>
      <point x="102" y="1454" type="line"/>
      <point x="439" y="1477" type="line"/>
    </contour>
  </outline>
</glyph>
<glyph name="ordmasculine" format="2">
  <advance width="914"/>
  <unicode hex="00BA"/>
  <outline>
    <contour>
      <point x="109" y="1142" type="line" smooth="yes"/>
      <point x="109" y="1290"/>
      <point x="297" y="1477"/>
      <point x="455" y="1477" type="qcurve" smooth="yes"/>
      <point x="613" y="1477"/>
      <point x="802" y="1290"/>
      <point x="802" y="1142" type="qcurve" smooth="yes"/>
      <point x="802" y="1025" type="line" smooth="yes"/>
      <point x="802" y="876"/>
      <point x="614" y="691"/>
      <point x="457" y="691" type="qcurve" smooth="yes"/>
      <point x="298" y="691"/>
      <point x="109" y="876"/>
      <point x="109" y="1025" type="qcurve" smooth="yes"/>
    </contour>
    <contour>
      <point x="284" y="1025" type="line" smooth="yes"/>
      <point x="284" y="940"/>
      <point x="372" y="837"/>
      <point x="457" y="837" type="qcurve" smooth="yes"/>
      <point x="539" y="837"/>
      <point x="627" y="940"/>
      <point x="627" y="1025" type="qcurve" smooth="yes"/>
      <point x="627" y="1142" type="line" smooth="yes"/>
      <point x="627" y="1225"/>
      <point x="538" y="1329"/>
      <point x="455" y="1329" type="qcurve" smooth="yes"/>
      <point x="371" y="1329"/>
      <point x="284" y="1225"/>
      <point x="284" y="1142" type="qcurve" smooth="yes"/>
    </contour>
  </outline>
</glyph>
<glyph name="questiondown" format="2">
  <advance width="945"/>
  <unicode hex="00BF"/>
  <outline>
    <contour>
      <point x="696" y="668" type="line"/>
      <point x="694" y="527"/>
      <point x="613" y="396"/>
      <point x="494" y="304" type="qcurve" smooth="yes"/>
      <point x="422" y="246"/>
      <point x="337" y="111"/>
      <point x="337" y="29" type="qcurve" smooth="yes"/>
      <point x="337" y="-61"/>
      <point x="434" y="-165"/>
      <point x="525" y="-165" type="qcurve" smooth="yes"/>
      <point x="598" y="-165"/>
      <point x="700" y="-79"/>
      <point x="703" y="6" type="qcurve"/>
      <point x="986" y="6" type="line"/>
      <point x="988" y="0" type="line"/>
      <point x="990" y="-191"/>
      <point x="731" y="-394"/>
      <point x="525" y="-394" type="qcurve" smooth="yes"/>
      <point x="299" y="-394"/>
      <point x="45" y="-168"/>
      <point x="45" y="27" type="qcurve" smooth="yes"/>
      <point x="45" y="152"/>
      <point x="193" y="368"/>
      <point x="306" y="443" type="qcurve"/>
      <point x="366" y="488"/>
      <point x="405" y="583"/>
      <point x="405" y="668" type="qcurve"/>
    </contour>
    <contour>
      <point x="403" y="1082" type="line"/>
      <point x="697" y="1082" type="line"/>
      <point x="697" y="831" type="line"/>
      <point x="403" y="831" type="line"/>
    </contour>
  </outline>
</glyph>
<glyph name="AE" format="1">
  <advance width="2047"/>
  <unicode hex="00C6"/>
  <outline>
    <contour>
      <point x="66" y="175" type="line"/>
      <point x="202" y="195" type="line"/>
      <point x="880" y="1456" type="line"/>
      <point x="1897" y="1456" type="line"/>
      <point x="1897" y="1087" type="line"/>
      <point x="1674" y="1087" type="line"/>
      <point x="1663" y="1228" type="line"/>
      <point x="1301" y="1228" type="line"/>
      <point x="1317" y="862" type="line"/>
      <point x="1816" y="862" type="line"/>
      <point x="1816" y="635" type="line"/>
      <point x="1326" y="635" type="line"/>
      <point x="1343" y="227" type="line"/>
      <point x="1724" y="227" type="line"/>
      <point x="1736" y="368" type="line"/>
      <point x="1958" y="368" type="line"/>
      <point x="1958" y="0" type="line"/>
      <point x="906" y="0" type="line"/>
      <point x="906" y="175" type="line"/>
      <point x="1052" y="203" type="line"/>
      <point x="1046" y="354" type="line"/>
      <point x="616" y="354" type="line"/>
      <point x="533" y="189" type="line"/>
      <point x="617" y="175" type="line"/>
      <point x="617" y="0" type="line"/>
      <point x="66" y="0" type="line"/>
    </contour>
    <contour>
      <point x="730" y="582" type="line"/>
      <point x="1036" y="582" type="line"/>
      <point x="1013" y="1136" type="line"/>
      <point x="1008" y="1137" type="line"/>
    </contour>
  </outline>
</glyph>
<glyph name="Eth" format="2">
  <advance width="1441"/>
  <unicode hex="00D0"/>
  <outline>
    <contour>
      <point x="741" y="1456" type="line" smooth="yes"/>
      <point x="1008" y="1456"/>
      <point x="1354" y="1115"/>
      <point x="1354" y="848" type="qcurve" smooth="yes"/>
      <point x="1354" y="607" type="line" smooth="yes"/>
      <point x="1354" y="339"/>
      <point x="1008" y="0"/>
      <point x="741" y="0" type="qcurve" smooth="yes"/>
      <point x="86" y="0" type="line"/>
      <point x="86" y="175" type="line"/>
      <point x="241" y="205" type="line"/>
      <point x="241" y="665" type="line"/>
      <point x="46" y="665" type="line"/>
      <point x="46" y="820" type="line"/>
      <point x="241" y="820" type="line"/>
      <point x="241" y="1250" type="line"/>
      <point x="86" y="1280" type="line"/>
      <point x="86" y="1456" type="line"/>
    </contour>
    <contour>
      <point x="747" y="665" type="line"/>
      <point x="533" y="665" type="line"/>
      <point x="533" y="224" type="line"/>
      <point x="726" y="224" type="line" smooth="yes"/>
      <point x="883" y="224"/>
      <point x="1061" y="436"/>
      <point x="1061" y="607" type="qcurve" smooth="yes"/>
      <point x="1061" y="850" type="line" smooth="yes"/>
      <point x="1061" y="1019"/>
      <point x="883" y="1231"/>
      <point x="726" y="1231" type="qcurve" smooth="yes"/>
      <point x="533" y="1231" type="line"/>
      <point x="533" y="820" type="line"/>
      <point x="747" y="820" type="line"/>
    </contour>
  </outline>
</glyph>
<glyph name="Oslash" format="2">
  <advance width="1400"/>
  <unicode hex="00D8"/>
  <outline>
    <contour>
      <point x="1392" y="717" type="line" smooth="yes"/>
      <point x="1392" y="397"/>
      <point x="1026" y="-21"/>
      <point x="730" y="-21" type="qcurve" smooth="yes"/>
      <point x="636" y="-21"/>
      <point x="468" y="24"/>
      <point x="397" y="68" type="qcurve"/>
      <point x="302" y="-95" type="line"/>
      <point x="158" y="-95" type="line"/>
      <point x="297" y="144" type="line"/>
      <point x="189" y="244"/>
      <point x="72" y="540"/>
      <point x="72" y="717" type="qcurve" smooth="yes"/>
      <point x="72" y="739" type="line" smooth="yes"/>
      <point x="72" y="1057"/>
      <point x="434" y="1477"/>
      <point x="729" y="1477" type="qcurve" smooth="yes"/>
      <point x="812" y="1477"/>
      <point x="964" y="1440"/>
      <point x="1032" y="1405" type="qcurve"/>
      <point x="1098" y="1518" type="line"/>
      <point x="1242" y="1518" type="line"/>
      <point x="1136" y="1337" type="line"/>
      <point x="1258" y="1236"/>
      <point x="1392" y="925"/>
      <point x="1392" y="739" type="qcurve" smooth="yes"/>
    </contour>
    <contour>
      <point x="1101" y="741" type="line" smooth="yes"/>
      <point x="1101" y="853"/>
      <point x="1053" y="1041"/>
      <point x="1007" y="1103" type="qcurve"/>
      <point x="1001" y="1104" type="line"/>
      <point x="519" y="277" type="line"/>
      <point x="560" y="242"/>
      <point x="665" y="206"/>
      <point x="730" y="206" type="qcurve" smooth="yes"/>
      <point x="915" y="206"/>
      <point x="1101" y="487"/>
      <point x="1101" y="717" type="qcurve" smooth="yes"/>
    </contour>
    <contour>
      <point x="364" y="717" type="line" smooth="yes"/>
      <point x="364" y="617"/>
      <point x="398" y="448"/>
      <point x="433" y="389" type="qcurve"/>
      <point x="439" y="388" type="line"/>
      <point x="912" y="1200" type="line"/>
      <point x="873" y="1223"/>
      <point x="781" y="1249"/>
      <point x="729" y="1249" type="qcurve" smooth="yes"/>
      <point x="545" y="1249"/>
      <point x="364" y="969"/>
      <point x="364" y="741" type="qcurve" smooth="yes"/>
    </contour>
  </outline>
</glyph>
<glyph name="Thorn" format="2">
  <advance width="1306"/>
  <unicode hex="00DE"/>
  <outline>
    <contour>
      <point x="67" y="175" type="line"/>
      <point x="223" y="205" type="line"/>
      <point x="223" y="1250" type="line"/>
      <point x="67" y="1280" type="line"/>
      <point x="67" y="1456" type="line"/>
      <point x="515" y="1456" type="line"/>
      <point x="671" y="1456" type="line"/>
      <point x="671" y="1280" type="line"/>
      <point x="515" y="1250" type="line"/>
      <point x="515" y="1186" type="line"/>
      <point x="736" y="1186" type="line" smooth="yes"/>
      <point x="990" y="1186"/>
      <point x="1274" y="938"/>
      <point x="1274" y="738" type="qcurve" smooth="yes"/>
      <point x="1274" y="537"/>
      <point x="990" y="289"/>
      <point x="736" y="289" type="qcurve" smooth="yes"/>
      <point x="515" y="289" type="line"/>
      <point x="515" y="205" type="line"/>
      <point x="671" y="175" type="line"/>
      <point x="671" y="0" type="line"/>
      <point x="67" y="0" type="line"/>
    </contour>
    <contour>
      <point x="515" y="961" type="line"/>
      <point x="515" y="514" type="line"/>
      <point x="736" y="514" type="line" smooth="yes"/>
      <point x="859" y="514"/>
      <point x="982" y="641"/>
      <point x="982" y="736" type="qcurve" smooth="yes"/>
      <point x="982" y="831"/>
      <point x="859" y="961"/>
      <point x="736" y="961" type="qcurve" smooth="yes"/>
    </contour>
  </outline>
</glyph>
<glyph name="germandbls" format="2">
  <advance width="1321"/>
  <unicode hex="00DF"/>
  <outline>
    <contour>
      <point x="486" y="0" type="line"/>
      <point x="39" y="0" type="line"/>
      <point x="39" y="175" type="line"/>
      <point x="194" y="205" type="line"/>
      <point x="194" y="1101" type="line" smooth="yes"/>
      <point x="194" y="1327"/>
      <point x="452" y="1573"/>
      <point x="675" y="1573" type="qcurve" smooth="yes"/>
      <point x="856" y="1573"/>
      <point x="1093" y="1382"/>
      <point x="1093" y="1206" type="qcurve" smooth="yes"/>
      <point x="1093" y="1098"/>
      <point x="987" y="903"/>
      <point x="987" y="835" type="qcurve" smooth="yes"/>
      <point x="987" y="779"/>
      <point x="1286" y="496"/>
      <point x="1286" y="356" type="qcurve" smooth="yes"/>
      <point x="1286" y="167"/>
      <point x="1056" y="-21"/>
      <point x="839" y="-21" type="qcurve" smooth="yes"/>
      <point x="762" y="-21"/>
      <point x="613" y="9"/>
      <point x="576" y="35" type="qcurve"/>
      <point x="630" y="258" type="line"/>
      <point x="666" y="236"/>
      <point x="773" y="203"/>
      <point x="833" y="203" type="qcurve" smooth="yes"/>
      <point x="909" y="203"/>
      <point x="995" y="279"/>
      <point x="995" y="344" type="qcurve" smooth="yes"/>
      <point x="995" y="415"/>
      <point x="695" y="684"/>
      <point x="695" y="826" type="qcurve" smooth="yes"/>
      <point x="695" y="916"/>
      <point x="805" y="1116"/>
      <point x="805" y="1191" type="qcurve" smooth="yes"/>
      <point x="805" y="1262"/>
      <point x="726" y="1349"/>
      <point x="656" y="1349" type="qcurve" smooth="yes"/>
      <point x="580" y="1349"/>
      <point x="486" y="1214"/>
      <point x="486" y="1097" type="qcurve" smooth="yes"/>
    </contour>
  </outline>
</glyph>
<glyph name="ae" format="2">
  <advance width="1784"/>
  <unicode hex="00E6"/>
  <outline>
    <contour>
      <point x="1273" y="-21" type="qcurve" smooth="yes"/>
      <point x="1144" y="-21"/>
      <point x="943" y="60"/>
      <point x="876" y="136" type="qcurve"/>
      <point x="816" y="68"/>
      <point x="613" y="-21"/>
      <point x="474" y="-21" type="qcurve" smooth="yes"/>
      <point x="282" y="-21"/>
      <point x="73" y="160"/>
      <point x="73" y="317" type="qcurve" smooth="yes"/>
      <point x="73" y="476"/>
      <point x="327" y="648"/>
      <point x="570" y="648" type="qcurve" smooth="yes"/>
      <point x="751" y="648" type="line"/>
      <point x="751" y="707" type="line" smooth="yes"/>
      <point x="751" y="786"/>
      <point x="669" y="877"/>
      <point x="595" y="877" type="qcurve" smooth="yes"/>
      <point x="514" y="877"/>
      <point x="422" y="802"/>
      <point x="422" y="746" type="qcurve"/>
      <point x="139" y="764" type="line"/>
      <point x="137" y="770" type="line"/>
      <point x="131" y="914"/>
      <point x="386" y="1102"/>
      <point x="598" y="1102" type="qcurve" smooth="yes"/>
      <point x="700" y="1102"/>
      <point x="868" y="1047"/>
      <point x="927" y="995" type="qcurve"/>
      <point x="988" y="1047"/>
      <point x="1151" y="1102"/>
      <point x="1250" y="1102" type="qcurve" smooth="yes"/>
      <point x="1462" y="1102"/>
      <point x="1704" y="838"/>
      <point x="1704" y="612" type="qcurve" smooth="yes"/>
      <point x="1704" y="454" type="line"/>
      <point x="1054" y="454" type="line"/>
      <point x="1052" y="448" type="line"/>
      <point x="1056" y="336"/>
      <point x="1180" y="203"/>
      <point x="1304" y="203" type="qcurve" smooth="yes"/>
      <point x="1396" y="203"/>
      <point x="1520" y="243"/>
      <point x="1598" y="284" type="qcurve"/>
      <point x="1675" y="100" type="line"/>
      <point x="1613" y="52"/>
      <point x="1399" y="-21"/>
    </contour>
    <contour>
      <point x="530" y="185" type="qcurve" smooth="yes"/>
      <point x="588" y="185"/>
      <point x="714" y="246"/>
      <point x="751" y="288" type="qcurve"/>
      <point x="751" y="464" type="line"/>
      <point x="572" y="464" type="line" smooth="yes"/>
      <point x="474" y="464"/>
      <point x="365" y="376"/>
      <point x="365" y="313" type="qcurve" smooth="yes"/>
      <point x="365" y="254"/>
      <point x="448" y="185"/>
    </contour>
    <contour>
      <point x="1250" y="877" type="qcurve" smooth="yes"/>
      <point x="1155" y="877"/>
      <point x="1061" y="754"/>
      <point x="1054" y="649" type="qcurve"/>
      <point x="1056" y="644" type="line"/>
      <point x="1418" y="644" type="line"/>
      <point x="1418" y="672" type="line" smooth="yes"/>
      <point x="1418" y="766"/>
      <point x="1333" y="877"/>
    </contour>
  </outline>
</glyph>
<glyph name="eth" format="2">
  <advance width="1217"/>
  <unicode hex="00F0"/>
  <outline>
    <contour>
      <point x="918" y="1282" type="line"/>
      <point x="1028" y="1165"/>
      <point x="1148" y="850"/>
      <point x="1148" y="661" type="qcurve" smooth="yes"/>
      <point x="1148" y="585" type="line" smooth="yes"/>
      <point x="1148" y="318"/>
      <point x="833" y="-21"/>
      <point x="598" y="-21" type="qcurve" smooth="yes"/>
      <point x="360" y="-21"/>
      <point x="60" y="260"/>
      <point x="60" y="468" type="qcurve" smooth="yes"/>
      <point x="60" y="694"/>
      <point x="328" y="967"/>
      <point x="559" y="967" type="qcurve" smooth="yes"/>
      <point x="634" y="967"/>
      <point x="770" y="923"/>
      <point x="820" y="884" type="qcurve"/>
      <point x="824" y="888" type="line"/>
      <point x="804" y="963"/>
      <point x="726" y="1093"/>
      <point x="673" y="1146" type="qcurve"/>
      <point x="442" y="1018" type="line"/>
      <point x="364" y="1131" type="line"/>
      <point x="554" y="1236" type="line"/>
      <point x="519" y="1255"/>
      <point x="446" y="1286"/>
      <point x="409" y="1299" type="qcurve"/>
      <point x="501" y="1517" type="line"/>
      <point x="586" y="1496"/>
      <point x="742" y="1426"/>
      <point x="810" y="1377" type="qcurve"/>
      <point x="1018" y="1493" type="line"/>
      <point x="1095" y="1380" type="line"/>
    </contour>
    <contour>
      <point x="856" y="663" type="line"/>
      <point x="822" y="703"/>
      <point x="693" y="755"/>
      <point x="605" y="755" type="qcurve" smooth="yes"/>
      <point x="484" y="755"/>
      <point x="351" y="597"/>
      <point x="351" y="468" type="qcurve" smooth="yes"/>
      <point x="351" y="357"/>
      <point x="488" y="203"/>
      <point x="602" y="203" type="qcurve" smooth="yes"/>
      <point x="719" y="203"/>
      <point x="856" y="418"/>
      <point x="856" y="585" type="qcurve" smooth="yes"/>
    </contour>
  </outline>
</glyph>
<glyph name="divide" format="1">
  <advance width="1133"/>
  <unicode hex="00F7"/>
  <outline>
    <contour>
      <point x="1084" y="573" type="line"/>
      <point x="56" y="573" type="line"/>
      <point x="56" y="800" type="line"/>
      <point x="1084" y="800" type="line"/>
    </contour>
    <contour>
      <point x="717" y="973" type="line"/>
      <point x="425" y="973" type="line"/>
      <point x="425" y="1206" type="line"/>
      <point x="717" y="1206" type="line"/>
    </contour>
    <contour>
      <point x="717" y="164" type="line"/>
      <point x="425" y="164" type="line"/>
      <point x="425" y="397" type="line"/>
      <point x="717" y="397" type="line"/>
    </contour>
  </outline>
</glyph>
<glyph name="oslash" format="2">
  <advance width="1178"/>
  <unicode hex="00F8"/>
  <outline>
    <contour>
      <point x="76" y="551" type="line" smooth="yes"/>
      <point x="76" y="793"/>
      <point x="347" y="1102"/>
      <point x="586" y="1102" type="qcurve" smooth="yes"/>
      <point x="631" y="1102"/>
      <point x="715" y="1089"/>
      <point x="756" y="1078" type="qcurve"/>
      <point x="823" y="1215" type="line"/>
      <point x="985" y="1215" type="line"/>
      <point x="887" y="1014" type="line"/>
      <point x="988" y="942"/>
      <point x="1097" y="701"/>
      <point x="1097" y="551" type="qcurve" smooth="yes"/>
      <point x="1097" y="530" type="line" smooth="yes"/>
      <point x="1097" y="286"/>
      <point x="826" y="-21"/>
      <point x="588" y="-21" type="qcurve" smooth="yes"/>
      <point x="535" y="-21"/>
      <point x="439" y="-5"/>
      <point x="396" y="10" type="qcurve"/>
      <point x="322" y="-141" type="line"/>
      <point x="160" y="-141" type="line"/>
      <point x="268" y="80" type="line"/>
      <point x="174" y="152"/>
      <point x="76" y="385"/>
      <point x="76" y="530" type="qcurve" smooth="yes"/>
    </contour>
    <contour>
      <point x="806" y="551" type="line" smooth="yes"/>
      <point x="806" y="613"/>
      <point x="786" y="720"/>
      <point x="767" y="756" type="qcurve"/>
      <point x="761" y="756" type="line"/>
      <point x="499" y="221" type="line"/>
      <point x="517" y="212"/>
      <point x="562" y="203"/>
      <point x="588" y="203" type="qcurve" smooth="yes"/>
      <point x="701" y="203"/>
      <point x="806" y="383"/>
      <point x="806" y="530" type="qcurve" smooth="yes"/>
    </contour>
    <contour>
      <point x="368" y="530" type="line" smooth="yes"/>
      <point x="368" y="475"/>
      <point x="381" y="383"/>
      <point x="395" y="352" type="qcurve"/>
      <point x="400" y="351" type="line"/>
      <point x="653" y="867" type="line"/>
      <point x="637" y="871"/>
      <point x="603" y="877"/>
      <point x="586" y="877" type="qcurve" smooth="yes"/>
      <point x="472" y="877"/>
      <point x="368" y="695"/>
      <point x="368" y="551" type="qcurve" smooth="yes"/>
    </contour>
  </outline>
</glyph>
<glyph name="thorn" format="2">
  <advance width="1246"/>
  <unicode hex="00FE"/>
  <outline>
    <contour>
      <point x="34" y="1384" type="line"/>
      <point x="34" y="1560" type="line"/>
      <point x="481" y="1560" type="line"/>
      <point x="481" y="969" type="line"/>
      <point x="528" y="1033"/>
      <point x="658" y="1102"/>
      <point x="743" y="1102" type="qcurve" smooth="yes"/>
      <point x="944" y="1102"/>
      <point x="1166" y="788"/>
      <point x="1166" y="532" type="qcurve" smooth="yes"/>
      <point x="1166" y="511" type="line" smooth="yes"/>
      <point x="1166" y="271"/>
      <point x="944" y="-21"/>
      <point x="745" y="-21" type="qcurve" smooth="yes"/>
      <point x="660" y="-21"/>
      <point x="528" y="42"/>
      <point x="481" y="103" type="qcurve"/>
      <point x="481" y="-210" type="line"/>
      <point x="622" y="-240" type="line"/>
      <point x="622" y="-416" type="line"/>
      <point x="49" y="-416" type="line"/>
      <point x="49" y="-240" type="line"/>
      <point x="190" y="-210" type="line"/>
      <point x="190" y="1354" type="line"/>
    </contour>
    <contour>
      <point x="874" y="532" type="line" smooth="yes"/>
      <point x="874" y="685"/>
      <point x="772" y="875"/>
      <point x="667" y="875" type="qcurve" smooth="yes"/>
      <point x="601" y="875"/>
      <point x="508" y="821"/>
      <point x="481" y="771" type="qcurve"/>
      <point x="481" y="297" type="line"/>
      <point x="508" y="251"/>
      <point x="601" y="203"/>
      <point x="669" y="203" type="qcurve" smooth="yes"/>
      <point x="775" y="203"/>
      <point x="874" y="369"/>
      <point x="874" y="511" type="qcurve" smooth="yes"/>
    </contour>
  </outline>
</glyph>
<glyph name="Dcroat" format="1">
  <advance width="1441"/>
  <unicode hex="0110"/>
  <outline>
    <contour>
      <point x="741" y="1456" type="line" smooth="yes"/>
      <point x="1097.0" y="1456.0"/>
      <point x="1354.0" y="1204.0"/>
      <point x="1354" y="848" type="curve" smooth="yes"/>
      <point x="1354" y="607" type="line" smooth="yes"/>
      <point x="1354.0" y="249.66666666666674"/>
      <point x="1097.0" y="0.0"/>
      <point x="741" y="0" type="curve" smooth="yes"/>
      <point x="86" y="0" type="line"/>
      <point x="86" y="175" type="line"/>
      <point x="241" y="205" type="line"/>
      <point x="241" y="665" type="line"/>
      <point x="46" y="665" type="line"/>
      <point x="46" y="820" type="line"/>
      <point x="241" y="820" type="line"/>
      <point x="241" y="1250" type="line"/>
      <point x="86" y="1280" type="line"/>
      <point x="86" y="1456" type="line"/>
    </contour>
    <contour>
      <point x="747" y="665" type="line"/>
      <point x="533" y="665" type="line"/>
      <point x="533" y="224" type="line"/>
      <point x="726" y="224" type="line" smooth="yes"/>
      <point x="935.3333333333331" y="224.0"/>
      <point x="1061.0" y="378.9999999999999"/>
      <point x="1061" y="607" type="curve" smooth="yes"/>
      <point x="1061" y="850" type="line" smooth="yes"/>
      <point x="1061.0" y="1075.3333333333335"/>
      <point x="935.3333333333331" y="1231.0"/>
      <point x="726" y="1231" type="curve" smooth="yes"/>
      <point x="533" y="1231" type="line"/>
      <point x="533" y="820" type="line"/>
      <point x="747" y="820" type="line"/>
    </contour>
  </outline>
</glyph>
<glyph name="dcroat" format="2">
  <advance width="1242"/>
  <unicode hex="0111"/>
  <outline>
    <contour>
      <point x="767" y="132" type="line"/>
      <point x="716" y="57"/>
      <point x="577" y="-21"/>
      <point x="488" y="-21" type="qcurve" smooth="yes"/>
      <point x="288" y="-21"/>
      <point x="67" y="271"/>
      <point x="67" y="511" type="qcurve" smooth="yes"/>
      <point x="67" y="532" type="line" smooth="yes"/>
      <point x="67" y="788"/>
      <point x="289" y="1102"/>
      <point x="490" y="1102" type="qcurve" smooth="yes"/>
      <point x="571" y="1102"/>
      <point x="701" y="1031"/>
      <point x="750" y="966" type="qcurve"/>
      <point x="750" y="1132" type="line"/>
      <point x="539" y="1132" type="line"/>
      <point x="539" y="1287" type="line"/>
      <point x="750" y="1287" type="line"/>
      <point x="750" y="1354" type="line"/>
      <point x="594" y="1384" type="line"/>
      <point x="594" y="1560" type="line"/>
      <point x="1042" y="1560" type="line"/>
      <point x="1042" y="1287" type="line"/>
      <point x="1240" y="1287" type="line"/>
      <point x="1240" y="1132" type="line"/>
      <point x="1042" y="1132" type="line"/>
      <point x="1042" y="205" type="line"/>
      <point x="1182" y="175" type="line"/>
      <point x="1182" y="0" type="line"/>
      <point x="789" y="0" type="line"/>
    </contour>
    <contour>
      <point x="359" y="511" type="line" smooth="yes"/>
      <point x="359" y="369"/>
      <point x="454" y="206"/>
      <point x="562" y="206" type="qcurve" smooth="yes"/>
      <point x="626" y="206"/>
      <point x="720" y="258"/>
      <point x="750" y="307" type="qcurve"/>
      <point x="750" y="766" type="line"/>
      <point x="720" y="818"/>
      <point x="627" y="875"/>
      <point x="564" y="875" type="qcurve" smooth="yes"/>
      <point x="457" y="875"/>
      <point x="359" y="685"/>
      <point x="359" y="532" type="qcurve" smooth="yes"/>
    </contour>
  </outline>
</glyph>
<glyph name="hbar" format="2">
  <advance width="1332"/>
  <unicode hex="0127"/>
  <outline>
    <contour>
      <point x="77" y="175" type="line"/>
      <point x="218" y="205" type="line"/>
      <point x="218" y="1120" type="line"/>
      <point x="9" y="1120" type="line"/>
      <point x="9" y="1275" type="line"/>
      <point x="218" y="1275" type="line"/>
      <point x="218" y="1354" type="line"/>
      <point x="62" y="1384" type="line"/>
      <point x="62" y="1560" type="line"/>
      <point x="509" y="1560" type="line"/>
      <point x="509" y="1275" type="line"/>
      <point x="710" y="1275" type="line"/>
      <point x="710" y="1120" type="line"/>
      <point x="509" y="1120" type="line"/>
      <point x="509" y="944" type="line"/>
      <point x="560" y="1019"/>
      <point x="708" y="1102"/>
      <point x="798" y="1102" type="qcurve" smooth="yes"/>
      <point x="968" y="1102"/>
      <point x="1161" y="877"/>
      <point x="1161" y="642" type="qcurve" smooth="yes"/>
      <point x="1161" y="205" type="line"/>
      <point x="1301" y="175" type="line"/>
      <point x="1301" y="0" type="line"/>
      <point x="743" y="0" type="line"/>
      <point x="743" y="175" type="line"/>
      <point x="869" y="205" type="line"/>
      <point x="869" y="644" type="line" smooth="yes"/>
      <point x="869" y="770"/>
      <point x="780" y="875"/>
      <point x="692" y="875" type="qcurve" smooth="yes"/>
      <point x="631" y="875"/>
      <point x="540" y="831"/>
      <point x="509" y="791" type="qcurve"/>
      <point x="509" y="205" type="line"/>
      <point x="635" y="175" type="line"/>
      <point x="635" y="0" type="line"/>
      <point x="77" y="0" type="line"/>
    </contour>
  </outline>
</glyph>
<glyph name="idotless" format="1">
  <advance width="686"/>
  <unicode hex="0131"/>
  <outline>
    <contour>
      <point x="70" y="906" type="line"/>
      <point x="70" y="1082" type="line"/>
      <point x="518" y="1082" type="line"/>
      <point x="518" y="205" type="line"/>
      <point x="658" y="175" type="line"/>
      <point x="658" y="0" type="line"/>
      <point x="85" y="0" type="line"/>
      <point x="85" y="175" type="line"/>
      <point x="226" y="205" type="line"/>
      <point x="226" y="876" type="line"/>
    </contour>
  </outline>
</glyph>
<glyph name="kgreenlandic" format="1">
  <advance width="1270"/>
  <unicode hex="0138"/>
  <outline>
    <contour>
      <point x="47" y="175" type="line"/>
      <point x="188" y="205" type="line"/>
      <point x="188" y="876" type="line"/>
      <point x="42" y="906" type="line"/>
      <point x="42" y="1082" type="line"/>
      <point x="479" y="1082" type="line"/>
      <point x="479" y="662" type="line"/>
      <point x="574" y="662" type="line"/>
      <point x="736" y="893" type="line"/>
      <point x="640" y="906" type="line"/>
      <point x="640" y="1082" type="line"/>
      <point x="1171" y="1082" type="line"/>
      <point x="1171" y="906" type="line"/>
      <point x="1044" y="877" type="line"/>
      <point x="830" y="603" type="line"/>
      <point x="1099" y="198" type="line"/>
      <point x="1210" y="175" type="line"/>
      <point x="1210" y="0" type="line"/>
      <point x="886" y="0" type="line"/>
      <point x="604" y="453" type="line"/>
      <point x="479" y="453" type="line"/>
      <point x="479" y="205" type="line"/>
      <point x="605" y="175" type="line"/>
      <point x="605" y="0" type="line"/>
      <point x="47" y="0" type="line"/>
    </contour>
  </outline>
</glyph>
<glyph name="Lslash" format="1">
  <advance width="1192"/>
  <unicode hex="0141"/>
  <outline>
    <contour>
      <point x="659" y="1280" type="line"/>
      <point x="503" y="1250" type="line"/>
      <point x="503" y="890" type="line"/>
      <point x="723" y="954" type="line"/>
      <point x="723" y="759" type="line"/>
      <point x="503" y="695" type="line"/>
      <point x="503" y="224" type="line"/>
      <point x="914" y="224" type="line"/>
      <point x="928" y="407" type="line"/>
      <point x="1151" y="407" type="line"/>
      <point x="1151" y="0" type="line"/>
      <point x="56" y="0" type="line"/>
      <point x="56" y="175" type="line"/>
      <point x="211" y="205" type="line"/>
      <point x="211" y="611" type="line"/>
      <point x="73" y="572" type="line"/>
      <point x="73" y="767" type="line"/>
      <point x="211" y="806" type="line"/>
      <point x="211" y="1250" type="line"/>
      <point x="56" y="1280" type="line"/>
      <point x="56" y="1456" type="line"/>
      <point x="659" y="1456" type="line"/>
    </contour>
  </outline>
</glyph>
<glyph name="Eng" format="2">
  <advance width="1584"/>
  <unicode hex="014A"/>
  <outline>
    <contour>
      <point x="68" y="1280" type="line"/>
      <point x="68" y="1456" type="line"/>
      <point x="516" y="1456" type="line"/>
      <point x="1103" y="475" type="line"/>
      <point x="1109" y="476" type="line"/>
      <point x="1109" y="1250" type="line"/>
      <point x="954" y="1280" type="line"/>
      <point x="954" y="1456" type="line"/>
      <point x="1109" y="1456" type="line"/>
      <point x="1556" y="1456" type="line"/>
      <point x="1556" y="1280" type="line"/>
      <point x="1401" y="1250" type="line"/>
      <point x="1401" y="-40" type="line" smooth="yes"/>
      <point x="1401" y="-230"/>
      <point x="1199" y="-437"/>
      <point x="1019" y="-437" type="qcurve" smooth="yes"/>
      <point x="978" y="-437"/>
      <point x="912" y="-429"/>
      <point x="875" y="-420" type="qcurve"/>
      <point x="889" y="-199" type="line"/>
      <point x="912" y="-205"/>
      <point x="961" y="-212"/>
      <point x="988" y="-212" type="qcurve" smooth="yes"/>
      <point x="1045" y="-212"/>
      <point x="1109" y="-122"/>
      <point x="1109" y="-40" type="qcurve" smooth="yes"/>
      <point x="1109" y="0" type="line"/>
      <point x="522" y="982" type="line"/>
      <point x="516" y="981" type="line"/>
      <point x="516" y="205" type="line"/>
      <point x="671" y="175" type="line"/>
      <point x="671" y="0" type="line"/>
      <point x="68" y="0" type="line"/>
      <point x="68" y="175" type="line"/>
      <point x="224" y="205" type="line"/>
      <point x="224" y="1250" type="line"/>
    </contour>
  </outline>
</glyph>
<glyph name="eng" format="2">
  <advance width="1282"/>
  <unicode hex="014B"/>
  <outline>
    <contour>
      <point x="93" y="175" type="line"/>
      <point x="233" y="205" type="line"/>
      <point x="233" y="876" type="line"/>
      <point x="78" y="906" type="line"/>
      <point x="78" y="1082" type="line"/>
      <point x="504" y="1082" type="line"/>
      <point x="518" y="930" type="line"/>
      <point x="571" y="1011"/>
      <point x="729" y="1102"/>
      <point x="826" y="1102" type="qcurve" smooth="yes"/>
      <point x="989" y="1102"/>
      <point x="1173" y="890"/>
      <point x="1173" y="663" type="qcurve" smooth="yes"/>
      <point x="1173" y="-40" type="line" smooth="yes"/>
      <point x="1173" y="-230"/>
      <point x="971" y="-437"/>
      <point x="792" y="-437" type="qcurve" smooth="yes"/>
      <point x="751" y="-437"/>
      <point x="683" y="-429"/>
      <point x="647" y="-420" type="qcurve"/>
      <point x="661" y="-196" type="line"/>
      <point x="683" y="-201"/>
      <point x="733" y="-208"/>
      <point x="761" y="-208" type="qcurve" smooth="yes"/>
      <point x="819" y="-208"/>
      <point x="881" y="-122"/>
      <point x="881" y="-40" type="qcurve" smooth="yes"/>
      <point x="881" y="662" type="line" smooth="yes"/>
      <point x="881" y="778"/>
      <point x="800" y="875"/>
      <point x="719" y="875" type="qcurve" smooth="yes"/>
      <point x="655" y="875"/>
      <point x="557" y="828"/>
      <point x="525" y="786" type="qcurve"/>
      <point x="525" y="205" type="line"/>
      <point x="665" y="175" type="line"/>
      <point x="665" y="0" type="line"/>
      <point x="93" y="0" type="line"/>
    </contour>
  </outline>
</glyph>
<glyph name="OE" format="2">
  <advance width="1996"/>
  <unicode hex="0152"/>
  <outline>
    <contour>
      <point x="1724" y="640" type="line"/>
      <point x="1231" y="640" type="line"/>
      <point x="1231" y="224" type="line"/>
      <point x="1701" y="224" type="line"/>
      <point x="1714" y="398" type="line"/>
      <point x="1936" y="398" type="line"/>
      <point x="1936" y="0" type="line"/>
      <point x="998" y="0" type="line"/>
      <point x="906" y="-10"/>
      <point x="777" y="-21"/>
      <point x="710" y="-21" type="qcurve" smooth="yes"/>
      <point x="440" y="-21"/>
      <point x="103" y="311"/>
      <point x="103" y="576" type="qcurve" smooth="yes"/>
      <point x="103" y="880" type="line" smooth="yes"/>
      <point x="103" y="1145"/>
      <point x="438" y="1477"/>
      <point x="708" y="1477" type="qcurve" smooth="yes"/>
      <point x="777" y="1477"/>
      <point x="919" y="1465"/>
      <point x="998" y="1456" type="qcurve"/>
      <point x="1934" y="1456" type="line"/>
      <point x="1934" y="1057" type="line"/>
      <point x="1710" y="1057" type="line"/>
      <point x="1697" y="1231" type="line"/>
      <point x="1231" y="1231" type="line"/>
      <point x="1231" y="865" type="line"/>
      <point x="1724" y="865" type="line"/>
    </contour>
    <contour>
      <point x="710" y="204" type="qcurve" smooth="yes"/>
      <point x="768" y="204"/>
      <point x="883" y="213"/>
      <point x="939" y="222" type="qcurve"/>
      <point x="939" y="1233" type="line"/>
      <point x="880" y="1241"/>
      <point x="765" y="1252"/>
      <point x="708" y="1252" type="qcurve" smooth="yes"/>
      <point x="560" y="1252"/>
      <point x="394" y="1063"/>
      <point x="394" y="882" type="qcurve" smooth="yes"/>
      <point x="394" y="576" type="line" smooth="yes"/>
      <point x="394" y="394"/>
      <point x="562" y="204"/>
    </contour>
  </outline>
</glyph>
<glyph name="oe" format="2">
  <advance width="1875"/>
  <unicode hex="0153"/>
  <outline>
    <contour>
      <point x="92" y="551" type="line" smooth="yes"/>
      <point x="92" y="793"/>
      <point x="363" y="1102"/>
      <point x="602" y="1102" type="qcurve" smooth="yes"/>
      <point x="717" y="1102"/>
      <point x="904" y="1025"/>
      <point x="971" y="955" type="qcurve"/>
      <point x="1035" y="1026"/>
      <point x="1212" y="1102"/>
      <point x="1320" y="1102" type="qcurve" smooth="yes"/>
      <point x="1539" y="1102"/>
      <point x="1781" y="838"/>
      <point x="1781" y="613" type="qcurve" smooth="yes"/>
      <point x="1781" y="454" type="line"/>
      <point x="1134" y="454" type="line"/>
      <point x="1132" y="448" type="line"/>
      <point x="1140" y="341"/>
      <point x="1267" y="203"/>
      <point x="1377" y="203" type="qcurve" smooth="yes"/>
      <point x="1474" y="203"/>
      <point x="1602" y="242"/>
      <point x="1677" y="284" type="qcurve"/>
      <point x="1757" y="104" type="line"/>
      <point x="1691" y="51"/>
      <point x="1477" y="-21"/>
      <point x="1346" y="-21" type="qcurve" smooth="yes"/>
      <point x="1229" y="-21"/>
      <point x="1040" y="55"/>
      <point x="973" y="127" type="qcurve"/>
      <point x="907" y="55"/>
      <point x="720" y="-21"/>
      <point x="604" y="-21" type="qcurve" smooth="yes"/>
      <point x="363" y="-21"/>
      <point x="92" y="286"/>
      <point x="92" y="530" type="qcurve" smooth="yes"/>
    </contour>
    <contour>
      <point x="384" y="530" type="line" smooth="yes"/>
      <point x="384" y="382"/>
      <point x="488" y="203"/>
      <point x="604" y="203" type="qcurve" smooth="yes"/>
      <point x="717" y="203"/>
      <point x="822" y="383"/>
      <point x="822" y="530" type="qcurve" smooth="yes"/>
      <point x="822" y="551" type="line" smooth="yes"/>
      <point x="822" y="695"/>
      <point x="716" y="877"/>
      <point x="602" y="877" type="qcurve" smooth="yes"/>
      <point x="488" y="877"/>
      <point x="384" y="695"/>
      <point x="384" y="551" type="qcurve" smooth="yes"/>
    </contour>
    <contour>
      <point x="1320" y="877" type="qcurve" smooth="yes"/>
      <point x="1239" y="877"/>
      <point x="1145" y="753"/>
      <point x="1134" y="652" type="qcurve"/>
      <point x="1136" y="647" type="line"/>
      <point x="1495" y="647" type="line"/>
      <point x="1495" y="673" type="line" smooth="yes"/>
      <point x="1495" y="766"/>
      <point x="1408" y="877"/>
    </contour>
  </outline>
</glyph>
<glyph name="Tbar" format="1">
  <advance width="1377"/>
  <unicode hex="0166"/>
  <outline>
    <contour>
      <point x="1338" y="1456" type="line"/>
      <point x="1338" y="1068" type="line"/>
      <point x="1114" y="1068" type="line"/>
      <point x="1102" y="1231" type="line"/>
      <point x="834" y="1231" type="line"/>
      <point x="834" y="858" type="line"/>
      <point x="1041" y="858" type="line"/>
      <point x="1041" y="703" type="line"/>
      <point x="834" y="703" type="line"/>
      <point x="834" y="205" type="line"/>
      <point x="990" y="175" type="line"/>
      <point x="990" y="0" type="line"/>
      <point x="386" y="0" type="line"/>
      <point x="386" y="175" type="line"/>
      <point x="542" y="205" type="line"/>
      <point x="542" y="703" type="line"/>
      <point x="340" y="703" type="line"/>
      <point x="340" y="858" type="line"/>
      <point x="542" y="858" type="line"/>
      <point x="542" y="1231" type="line"/>
      <point x="275" y="1231" type="line"/>
      <point x="263" y="1068" type="line"/>
      <point x="40" y="1068" type="line"/>
      <point x="40" y="1456" type="line"/>
    </contour>
  </outline>
</glyph>
<glyph name="longs" format="2">
  <advance width="753"/>
  <unicode hex="017F"/>
  <outline>
    <contour>
      <point x="44" y="175" type="line"/>
      <point x="184" y="205" type="line"/>
      <point x="184" y="1202" type="line" smooth="yes"/>
      <point x="184" y="1384"/>
      <point x="394" y="1581"/>
      <point x="584" y="1581" type="qcurve" smooth="yes"/>
      <point x="621" y="1581"/>
      <point x="698" y="1570"/>
      <point x="744" y="1560" type="qcurve"/>
      <point x="720" y="1345" type="line"/>
      <point x="692" y="1350"/>
      <point x="651" y="1356"/>
      <point x="623" y="1356" type="qcurve" smooth="yes"/>
      <point x="552" y="1356"/>
      <point x="476" y="1275"/>
      <point x="476" y="1202" type="qcurve" smooth="yes"/>
      <point x="476" y="205" type="line"/>
      <point x="631" y="175" type="line"/>
      <point x="631" y="0" type="line"/>
      <point x="44" y="0" type="line"/>
    </contour>
  </outline>
</glyph>
<glyph name="florin" format="2">
  <advance width="797"/>
  <unicode hex="0192"/>
  <outline>
    <contour>
      <point x="714" y="877" type="line"/>
      <point x="507" y="877" type="line"/>
      <point x="506" y="-40" type="line"/>
      <point x="506" y="-230"/>
      <point x="304" y="-437"/>
      <point x="124" y="-437" type="qcurve" smooth="yes"/>
      <point x="84" y="-437"/>
      <point x="17" y="-429"/>
      <point x="-19" y="-420" type="qcurve"/>
      <point x="-4" y="-199" type="line"/>
      <point x="17" y="-205"/>
      <point x="67" y="-212"/>
      <point x="94" y="-212" type="qcurve" smooth="yes"/>
      <point x="151" y="-212"/>
      <point x="214" y="-122"/>
      <point x="214" y="-40" type="qcurve" smooth="yes"/>
      <point x="214" y="877" type="line"/>
      <point x="54" y="877" type="line"/>
      <point x="54" y="1082" type="line"/>
      <point x="214" y="1082" type="line"/>
      <point x="214" y="1202" type="line" smooth="yes"/>
      <point x="214" y="1384"/>
      <point x="424" y="1581"/>
      <point x="615" y="1581" type="qcurve" smooth="yes"/>
      <point x="652" y="1581"/>
      <point x="727" y="1570"/>
      <point x="775" y="1560" type="qcurve"/>
      <point x="750" y="1343" type="line"/>
      <point x="727" y="1347"/>
      <point x="680" y="1353"/>
      <point x="651" y="1353" type="qcurve" smooth="yes"/>
      <point x="580" y="1353"/>
      <point x="507" y="1275"/>
      <point x="507" y="1202" type="qcurve" smooth="yes"/>
      <point x="507" y="1082" type="line"/>
      <point x="714" y="1082" type="line"/>
    </contour>
  </outline>
</glyph>
<glyph name="Ohorn" format="2">
  <advance width="1490"/>
  <unicode hex="01A0"/>
  <outline>
    <contour>
      <point x="1391" y="717" type="line" smooth="yes"/>
      <point x="1391" y="397"/>
      <point x="1025" y="-21"/>
      <point x="729" y="-21" type="qcurve" smooth="yes"/>
      <point x="434" y="-21"/>
      <point x="71" y="397"/>
      <point x="71" y="717" type="qcurve" smooth="yes"/>
      <point x="71" y="739" type="line" smooth="yes"/>
      <point x="71" y="1057"/>
      <point x="433" y="1477"/>
      <point x="728" y="1477" type="qcurve" smooth="yes"/>
      <point x="858" y="1477"/>
      <point x="1081" y="1389"/>
      <point x="1167" y="1309" type="qcurve"/>
      <point x="1214" y="1336"/>
      <point x="1254" y="1466"/>
      <point x="1254" y="1570" type="qcurve"/>
      <point x="1449" y="1570" type="line"/>
      <point x="1449" y="1423"/>
      <point x="1363" y="1224"/>
      <point x="1275" y="1176" type="qcurve"/>
      <point x="1331" y="1084"/>
      <point x="1391" y="862"/>
      <point x="1391" y="739" type="qcurve" smooth="yes"/>
    </contour>
    <contour>
      <point x="1100" y="741" type="line" smooth="yes"/>
      <point x="1100" y="967"/>
      <point x="912" y="1249"/>
      <point x="728" y="1249" type="qcurve" smooth="yes"/>
      <point x="544" y="1249"/>
      <point x="363" y="969"/>
      <point x="363" y="741" type="qcurve" smooth="yes"/>
      <point x="363" y="717" type="line" smooth="yes"/>
      <point x="363" y="487"/>
      <point x="546" y="206"/>
      <point x="729" y="206" type="qcurve" smooth="yes"/>
      <point x="914" y="206"/>
      <point x="1100" y="487"/>
      <point x="1100" y="717" type="qcurve" smooth="yes"/>
    </contour>
  </outline>
</glyph>
<glyph name="ohorn" format="2">
  <advance width="1270"/>
  <unicode hex="01A1"/>
  <outline>
    <contour>
      <point x="78" y="551" type="line" smooth="yes"/>
      <point x="78" y="793"/>
      <point x="349" y="1102"/>
      <point x="588" y="1102" type="qcurve" smooth="yes"/>
      <point x="702" y="1102"/>
      <point x="887" y="1026"/>
      <point x="954" y="957" type="qcurve"/>
      <point x="993" y="986"/>
      <point x="1025" y="1098"/>
      <point x="1025" y="1185" type="qcurve"/>
      <point x="1200" y="1185" type="line"/>
      <point x="1200" y="1057"/>
      <point x="1119" y="884"/>
      <point x="1035" y="842" type="qcurve"/>
      <point x="1066" y="778"/>
      <point x="1099" y="631"/>
      <point x="1099" y="551" type="qcurve" smooth="yes"/>
      <point x="1099" y="530" type="line" smooth="yes"/>
      <point x="1099" y="286"/>
      <point x="828" y="-21"/>
      <point x="590" y="-21" type="qcurve" smooth="yes"/>
      <point x="349" y="-21"/>
      <point x="78" y="286"/>
      <point x="78" y="530" type="qcurve" smooth="yes"/>
    </contour>
    <contour>
      <point x="370" y="530" type="line" smooth="yes"/>
      <point x="370" y="382"/>
      <point x="474" y="203"/>
      <point x="590" y="203" type="qcurve" smooth="yes"/>
      <point x="703" y="203"/>
      <point x="808" y="383"/>
      <point x="808" y="530" type="qcurve" smooth="yes"/>
      <point x="808" y="551" type="line" smooth="yes"/>
      <point x="808" y="695"/>
      <point x="702" y="877"/>
      <point x="588" y="877" type="qcurve" smooth="yes"/>
      <point x="474" y="877"/>
      <point x="370" y="695"/>
      <point x="370" y="551" type="qcurve" smooth="yes"/>
    </contour>
  </outline>
</glyph>
<glyph name="Uhorn" format="2">
  <advance width="1774"/>
  <unicode hex="01AF"/>
  <outline>
    <contour>
      <point x="1357" y="1178" type="line"/>
      <point x="1363" y="1177" type="line"/>
      <point x="1491" y="1179"/>
      <point x="1570" y="1328"/>
      <point x="1570" y="1492" type="qcurve"/>
      <point x="1759" y="1492" type="line"/>
      <point x="1761" y="1487" type="line"/>
      <point x="1764" y="1258"/>
      <point x="1580" y="1020"/>
      <point x="1357" y="1012" type="qcurve"/>
      <point x="1357" y="490" type="line" smooth="yes"/>
      <point x="1357" y="245"/>
      <point x="1033" y="-21"/>
      <point x="771" y="-21" type="qcurve" smooth="yes"/>
      <point x="510" y="-21"/>
      <point x="189" y="245"/>
      <point x="189" y="490" type="qcurve" smooth="yes"/>
      <point x="189" y="1250" type="line"/>
      <point x="34" y="1280" type="line"/>
      <point x="34" y="1456" type="line"/>
      <point x="189" y="1456" type="line"/>
      <point x="482" y="1456" type="line"/>
      <point x="637" y="1456" type="line"/>
      <point x="637" y="1280" type="line"/>
      <point x="482" y="1250" type="line"/>
      <point x="482" y="490" type="line" smooth="yes"/>
      <point x="482" y="346"/>
      <point x="636" y="203"/>
      <point x="771" y="203" type="qcurve" smooth="yes"/>
      <point x="908" y="203"/>
      <point x="1064" y="345"/>
      <point x="1064" y="490" type="qcurve" smooth="yes"/>
      <point x="1064" y="1250" type="line"/>
      <point x="909" y="1280" type="line"/>
      <point x="909" y="1456" type="line"/>
      <point x="1357" y="1456" type="line"/>
    </contour>
  </outline>
</glyph>
<glyph name="uhorn" format="1">
  <advance width="1373"/>
  <unicode hex="01B0"/>
  <outline>
    <contour>
      <point x="1107" y="1082" type="line"/>
      <point x="1107" y="958" type="line"/>
      <point x="1113" y="957" type="line"/>
      <point x="1199.6666666666665" y="971.6666666666667"/>
      <point x="1220.0" y="1034.6666666666665"/>
      <point x="1220" y="1176" type="curve"/>
      <point x="1391" y="1176" type="line"/>
      <point x="1391.0" y="953.3333333333335"/>
      <point x="1312.3333333333335" y="837.0"/>
      <point x="1107" y="809" type="curve"/>
      <point x="1107" y="205" type="line"/>
      <point x="1238" y="175" type="line"/>
      <point x="1238" y="0" type="line"/>
      <point x="851" y="0" type="line"/>
      <point x="832" y="137" type="line"/>
      <point x="762.6666666666667" y="35.666666666666686"/>
      <point x="659.6666666666667" y="-21.0"/>
      <point x="529" y="-21" type="curve" smooth="yes"/>
      <point x="301.0" y="-21.0"/>
      <point x="164.0" y="121.0"/>
      <point x="164" y="429" type="curve" smooth="yes"/>
      <point x="164" y="876" type="line"/>
      <point x="45" y="906" type="line"/>
      <point x="45" y="1082" type="line"/>
      <point x="164" y="1082" type="line"/>
      <point x="456" y="1082" type="line"/>
      <point x="456" y="427" type="line" smooth="yes"/>
      <point x="456.0" y="269.6666666666667"/>
      <point x="509.00000000000006" y="206.0"/>
      <point x="613" y="206" type="curve" smooth="yes"/>
      <point x="705.0" y="206.0"/>
      <point x="772.3333333333333" y="237.0"/>
      <point x="815" y="293" type="curve"/>
      <point x="815" y="876" type="line"/>
      <point x="687" y="906" type="line"/>
      <point x="687" y="1082" type="line"/>
      <point x="815" y="1082" type="line"/>
    </contour>
  </outline>
</glyph>
<glyph name="uni0237" format="2">
  <advance width="621"/>
  <unicode hex="0237"/>
  <outline>
    <contour>
      <point x="506" y="-40" type="line" smooth="yes"/>
      <point x="506" y="-231"/>
      <point x="305" y="-437"/>
      <point x="125" y="-437" type="qcurve" smooth="yes"/>
      <point x="84" y="-437"/>
      <point x="17" y="-429"/>
      <point x="-19" y="-420" type="qcurve"/>
      <point x="-4" y="-199" type="line"/>
      <point x="17" y="-205"/>
      <point x="67" y="-212"/>
      <point x="94" y="-212" type="qcurve" smooth="yes"/>
      <point x="151" y="-212"/>
      <point x="215" y="-122"/>
      <point x="215" y="-40" type="qcurve" smooth="yes"/>
      <point x="215" y="876" type="line"/>
      <point x="59" y="906" type="line"/>
      <point x="59" y="1082" type="line"/>
      <point x="506" y="1082" type="line"/>
    </contour>
  </outline>
</glyph>
<glyph name="schwa" format="2">
  <advance width="1119"/>
  <unicode hex="0259"/>
  <outline>
    <contour>
      <point x="527" y="1104" type="qcurve" smooth="yes"/>
      <point x="761" y="1104"/>
      <point x="1041" y="803"/>
      <point x="1041" y="572" type="qcurve" smooth="yes"/>
      <point x="1041" y="532" type="line" smooth="yes"/>
      <point x="1041" y="289"/>
      <point x="776" y="-20"/>
      <point x="554" y="-19" type="qcurve" smooth="yes"/>
      <point x="333" y="-19"/>
      <point x="92" y="244"/>
      <point x="92" y="469" type="qcurve" smooth="yes"/>
      <point x="92" y="628" type="line"/>
      <point x="738" y="628" type="line"/>
      <point x="740" y="634" type="line"/>
      <point x="732" y="740"/>
      <point x="605" y="879"/>
      <point x="496" y="879" type="qcurve" smooth="yes"/>
      <point x="398" y="879"/>
      <point x="270" y="839"/>
      <point x="196" y="798" type="qcurve"/>
      <point x="116" y="978" type="line"/>
      <point x="182" y="1031"/>
      <point x="396" y="1104"/>
    </contour>
    <contour>
      <point x="554" y="205" type="qcurve" smooth="yes"/>
      <point x="634" y="205"/>
      <point x="727" y="328"/>
      <point x="739" y="430" type="qcurve"/>
      <point x="736" y="435" type="line"/>
      <point x="379" y="435" type="line"/>
      <point x="379" y="409" type="line" smooth="yes"/>
      <point x="379" y="315"/>
      <point x="465" y="205"/>
    </contour>
  </outline>
</glyph>
<glyph name="caron" format="1">
  <advance width="874"/>
  <unicode hex="02C7"/>
  <outline>
    <contour>
      <point x="450" y="1384" type="line"/>
      <point x="582" y="1524" type="line"/>
      <point x="830" y="1524" type="line"/>
      <point x="830" y="1507" type="line"/>
      <point x="550" y="1252" type="line"/>
      <point x="350" y="1252" type="line"/>
      <point x="69" y="1508" type="line"/>
      <point x="69" y="1524" type="line"/>
      <point x="318" y="1524" type="line"/>
    </contour>
  </outline>
</glyph>
<glyph name="firsttonechinese" format="1">
  <advance width="1008"/>
  <unicode hex="02C9"/>
  <outline>
    <contour>
      <point x="877" y="1292" type="line"/>
      <point x="146" y="1292" type="line"/>
      <point x="146" y="1457" type="line"/>
      <point x="877" y="1457" type="line"/>
    </contour>
  </outline>
</glyph>
<glyph name="breve" format="2">
  <advance width="873"/>
  <unicode hex="02D8"/>
  <outline>
    <contour>
      <point x="785" y="1456" type="line"/>
      <point x="787" y="1450" type="line"/>
      <point x="792" y="1323"/>
      <point x="605" y="1162"/>
      <point x="447" y="1162" type="qcurve" smooth="yes"/>
      <point x="288" y="1162"/>
      <point x="100" y="1323"/>
      <point x="106" y="1450" type="qcurve"/>
      <point x="108" y="1456" type="line"/>
      <point x="306" y="1456" type="line"/>
      <point x="306" y="1398"/>
      <point x="374" y="1322"/>
      <point x="447" y="1322" type="qcurve" smooth="yes"/>
      <point x="518" y="1322"/>
      <point x="586" y="1397"/>
      <point x="586" y="1456" type="qcurve"/>
    </contour>
  </outline>
</glyph>
<glyph name="dotaccent" format="1">
  <advance width="556"/>
  <unicode hex="02D9"/>
  <outline>
    <contour>
      <point x="442" y="1227" type="line"/>
      <point x="137" y="1227" type="line"/>
      <point x="137" y="1468" type="line"/>
      <point x="442" y="1468" type="line"/>
    </contour>
  </outline>
</glyph>
<glyph name="ring" format="2">
  <advance width="654"/>
  <unicode hex="02DA"/>
  <outline>
    <contour>
      <point x="114" y="1298" type="qcurve" smooth="yes"/>
      <point x="114" y="1381"/>
      <point x="237" y="1494"/>
      <point x="327" y="1494" type="qcurve" smooth="yes"/>
      <point x="415" y="1494"/>
      <point x="536" y="1381"/>
      <point x="536" y="1298" type="qcurve" smooth="yes"/>
      <point x="536" y="1214"/>
      <point x="415" y="1106"/>
      <point x="327" y="1106" type="qcurve" smooth="yes"/>
      <point x="236" y="1106"/>
      <point x="114" y="1214"/>
    </contour>
    <contour>
      <point x="229" y="1298" type="qcurve" smooth="yes"/>
      <point x="229" y="1255"/>
      <point x="285" y="1200"/>
      <point x="327" y="1200" type="qcurve" smooth="yes"/>
      <point x="368" y="1200"/>
      <point x="420" y="1255"/>
      <point x="420" y="1298" type="qcurve" smooth="yes"/>
      <point x="420" y="1342"/>
      <point x="368" y="1398"/>
      <point x="327" y="1398" type="qcurve" smooth="yes"/>
      <point x="285" y="1398"/>
      <point x="229" y="1341"/>
    </contour>
  </outline>
</glyph>
<glyph name="ogonek" format="2">
  <advance width="467"/>
  <unicode hex="02DB"/>
  <outline>
    <contour>
      <point x="362" y="0" type="line"/>
      <point x="309" y="-53"/>
      <point x="259" y="-127"/>
      <point x="259" y="-176" type="qcurve" smooth="yes"/>
      <point x="259" y="-203"/>
      <point x="292" y="-246"/>
      <point x="344" y="-246" type="qcurve" smooth="yes"/>
      <point x="372" y="-246"/>
      <point x="415" y="-234"/>
      <point x="438" y="-226" type="qcurve"/>
      <point x="473" y="-380" type="line"/>
      <point x="437" y="-399"/>
      <point x="349" y="-424"/>
      <point x="288" y="-424" type="qcurve" smooth="yes"/>
      <point x="179" y="-424"/>
      <point x="40" y="-311"/>
      <point x="40" y="-210" type="qcurve" smooth="yes"/>
      <point x="40" y="-133"/>
      <point x="132" y="6"/>
      <point x="230" y="60" type="qcurve"/>
    </contour>
  </outline>
</glyph>
<glyph name="tilde" format="2">
  <advance width="950"/>
  <unicode hex="02DC"/>
  <outline>
    <contour>
      <point x="857" y="1484" type="line"/>
      <point x="857" y="1388"/>
      <point x="738" y="1253"/>
      <point x="647" y="1253" type="qcurve" smooth="yes"/>
      <point x="577" y="1253"/>
      <point x="400" y="1340"/>
      <point x="348" y="1340" type="qcurve" smooth="yes"/>
      <point x="312" y="1340"/>
      <point x="263" y="1275"/>
      <point x="263" y="1230" type="qcurve"/>
      <point x="108" y="1272" type="line"/>
      <point x="108" y="1366"/>
      <point x="227" y="1505"/>
      <point x="317" y="1505" type="qcurve" smooth="yes"/>
      <point x="373" y="1505"/>
      <point x="564" y="1418"/>
      <point x="616" y="1418" type="qcurve" smooth="yes"/>
      <point x="651" y="1418"/>
      <point x="702" y="1482"/>
      <point x="702" y="1529" type="qcurve"/>
    </contour>
  </outline>
</glyph>
<glyph name="hungarumlaut" format="2">
  <advance width="971"/>
  <unicode hex="02DD"/>
  <outline>
    <contour>
      <point x="677" y="1518" type="line"/>
      <point x="940" y="1518" type="line"/>
      <point x="942" y="1512" type="line"/>
      <point x="657" y="1252" type="line"/>
      <point x="439" y="1252" type="line"/>
      <point x="437" y="1257" type="line"/>
    </contour>
    <contour>
      <point x="289" y="1518" type="line"/>
      <point x="549" y="1518" type="line"/>
      <point x="551" y="1513" type="line"/>
      <point x="311" y="1252" type="line"/>
      <point x="90" y="1252" type="line"/>
    </contour>
  </outline>
</glyph>
<glyph name="lowringmod" format="1">
  <advance width="447"/>
  <unicode hex="02F3"/>
  <outline>
    <contour>
      <point x="46" y="-254" type="curve" smooth="yes"/>
      <point x="46.0" y="-159.33333333333337"/>
      <point x="125.99999999999997" y="-89.0"/>
      <point x="230" y="-89" type="curve" smooth="yes"/>
      <point x="331.33333333333337" y="-89.0"/>
      <point x="410.0" y="-159.33333333333337"/>
      <point x="410" y="-254" type="curve" smooth="yes"/>
      <point x="410.0" y="-347.33333333333337"/>
      <point x="331.33333333333337" y="-416.0"/>
      <point x="230" y="-416" type="curve" smooth="yes"/>
      <point x="126.0" y="-416.0"/>
      <point x="46.0" y="-346.0"/>
    </contour>
    <contour>
      <point x="159" y="-254" type="curve" smooth="yes"/>
      <point x="159.0" y="-292.66666666666663"/>
      <point x="188.66666666666669" y="-322.0"/>
      <point x="230" y="-322" type="curve" smooth="yes"/>
      <point x="267.3333333333333" y="-322.0"/>
      <point x="296.0" y="-292.66666666666663"/>
      <point x="296" y="-254" type="curve" smooth="yes"/>
      <point x="296.0" y="-211.33333333333331"/>
      <point x="267.3333333333333" y="-183.0"/>
      <point x="230" y="-183" type="curve" smooth="yes"/>
      <point x="188.66666666666669" y="-183.0"/>
      <point x="159.0" y="-211.33333333333331"/>
    </contour>
  </outline>
</glyph>
<glyph name="uni02F3" format="2">
  <advance width="447"/>
  <unicode hex="02F3"/>
  <outline>
    <contour>
      <point x="46" y="-254" type="qcurve" smooth="yes"/>
      <point x="46" y="-183"/>
      <point x="152" y="-89"/>
      <point x="230" y="-89" type="qcurve" smooth="yes"/>
      <point x="306" y="-89"/>
      <point x="410" y="-183"/>
      <point x="410" y="-254" type="qcurve" smooth="yes"/>
      <point x="410" y="-324"/>
      <point x="306" y="-416"/>
      <point x="230" y="-416" type="qcurve" smooth="yes"/>
      <point x="152" y="-416"/>
      <point x="46" y="-323"/>
    </contour>
    <contour>
      <point x="159" y="-254" type="qcurve" smooth="yes"/>
      <point x="159" y="-283"/>
      <point x="199" y="-322"/>
      <point x="230" y="-322" type="qcurve" smooth="yes"/>
      <point x="258" y="-322"/>
      <point x="296" y="-283"/>
      <point x="296" y="-254" type="qcurve" smooth="yes"/>
      <point x="296" y="-222"/>
      <point x="258" y="-183"/>
      <point x="230" y="-183" type="qcurve" smooth="yes"/>
      <point x="199" y="-183"/>
      <point x="159" y="-222"/>
    </contour>
  </outline>
</glyph>
<glyph name="gravecomb" format="1">
  <advance width="528"/>
  <unicode hex="0300"/>
  <outline>
    <contour>
      <point x="444" y="1197" type="line"/>
      <point x="267" y="1197" type="line"/>
      <point x="78" y="1510" type="line"/>
      <point x="309" y="1510" type="line"/>
    </contour>
  </outline>
</glyph>
<glyph name="hook" format="2">
  <advance width="612"/>
  <unicode hex="0309"/>
  <outline>
    <contour>
      <point x="147" y="1264" type="line"/>
      <point x="132" y="1401" type="line"/>
      <point x="205" y="1404"/>
      <point x="269" y="1434"/>
      <point x="269" y="1467" type="qcurve" smooth="yes"/>
      <point x="269" y="1504"/>
      <point x="193" y="1536"/>
      <point x="127" y="1536" type="qcurve"/>
      <point x="134" y="1669" type="line"/>
      <point x="319" y="1669"/>
      <point x="516" y="1565"/>
      <point x="516" y="1474" type="qcurve" smooth="yes"/>
      <point x="516" y="1410"/>
      <point x="429" y="1338"/>
      <point x="366" y="1329" type="qcurve"/>
      <point x="365" y="1264" type="line"/>
    </contour>
  </outline>
</glyph>
<glyph name="dblgravecomb" format="1">
  <advance width="982"/>
  <unicode hex="030F"/>
  <outline>
    <contour>
      <point x="588" y="1257" type="line"/>
      <point x="586" y="1252" type="line"/>
      <point x="352" y="1252" type="line"/>
      <point x="67" y="1512" type="line"/>
      <point x="69" y="1518" type="line"/>
      <point x="348" y="1518" type="line"/>
    </contour>
    <contour>
      <point x="934" y="1252" type="line"/>
      <point x="699" y="1252" type="line"/>
      <point x="459" y="1513" type="line"/>
      <point x="461" y="1518" type="line"/>
      <point x="735" y="1518" type="line"/>
    </contour>
  </outline>
</glyph>
<glyph name="dotbelowcomb" format="1">
  <advance width="443"/>
  <unicode hex="0323"/>
  <outline>
    <contour>
      <point x="385" y="-360" type="line"/>
      <point x="88" y="-360" type="line"/>
      <point x="88" y="-120" type="line"/>
      <point x="385" y="-120" type="line"/>
    </contour>
  </outline>
</glyph>
<glyph name="dieresistonos" format="1">
  <advance width="1042"/>
  <unicode hex="0385"/>
  <outline>
    <contour>
      <point x="933" y="1252" type="line"/>
      <point x="695" y="1252" type="line"/>
      <point x="695" y="1456" type="line"/>
      <point x="933" y="1456" type="line"/>
    </contour>
    <contour>
      <point x="370" y="1252" type="line"/>
      <point x="132" y="1252" type="line"/>
      <point x="132" y="1456" type="line"/>
      <point x="370" y="1456" type="line"/>
    </contour>
    <contour>
      <point x="488" y="1723" type="line"/>
      <point x="769" y="1723" type="line"/>
      <point x="593" y="1398" type="line"/>
      <point x="446" y="1398" type="line"/>
    </contour>
  </outline>
</glyph>
<glyph name="Delta" format="1">
  <advance width="1460"/>
  <unicode hex="0394"/>
  <outline>
    <contour>
      <point x="595" y="1456" type="line"/>
      <point x="894" y="1456" type="line"/>
      <point x="1467" y="0" type="line"/>
      <point x="12" y="0" type="line"/>
    </contour>
    <contour>
      <point x="402" y="224" type="line"/>
      <point x="1078" y="224" type="line"/>
      <point x="746" y="1110" type="line"/>
      <point x="740" y="1110" type="line"/>
    </contour>
  </outline>
</glyph>
<glyph name="Theta" format="1">
  <advance width="1400"/>
  <unicode hex="0398"/>
  <outline>
    <contour>
      <point x="893" y="613" type="line"/>
      <point x="513" y="613" type="line"/>
      <point x="513" y="837" type="line"/>
      <point x="893" y="837" type="line"/>
    </contour>
    <contour>
      <point x="1384" y="717" type="line" smooth="yes"/>
      <point x="1384.0" y="290.33333333333337"/>
      <point x="1116.6666666666665" y="-21.0"/>
      <point x="722" y="-21" type="curve" smooth="yes"/>
      <point x="328.66666666666674" y="-21.0"/>
      <point x="64.0" y="290.33333333333337"/>
      <point x="64" y="717" type="curve" smooth="yes"/>
      <point x="64" y="739" type="line" smooth="yes"/>
      <point x="64.0" y="1163.0"/>
      <point x="327.66666666666674" y="1477.0"/>
      <point x="721" y="1477" type="curve" smooth="yes"/>
      <point x="1115.6666666666665" y="1477.0"/>
      <point x="1384.0" y="1163.0"/>
      <point x="1384" y="739" type="curve" smooth="yes"/>
    </contour>
    <contour>
      <point x="1093" y="741" type="line" smooth="yes"/>
      <point x="1093.0" y="1042.3333333333333"/>
      <point x="966.3333333333333" y="1249.0"/>
      <point x="721" y="1249" type="curve" smooth="yes"/>
      <point x="475.6666666666666" y="1249.0"/>
      <point x="356.0" y="1045.0"/>
      <point x="356" y="741" type="curve" smooth="yes"/>
      <point x="356" y="717" type="line" smooth="yes"/>
      <point x="356.0" y="410.3333333333335"/>
      <point x="478.0" y="206.0"/>
      <point x="722" y="206" type="curve" smooth="yes"/>
      <point x="968.6666666666667" y="206.0"/>
      <point x="1093.0" y="410.3333333333334"/>
      <point x="1093" y="717" type="curve" smooth="yes"/>
    </contour>
  </outline>
</glyph>
<glyph name="Lambda" format="2">
  <advance width="1467"/>
  <unicode hex="039B"/>
  <outline>
    <contour>
      <point x="37" y="175" type="line"/>
      <point x="162" y="191" type="line"/>
      <point x="591" y="1456" type="line"/>
      <point x="890" y="1456" type="line"/>
      <point x="1319" y="191" type="line"/>
      <point x="1444" y="175" type="line"/>
      <point x="1444" y="0" type="line"/>
      <point x="923" y="0" type="line"/>
      <point x="923" y="175" type="line"/>
      <point x="1021" y="194" type="line"/>
      <point x="744" y="1136" type="line"/>
      <point x="738" y="1136" type="line"/>
      <point x="459" y="194" type="line"/>
      <point x="558" y="175" type="line"/>
      <point x="558" y="0" type="line"/>
      <point x="37" y="0" type="line"/>
    </contour>
  </outline>
</glyph>
<glyph name="Xi" format="1">
  <advance width="1245"/>
  <unicode hex="039E"/>
  <outline>
    <contour>
      <point x="63" y="368" type="line"/>
      <point x="286" y="368" type="line"/>
      <point x="297" y="224" type="line"/>
      <point x="959" y="224" type="line"/>
      <point x="971" y="368" type="line"/>
      <point x="1194" y="368" type="line"/>
      <point x="1194" y="0" type="line"/>
      <point x="63" y="0" type="line"/>
    </contour>
    <contour>
      <point x="1154" y="1456" type="line"/>
      <point x="1154" y="1087" type="line"/>
      <point x="930" y="1087" type="line"/>
      <point x="918" y="1231" type="line"/>
      <point x="320" y="1231" type="line"/>
      <point x="309" y="1087" type="line"/>
      <point x="85" y="1087" type="line"/>
      <point x="85" y="1456" type="line"/>
    </contour>
    <contour>
      <point x="313" y="849" type="line"/>
      <point x="943" y="849" type="line"/>
      <point x="943" y="632" type="line"/>
      <point x="313" y="632" type="line"/>
    </contour>
  </outline>
</glyph>
<glyph name="Sigma" format="2">
  <advance width="1178"/>
  <unicode hex="03A3"/>
  <outline>
    <contour>
      <point x="70" y="0" type="line"/>
      <point x="70" y="152" type="line"/>
      <point x="512" y="733" type="line"/>
      <point x="70" y="1305" type="line"/>
      <point x="70" y="1456" type="line"/>
      <point x="1113" y="1456" type="line"/>
      <point x="1113" y="1087" type="line"/>
      <point x="890" y="1087" type="line"/>
      <point x="878" y="1231" type="line"/>
      <point x="460" y="1231" type="line"/>
      <point x="821" y="741" type="line"/>
      <point x="821" y="724" type="line"/>
      <point x="458" y="225" type="line"/>
      <point x="905" y="225" type="line"/>
      <point x="917" y="368" type="line"/>
      <point x="1140" y="368" type="line"/>
      <point x="1140" y="0" type="line"/>
    </contour>
  </outline>
</glyph>
<glyph name="Phi" format="1">
  <advance width="1507"/>
  <unicode hex="03A6"/>
  <outline>
    <contour>
      <point x="610" y="259" type="line"/>
      <point x="279.3333333333333" y="267.0"/>
      <point x="55.0" y="447.33333333333354"/>
      <point x="55" y="718" type="curve" smooth="yes"/>
      <point x="55.0" y="995.3333333333333"/>
      <point x="280.6666666666667" y="1183.0"/>
      <point x="610" y="1191" type="curve"/>
      <point x="610" y="1257" type="line"/>
      <point x="455" y="1287" type="line"/>
      <point x="455" y="1456" type="line"/>
      <point x="902" y="1456" type="line"/>
      <point x="1057" y="1456" type="line"/>
      <point x="1057" y="1287" type="line"/>
      <point x="902" y="1257" type="line"/>
      <point x="902" y="1191" type="line"/>
      <point x="1228.6666666666665" y="1181.6666666666665"/>
      <point x="1454.0" y="996.0"/>
      <point x="1454" y="720" type="curve" smooth="yes"/>
      <point x="1454.0" y="449.3333333333335"/>
      <point x="1228.6666666666665" y="267.0"/>
      <point x="902" y="259" type="curve"/>
      <point x="902" y="198" type="line"/>
      <point x="1057" y="168" type="line"/>
      <point x="1057" y="0" type="line"/>
      <point x="455" y="0" type="line"/>
      <point x="455" y="168" type="line"/>
      <point x="610" y="198" type="line"/>
    </contour>
    <contour>
      <point x="341" y="718" type="curve" smooth="yes"/>
      <point x="341.0" y="576.6666666666667"/>
      <point x="443.66666666666674" y="491.33333333333337"/>
      <point x="605" y="490" type="curve"/>
      <point x="610" y="492" type="line"/>
      <point x="610" y="958" type="line"/>
      <point x="605" y="960" type="line"/>
      <point x="443.66666666666674" y="957.3333333333333"/>
      <point x="341.0" y="867.3333333333333"/>
    </contour>
    <contour>
      <point x="1168" y="720" type="curve" smooth="yes"/>
      <point x="1168.0" y="868.0"/>
      <point x="1067.0" y="957.3333333333333"/>
      <point x="907" y="960" type="curve"/>
      <point x="902" y="958" type="line"/>
      <point x="902" y="492" type="line"/>
      <point x="907" y="490" type="line"/>
      <point x="1065.6666666666667" y="491.33333333333337"/>
      <point x="1168.0" y="577.3333333333333"/>
    </contour>
  </outline>
</glyph>
